{"glyphs":{"0":{"ha":772,"x_min":47,"x_max":725,"o":"m 47 492 q 53 604 47 546 q 73 719 58 663 q 112 826 88 775 q 174 916 136 878 q 265 977 213 954 q 386 1000 317 1000 q 508 977 456 1000 q 598 916 560 954 q 660 826 636 878 q 699 719 685 775 q 719 604 714 663 q 725 492 725 546 q 711 325 725 414 q 660 160 697 236 q 556 33 622 83 q 386 -17 490 -17 q 216 33 282 -17 q 113 160 150 83 q 61 325 75 236 q 47 492 47 414 m 181 492 q 187 376 181 443 q 214 248 193 310 q 276 143 235 186 q 386 100 317 100 q 497 143 456 100 q 558 248 538 186 q 585 376 579 310 q 592 492 592 443 q 590 567 592 525 q 580 653 588 610 q 558 738 572 697 q 522 812 544 779 q 465 864 499 844 q 386 883 432 883 q 307 864 340 883 q 251 812 274 844 q 214 738 228 779 q 192 653 200 697 q 183 567 185 610 q 181 492 181 525 z "},"1":{"ha":772,"x_min":117,"x_max":508,"o":"m 375 831 l 194 664 l 117 757 l 390 983 l 508 983 l 508 0 l 375 0 l 375 831 z "},"2":{"ha":772,"x_min":64,"x_max":708,"o":"m 64 142 l 458 533 q 499 576 479 553 q 533 624 518 599 q 558 676 549 649 q 567 735 567 704 q 553 800 567 771 q 517 849 540 829 q 463 881 494 869 q 397 892 432 892 q 278 851 325 892 q 218 740 231 811 l 74 753 q 112 866 83 818 q 183 946 140 914 q 280 993 225 978 q 399 1008 335 1008 q 519 991 463 1008 q 617 940 575 974 q 684 855 660 906 q 708 736 708 804 q 694 645 708 688 q 656 565 679 603 q 601 494 632 528 q 538 429 571 461 l 214 117 l 708 117 l 708 0 l 64 0 l 64 142 z "},"3":{"ha":772,"x_min":64,"x_max":708,"o":"m 204 240 q 267 135 228 169 q 385 100 307 100 q 458 113 424 100 q 518 149 492 126 q 560 205 544 172 q 575 278 575 238 q 549 376 575 339 q 483 431 524 413 q 394 456 443 450 q 299 461 346 461 l 299 578 q 424 588 375 578 q 500 618 472 599 q 539 667 528 638 q 550 732 550 696 q 503 851 550 811 q 385 892 456 892 q 287 860 331 892 q 221 778 243 829 l 85 824 q 203 963 124 918 q 382 1008 283 1008 q 497 992 442 1008 q 593 943 551 976 q 659 859 635 910 q 683 740 683 808 q 637 601 683 663 q 515 518 590 540 l 515 515 q 597 485 561 507 q 658 429 633 463 q 696 355 683 396 q 708 268 708 314 q 681 144 708 197 q 609 55 654 90 q 505 1 564 19 q 381 -17 446 -17 q 183 35 268 -17 q 64 197 97 86 l 204 240 z "},"4":{"ha":772,"x_min":47,"x_max":739,"o":"m 467 217 l 47 217 l 47 353 l 439 983 l 600 983 l 600 333 l 739 333 l 739 217 l 600 217 l 600 0 l 467 0 l 467 217 m 467 825 l 464 825 l 164 333 l 467 333 l 467 825 z "},"5":{"ha":772,"x_min":47,"x_max":689,"o":"m 654 858 l 256 858 l 251 613 q 279 621 261 617 q 316 628 297 625 q 353 632 335 631 q 383 633 371 633 q 509 610 453 633 q 606 543 565 586 q 667 440 646 500 q 689 308 689 381 q 662 175 689 235 q 588 72 635 115 q 478 6 540 29 q 343 -17 415 -17 q 163 35 243 -17 q 47 182 82 86 l 182 228 q 253 130 208 160 q 364 100 297 100 q 438 114 403 100 q 499 153 474 128 q 540 217 525 179 q 556 301 556 254 q 490 463 556 410 q 318 517 424 517 q 223 503 281 517 q 115 465 165 490 l 126 983 l 654 983 l 654 858 z "},"6":{"ha":772,"x_min":49,"x_max":724,"o":"m 306 603 l 311 603 q 419 625 357 625 q 526 607 472 625 q 624 551 581 589 q 696 453 668 513 q 724 314 724 394 q 697 170 724 232 q 624 67 669 108 q 517 4 578 25 q 386 -17 456 -17 q 256 6 317 -17 q 149 69 194 28 q 76 169 103 111 q 49 300 49 228 q 56 383 49 346 q 76 455 63 421 q 107 522 89 489 q 147 590 125 554 l 396 983 l 553 983 l 306 603 m 182 304 q 197 222 182 260 q 238 158 211 185 q 303 115 265 131 q 386 100 340 100 q 469 115 432 100 q 534 158 507 131 q 576 222 561 185 q 590 304 590 260 q 576 386 590 349 q 534 451 561 424 q 469 493 507 478 q 386 508 432 508 q 303 493 340 508 q 238 451 265 478 q 197 386 211 424 q 182 304 182 349 z "},"7":{"ha":772,"x_min":58,"x_max":676,"o":"m 533 867 l 58 867 l 58 983 l 676 983 l 676 869 l 285 0 l 135 0 l 533 867 z "},"8":{"ha":772,"x_min":65,"x_max":707,"o":"m 386 -17 q 260 3 319 -17 q 158 63 201 24 q 90 157 115 101 q 65 282 65 213 q 80 367 65 328 q 119 437 94 406 q 178 490 144 468 q 253 522 213 511 l 253 526 q 197 551 225 533 q 148 597 169 569 q 113 665 126 625 q 99 756 99 704 q 122 856 99 811 q 184 933 144 901 q 276 983 224 965 q 386 1000 328 1000 q 497 983 444 1000 q 588 933 549 965 q 651 856 628 901 q 674 756 674 811 q 660 665 674 704 q 624 597 646 625 q 575 551 603 569 q 519 526 547 533 l 519 522 q 594 490 560 511 q 653 437 628 468 q 692 367 678 406 q 707 282 707 328 q 682 157 707 213 q 614 63 657 101 q 512 3 571 24 q 386 -17 453 -17 m 232 736 q 242 679 232 707 q 272 630 253 651 q 320 594 292 608 q 386 581 349 581 q 453 594 425 581 q 501 628 482 607 q 531 678 521 650 q 540 736 540 706 q 498 848 540 804 q 386 892 456 892 q 277 849 322 892 q 232 736 232 806 m 386 100 q 522 151 469 100 q 574 282 574 201 q 559 360 574 326 q 519 417 544 394 q 459 452 493 440 q 386 464 425 464 q 251 412 304 463 q 199 282 199 361 q 214 205 199 239 q 255 148 229 171 q 315 113 281 125 q 386 100 349 100 z "},"9":{"ha":772,"x_min":49,"x_max":724,"o":"m 467 381 l 461 381 q 353 358 415 358 q 246 376 300 358 q 148 433 192 394 q 76 530 104 471 q 49 669 49 589 q 76 812 49 750 q 149 915 103 874 q 256 978 194 957 q 386 1000 317 1000 q 517 978 456 1000 q 624 914 578 956 q 697 814 669 872 q 724 683 724 756 q 717 600 724 638 q 697 528 710 563 q 665 461 683 494 q 625 393 647 428 l 376 0 l 219 0 l 467 381 m 590 679 q 576 761 590 724 q 534 826 561 799 q 469 868 507 853 q 386 883 432 883 q 303 868 340 883 q 238 826 265 853 q 197 761 211 799 q 182 679 182 724 q 197 597 182 635 q 238 533 211 560 q 303 490 265 506 q 386 475 340 475 q 469 490 432 475 q 534 533 507 506 q 576 597 561 560 q 590 679 590 635 z "}," ":{"ha":386,"x_min":0,"x_max":0,"o":""},"!":{"ha":386,"x_min":101,"x_max":285,"o":"m 257 283 l 124 283 l 124 983 l 257 983 l 257 283 m 101 83 q 128 148 101 121 q 193 175 156 175 q 258 148 231 175 q 285 83 285 121 q 258 19 285 46 q 193 -8 231 -8 q 128 19 156 -8 q 101 83 101 46 z "},"\"":{"ha":721,"x_min":203,"x_max":518,"o":"m 203 983 l 311 983 l 311 642 l 203 642 l 203 983 m 410 983 l 518 983 l 518 642 l 410 642 l 410 983 z "},"#":{"ha":772,"x_min":35,"x_max":738,"o":"m 167 283 l 35 283 l 35 392 l 182 392 l 210 592 l 78 592 l 78 700 l 225 700 l 264 983 l 374 983 l 335 700 l 496 700 l 535 983 l 644 983 l 606 700 l 738 700 l 738 592 l 590 592 l 563 392 l 694 392 l 694 283 l 547 283 l 508 0 l 399 0 l 438 283 l 276 283 l 238 0 l 128 0 l 167 283 m 319 592 l 292 392 l 453 392 l 481 592 l 319 592 z "},"$":{"ha":772,"x_min":36,"x_max":717,"o":"m 417 1000 q 566 974 493 1000 q 692 893 639 949 l 592 796 q 515 859 560 836 q 417 883 469 882 l 417 556 l 414 554 q 528 517 474 538 q 625 466 583 497 q 692 388 667 435 q 717 269 717 340 q 692 154 717 206 q 627 66 668 103 q 531 8 586 29 q 417 -17 476 -12 l 417 -117 l 342 -117 l 342 -17 q 172 13 250 -17 q 36 117 93 43 l 143 213 q 229 131 175 160 q 342 100 283 103 l 342 442 q 234 477 285 456 q 144 532 183 499 q 81 613 104 565 q 58 726 58 660 q 82 834 58 786 q 144 917 106 882 q 235 974 183 953 q 342 1000 286 996 l 342 1100 l 417 1100 l 417 1000 m 342 883 q 233 833 275 872 q 192 726 192 793 q 204 669 192 693 q 238 626 217 644 q 285 596 258 608 q 342 575 313 583 l 342 883 m 417 100 q 481 117 451 104 q 534 150 511 129 q 570 199 557 171 q 583 264 583 228 q 569 326 583 300 q 531 369 554 351 q 478 400 508 388 q 417 422 447 413 l 417 100 z "},"%":{"ha":1183,"x_min":51,"x_max":1132,"o":"m 326 -43 l 243 0 l 861 1028 l 944 985 l 326 -43 m 51 763 q 71 858 51 814 q 124 936 90 903 q 201 989 157 969 q 297 1008 246 1008 q 393 989 349 1008 q 471 936 438 969 q 524 858 504 903 q 543 763 543 814 q 524 667 543 711 q 471 589 504 622 q 393 536 438 556 q 297 517 349 517 q 201 536 246 517 q 124 589 157 556 q 71 667 90 622 q 51 763 51 711 m 160 763 q 199 665 160 704 q 297 625 239 625 q 395 665 356 625 q 435 763 435 704 q 395 860 435 821 q 297 900 356 900 q 199 860 239 900 q 160 763 160 821 m 640 221 q 660 317 640 272 q 713 394 679 361 q 790 447 746 428 q 886 467 835 467 q 982 447 938 467 q 1060 394 1026 428 q 1113 317 1093 361 q 1132 221 1132 272 q 1113 125 1132 169 q 1060 47 1093 81 q 982 -6 1026 14 q 886 -25 938 -25 q 790 -6 835 -25 q 713 47 746 14 q 660 125 679 81 q 640 221 640 169 m 749 221 q 788 123 749 163 q 886 83 828 83 q 984 123 944 83 q 1024 221 1024 163 q 984 319 1024 279 q 886 358 944 358 q 788 319 828 358 q 749 221 749 279 z "},"&":{"ha":1003,"x_min":65,"x_max":989,"o":"m 989 0 l 810 0 l 689 131 q 556 15 626 56 q 388 -25 486 -25 q 243 -1 304 -25 q 142 64 182 24 q 84 155 103 104 q 65 260 65 206 q 83 353 65 311 q 132 431 101 396 q 203 493 163 465 q 289 542 244 521 q 208 644 242 592 q 174 769 174 697 q 195 868 174 825 q 253 940 217 911 q 336 985 289 969 q 436 1000 383 1000 q 534 986 488 1000 q 615 944 581 972 q 670 875 650 917 q 690 778 690 833 q 672 694 690 732 q 625 624 654 656 q 560 569 596 593 q 486 525 524 544 l 681 322 l 804 524 l 956 524 l 765 229 l 989 0 m 557 778 q 524 855 557 826 q 438 883 490 883 q 346 853 385 883 q 307 768 307 824 q 316 721 307 743 q 340 678 325 699 q 371 639 354 657 q 404 604 388 621 q 456 635 429 618 q 506 672 483 651 q 542 719 528 693 q 557 778 557 744 m 372 464 q 313 428 343 447 q 260 385 283 408 q 222 331 236 361 q 207 264 207 301 q 222 197 207 228 q 264 142 238 165 q 323 105 290 118 q 392 92 356 92 q 459 103 428 92 q 517 131 490 114 q 567 171 544 149 q 610 217 590 193 l 372 464 z "},"'":{"ha":386,"x_min":139,"x_max":247,"o":"m 247 642 l 139 642 l 139 983 l 247 983 l 247 642 z "},"(":{"ha":386,"x_min":67,"x_max":353,"o":"m 353 958 q 275 822 308 888 q 219 690 242 757 q 186 550 197 622 q 175 394 175 478 q 219 99 175 242 q 353 -167 264 -44 l 269 -222 q 120 65 174 -92 q 67 394 67 222 q 118 714 67 554 q 269 1011 169 874 l 353 958 z "},")":{"ha":386,"x_min":33,"x_max":319,"o":"m 33 -169 q 111 -33 78 -99 q 167 99 144 32 q 200 239 189 167 q 211 394 211 311 q 167 690 211 547 q 33 956 122 833 l 117 1011 q 266 724 213 881 q 319 394 319 567 q 268 75 319 235 q 117 -222 217 -85 l 33 -169 z "},"*":{"ha":644,"x_min":49,"x_max":596,"o":"m 374 779 l 567 844 l 596 751 l 403 689 l 525 524 l 449 467 l 322 636 l 199 469 l 122 526 l 246 689 l 49 756 l 78 846 l 274 779 l 274 983 l 374 983 l 374 779 z "},"+":{"ha":925,"x_min":92,"x_max":833,"o":"m 92 475 l 408 475 l 408 792 l 517 792 l 517 475 l 833 475 l 833 367 l 517 367 l 517 50 l 408 50 l 408 367 l 92 367 l 92 475 z "},",":{"ha":386,"x_min":67,"x_max":297,"o":"m 181 -183 l 67 -183 l 163 158 l 297 158 l 181 -183 z "},"-":{"ha":439,"x_min":49,"x_max":390,"o":"m 390 278 l 49 278 l 49 394 l 390 394 l 390 278 z "},".":{"ha":386,"x_min":101,"x_max":285,"o":"m 193 -8 q 128 19 156 -8 q 101 83 101 46 q 128 148 101 121 q 193 175 156 175 q 258 148 231 175 q 285 83 285 121 q 258 19 285 46 q 193 -8 231 -8 z "},"/":{"ha":540,"x_min":0,"x_max":540,"o":"m 97 -61 l 0 -25 l 444 1044 l 540 1008 l 97 -61 z "},":":{"ha":386,"x_min":101,"x_max":285,"o":"m 193 483 q 128 510 156 483 q 101 575 101 538 q 128 640 101 613 q 193 667 156 667 q 258 640 231 667 q 285 575 285 613 q 258 510 285 538 q 193 483 231 483 m 101 83 q 128 148 101 121 q 193 175 156 175 q 258 148 231 175 q 285 83 285 121 q 258 19 285 46 q 193 -8 231 -8 q 128 19 156 -8 q 101 83 101 46 z "},";":{"ha":386,"x_min":67,"x_max":297,"o":"m 181 -183 l 67 -183 l 163 158 l 297 158 l 181 -183 m 101 574 q 128 638 101 611 q 193 665 156 665 q 258 638 231 665 q 285 574 285 611 q 258 509 285 536 q 193 482 231 482 q 128 509 156 482 q 101 574 101 536 z "},"<":{"ha":925,"x_min":92,"x_max":833,"o":"m 833 60 l 92 364 l 92 478 l 833 783 l 833 674 l 206 421 l 833 168 l 833 60 z "},"=":{"ha":925,"x_min":92,"x_max":833,"o":"m 833 583 l 833 475 l 92 475 l 92 583 l 833 583 m 833 365 l 833 257 l 92 257 l 92 365 l 833 365 z "},">":{"ha":925,"x_min":92,"x_max":833,"o":"m 92 782 l 833 478 l 833 364 l 92 58 l 92 168 l 719 421 l 92 674 l 92 782 z "},"?":{"ha":694,"x_min":67,"x_max":650,"o":"m 292 275 l 292 360 q 297 422 292 397 q 314 467 303 447 q 344 506 325 488 q 390 551 363 525 q 435 594 413 572 q 475 638 457 615 q 505 687 493 661 q 517 744 517 713 q 505 803 517 776 q 474 850 493 831 q 427 881 454 869 q 369 892 400 892 q 259 849 301 892 q 208 736 217 806 l 67 750 q 167 940 85 871 q 372 1008 250 1008 q 481 991 431 1008 q 569 941 532 974 q 628 860 607 908 q 650 751 650 813 q 635 659 650 699 q 592 585 619 619 l 508 499 l 494 486 q 459 451 472 465 q 438 420 446 436 q 428 385 431 404 q 425 336 425 365 l 425 275 l 292 275 m 265 83 q 292 148 265 121 q 357 175 319 175 q 422 148 394 175 q 449 83 449 121 q 422 19 449 46 q 357 -8 394 -8 q 292 19 319 -8 q 265 83 265 46 z "},"@":{"ha":1111,"x_min":61,"x_max":1050,"o":"m 586 674 q 500 652 538 674 q 437 594 463 631 q 398 510 411 557 q 385 414 385 464 q 408 333 385 363 q 483 303 431 303 q 560 327 525 303 q 621 388 596 351 q 660 467 646 424 q 674 551 674 511 q 652 637 674 600 q 586 674 631 674 m 738 371 q 731 336 731 347 q 771 303 731 303 q 831 324 800 303 q 885 383 861 346 q 926 470 910 421 q 942 575 942 519 q 913 720 942 657 q 833 827 883 783 q 717 894 783 871 q 578 917 651 917 q 414 883 489 917 q 285 792 339 850 q 200 657 231 735 q 169 489 169 579 q 201 319 169 397 q 290 185 233 242 q 422 98 346 129 q 585 67 497 67 q 772 103 685 67 q 908 207 858 139 l 1018 207 q 942 111 989 154 q 838 38 896 68 q 714 -8 779 8 q 582 -25 649 -25 q 377 15 472 -25 q 212 126 282 56 q 101 291 142 196 q 61 494 61 386 q 102 695 61 601 q 213 858 143 789 q 377 968 283 928 q 576 1008 471 1008 q 760 976 674 1008 q 910 888 846 944 q 1013 755 975 832 q 1050 586 1050 678 q 1017 425 1050 497 q 935 301 985 353 q 829 222 886 250 q 724 194 772 194 q 663 217 688 194 q 636 283 638 240 l 631 283 q 554 222 599 250 q 458 194 510 194 q 378 212 414 194 q 319 258 343 229 q 281 327 294 288 q 268 413 268 367 q 290 547 268 481 q 353 666 313 614 q 451 750 393 718 q 579 782 508 782 q 668 758 628 782 q 728 676 708 733 l 731 676 l 753 756 l 854 756 l 738 371 z "},"A":{"ha":978,"x_min":1,"x_max":976,"o":"m 435 983 l 556 983 l 976 0 l 821 0 l 722 243 l 254 243 l 157 0 l 1 0 l 435 983 m 674 360 l 490 811 l 488 811 l 301 360 l 674 360 z "},"B":{"ha":875,"x_min":126,"x_max":810,"o":"m 126 983 l 468 983 q 587 968 532 983 q 681 923 642 953 q 744 847 721 893 q 767 738 767 800 q 719 599 767 653 q 597 521 672 546 l 597 518 q 681 495 642 515 q 748 442 719 475 q 793 367 776 410 q 810 274 810 324 q 783 156 810 207 q 708 71 756 106 q 599 18 661 36 q 464 0 536 0 l 126 0 l 126 983 m 260 575 l 442 575 q 513 583 479 575 q 571 608 546 590 q 610 654 596 626 q 625 722 625 682 q 588 824 625 781 q 469 867 550 867 l 260 867 l 260 575 m 260 117 l 456 117 q 523 123 486 117 q 592 148 560 129 q 646 199 624 167 q 668 283 668 231 q 611 415 668 371 q 457 458 554 458 l 260 458 l 260 117 z "},"C":{"ha":978,"x_min":65,"x_max":943,"o":"m 811 771 q 706 854 769 825 q 574 883 642 883 q 423 852 490 883 q 308 767 356 821 q 233 640 260 713 q 207 483 207 567 q 232 336 207 406 q 304 214 257 267 q 419 131 351 161 q 574 100 488 100 q 722 135 658 100 q 831 232 786 169 l 943 147 q 904 103 932 132 q 831 47 876 75 q 720 -3 785 18 q 571 -25 656 -25 q 360 19 454 -25 q 201 136 267 64 q 100 299 135 208 q 65 483 65 390 q 103 694 65 597 q 208 860 140 790 q 369 969 275 931 q 578 1008 464 1008 q 769 971 675 1008 q 922 856 863 933 l 811 771 z "},"D":{"ha":1029,"x_min":104,"x_max":964,"o":"m 104 983 l 447 983 q 630 960 551 983 q 766 897 708 936 q 862 806 824 857 q 922 700 900 754 q 954 592 944 646 q 964 492 964 538 q 929 309 964 397 q 826 152 894 221 q 658 42 758 83 q 425 0 557 0 l 104 0 l 104 983 m 238 125 l 406 125 q 566 148 490 125 q 699 217 642 171 q 789 331 756 263 q 822 492 822 400 q 807 602 822 539 q 749 722 792 665 q 632 819 707 779 q 438 858 557 858 l 238 858 l 238 125 z "},"E":{"ha":849,"x_min":126,"x_max":786,"o":"m 126 983 l 761 983 l 761 858 l 260 858 l 260 565 l 726 565 l 726 440 l 260 440 l 260 125 l 786 125 l 786 0 l 126 0 l 126 983 z "},"F":{"ha":797,"x_min":126,"x_max":744,"o":"m 126 983 l 744 983 l 744 858 l 260 858 l 260 550 l 711 550 l 711 425 l 260 425 l 260 0 l 126 0 l 126 983 z "},"G":{"ha":1081,"x_min":65,"x_max":964,"o":"m 964 550 l 964 65 q 882 26 928 43 q 787 -2 836 10 q 687 -19 738 -14 q 592 -25 636 -25 q 369 17 467 -25 q 203 129 271 58 q 101 294 136 200 q 65 492 65 388 q 103 696 65 601 q 209 860 142 790 q 371 969 276 929 q 578 1008 465 1008 q 800 974 714 1008 q 944 881 886 940 l 850 779 q 721 860 789 838 q 578 883 653 883 q 425 852 493 883 q 308 768 357 821 q 233 644 260 715 q 207 492 207 572 q 236 337 207 408 q 317 213 265 265 q 438 130 368 160 q 589 100 507 100 q 723 113 660 100 q 831 151 786 126 l 831 425 l 613 425 l 613 550 l 964 550 z "},"H":{"ha":1029,"x_min":126,"x_max":903,"o":"m 126 983 l 260 983 l 260 575 l 769 575 l 769 983 l 903 983 l 903 0 l 769 0 l 769 450 l 260 450 l 260 0 l 126 0 l 126 983 z "},"I":{"ha":386,"x_min":126,"x_max":260,"o":"m 126 983 l 260 983 l 260 0 l 126 0 l 126 983 z "},"J":{"ha":669,"x_min":13,"x_max":567,"o":"m 433 983 l 567 983 l 567 281 q 538 128 567 188 q 465 35 508 69 q 371 -12 421 1 q 279 -25 321 -25 q 103 28 175 -25 q 13 190 32 82 l 143 219 q 189 132 154 164 q 279 100 224 100 q 359 119 329 100 q 406 170 389 139 q 428 242 422 201 q 433 324 433 282 l 433 983 z "},"K":{"ha":900,"x_min":126,"x_max":924,"o":"m 126 983 l 260 983 l 260 558 l 271 558 l 706 983 l 892 983 l 417 529 l 924 0 l 729 0 l 271 492 l 260 492 l 260 0 l 126 0 l 126 983 z "},"L":{"ha":721,"x_min":126,"x_max":711,"o":"m 126 983 l 260 983 l 260 125 l 711 125 l 711 0 l 126 0 l 126 983 z "},"M":{"ha":1258,"x_min":117,"x_max":1142,"o":"m 117 983 l 315 983 l 628 239 l 633 239 l 943 983 l 1142 983 l 1142 0 l 1008 0 l 1008 808 l 1006 808 l 674 0 l 585 0 l 253 808 l 250 808 l 250 0 l 117 0 l 117 983 z "},"N":{"ha":1106,"x_min":126,"x_max":979,"o":"m 126 983 l 301 983 l 843 175 l 846 175 l 846 983 l 979 983 l 979 0 l 810 0 l 263 808 l 260 808 l 260 0 l 126 0 l 126 983 z "},"O":{"ha":1156,"x_min":65,"x_max":1090,"o":"m 578 -25 q 371 15 465 -25 q 209 124 276 54 q 103 288 142 193 q 65 492 65 382 q 103 696 65 601 q 209 860 142 790 q 371 969 276 929 q 578 1008 465 1008 q 785 969 690 1008 q 947 860 879 929 q 1052 696 1014 790 q 1090 492 1090 601 q 1052 288 1090 382 q 947 124 1014 193 q 785 15 879 54 q 578 -25 690 -25 m 578 100 q 731 131 663 100 q 847 215 799 163 q 922 340 896 268 q 949 492 949 411 q 922 644 949 572 q 847 768 896 715 q 731 852 799 821 q 578 883 663 883 q 425 852 493 883 q 308 768 357 821 q 233 644 260 715 q 207 492 207 572 q 233 340 207 411 q 308 215 260 268 q 425 131 357 163 q 578 100 493 100 z "},"P":{"ha":824,"x_min":126,"x_max":788,"o":"m 126 983 l 472 983 q 628 958 567 983 q 724 892 689 932 q 774 803 760 853 q 788 708 788 754 q 774 613 788 663 q 724 524 760 564 q 628 459 689 485 q 472 433 567 433 l 260 433 l 260 0 l 126 0 l 126 983 m 260 550 l 435 550 q 512 556 474 550 q 580 579 550 563 q 628 627 610 596 q 646 708 646 658 q 628 790 646 758 q 580 838 610 821 q 512 860 550 854 q 435 867 474 867 l 260 867 l 260 550 z "},"Q":{"ha":1156,"x_min":65,"x_max":1142,"o":"m 1142 0 l 575 0 q 378 38 471 0 q 215 142 285 75 q 106 301 146 208 q 65 503 65 393 q 104 703 65 611 q 212 864 143 796 q 373 970 281 932 q 574 1008 465 1008 q 769 971 678 1008 q 928 867 860 933 q 1035 712 996 801 q 1075 517 1075 622 q 1060 394 1075 454 q 1017 281 1046 333 q 947 186 989 228 q 850 119 904 144 l 850 117 l 1142 117 l 1142 0 m 569 125 q 717 155 650 125 q 833 237 785 185 q 907 360 881 289 q 933 511 933 431 q 906 657 933 589 q 831 775 879 725 q 715 854 782 825 q 569 883 649 883 q 426 854 492 883 q 311 775 360 825 q 235 658 263 725 q 207 514 207 590 q 233 363 207 433 q 308 239 260 292 q 422 156 356 186 q 569 125 489 125 z "},"R":{"ha":849,"x_min":126,"x_max":825,"o":"m 126 983 l 472 983 q 628 958 567 983 q 724 892 689 932 q 774 803 760 853 q 788 708 788 754 q 771 617 788 661 q 723 538 754 574 q 647 478 692 503 q 546 449 601 454 l 825 0 l 658 0 l 408 433 l 260 433 l 260 0 l 126 0 l 126 983 m 260 550 l 435 550 q 512 556 474 550 q 580 579 550 563 q 628 627 610 596 q 646 708 646 658 q 628 790 646 758 q 580 838 610 821 q 512 860 550 854 q 435 867 474 867 l 260 867 l 260 550 z "},"S":{"ha":772,"x_min":46,"x_max":701,"o":"m 156 206 q 248 126 192 151 q 364 100 304 100 q 432 110 397 100 q 495 142 467 121 q 542 193 524 163 q 560 264 560 224 q 524 351 560 321 q 434 401 488 381 q 317 440 381 421 q 201 492 254 458 q 111 581 147 525 q 75 733 75 638 q 94 825 75 776 q 153 914 113 874 q 256 981 193 954 q 408 1008 319 1008 q 563 986 489 1008 q 692 896 636 964 l 583 797 q 513 860 558 836 q 408 883 467 883 q 316 869 353 883 q 257 831 279 854 q 226 782 235 808 q 217 733 217 756 q 253 638 217 671 q 342 583 289 604 q 459 546 396 563 q 576 499 522 529 q 665 419 629 469 q 701 279 701 368 q 674 151 701 208 q 601 56 647 94 q 493 -4 556 17 q 360 -25 431 -25 q 181 8 265 -25 q 46 111 96 42 l 156 206 z "},"T":{"ha":797,"x_min":15,"x_max":782,"o":"m 332 858 l 15 858 l 15 983 l 782 983 l 782 858 l 465 858 l 465 0 l 332 0 l 332 858 z "},"U":{"ha":978,"x_min":108,"x_max":869,"o":"m 242 983 l 242 381 q 254 285 242 335 q 296 194 267 236 q 372 126 325 153 q 489 100 419 100 q 606 126 558 100 q 682 194 653 153 q 724 285 711 236 q 736 381 736 335 l 736 983 l 869 983 l 869 360 q 840 203 869 274 q 760 82 811 133 q 639 3 708 31 q 489 -25 569 -25 q 339 3 408 -25 q 218 82 269 31 q 138 203 167 133 q 108 360 108 274 l 108 983 l 242 983 z "},"V":{"ha":875,"x_min":-8,"x_max":883,"o":"m -8 983 l 146 983 l 435 183 l 438 183 l 738 983 l 883 983 l 496 0 l 371 0 l -8 983 z "},"W":{"ha":1336,"x_min":1,"x_max":1335,"o":"m 1 983 l 140 983 l 357 197 l 360 197 l 592 983 l 744 983 l 976 197 l 979 197 l 1196 983 l 1335 983 l 1049 0 l 908 0 l 669 803 l 667 803 l 429 0 l 289 0 l 1 983 z "},"X":{"ha":900,"x_min":-3,"x_max":903,"o":"m 354 517 l 24 983 l 194 983 l 450 606 l 703 983 l 869 983 l 542 518 l 903 0 l 728 0 l 446 426 l 163 0 l -3 0 l 354 517 z "},"Y":{"ha":850,"x_min":-14,"x_max":864,"o":"m 358 419 l -14 983 l 157 983 l 425 551 l 701 983 l 864 983 l 492 419 l 492 0 l 358 0 l 358 419 z "},"Z":{"ha":824,"x_min":44,"x_max":779,"o":"m 44 125 l 604 858 l 61 858 l 61 983 l 771 983 l 771 858 l 214 125 l 779 125 l 779 0 l 44 0 l 44 125 z "},"[":{"ha":386,"x_min":100,"x_max":342,"o":"m 100 1011 l 342 1011 l 342 919 l 217 919 l 217 -131 l 342 -131 l 342 -222 l 100 -222 l 100 1011 z "},"\\":{"ha":540,"x_min":0,"x_max":540,"o":"m 0 1008 l 96 1044 l 540 -25 l 443 -61 l 0 1008 z "},"]":{"ha":386,"x_min":44,"x_max":286,"o":"m 44 -131 l 169 -131 l 169 919 l 44 919 l 44 1011 l 286 1011 l 286 -222 l 44 -222 l 44 -131 z "},"^":{"ha":925,"x_min":111,"x_max":814,"o":"m 407 983 l 518 983 l 814 383 l 699 383 l 463 874 l 226 383 l 111 383 l 407 983 z "},"_":{"ha":694,"x_min":0,"x_max":694,"o":"m 0 -104 l 694 -104 l 694 -174 l 0 -174 l 0 -104 z "},"`":{"ha":333,"x_min":-64,"x_max":258,"o":"m 258 783 l 143 783 l -64 983 l 114 983 l 258 783 z "},"a":{"ha":721,"x_min":63,"x_max":639,"o":"m 97 578 q 219 651 150 626 q 358 675 289 675 q 483 657 431 675 q 568 608 535 639 q 617 538 601 578 q 633 456 633 499 l 633 119 q 635 56 633 85 q 639 0 636 26 l 528 0 q 524 100 524 50 l 521 100 q 422 10 479 36 q 290 -17 365 -17 q 203 -4 244 -17 q 130 33 161 8 q 81 95 99 58 q 63 181 63 132 q 91 288 63 244 q 169 358 119 331 q 284 397 218 385 q 425 408 350 408 l 517 408 l 517 436 q 507 486 517 461 q 478 531 497 511 q 429 563 458 551 q 360 575 400 575 q 297 568 324 575 q 247 551 269 561 q 207 526 225 540 q 172 500 189 513 l 97 578 m 450 317 q 359 312 406 317 q 274 293 313 307 q 212 254 236 279 q 188 190 188 229 q 226 108 188 133 q 329 83 264 83 q 417 101 381 83 q 475 146 453 118 q 507 208 497 174 q 517 275 517 242 l 517 317 l 450 317 z "},"b":{"ha":849,"x_min":94,"x_max":786,"o":"m 94 1050 l 219 1050 l 219 564 l 222 564 q 318 645 256 615 q 451 675 381 675 q 590 649 528 675 q 695 576 651 622 q 763 466 739 529 q 786 329 786 403 q 763 193 786 256 q 695 83 739 131 q 590 10 651 36 q 451 -17 528 -17 q 322 13 385 -17 q 222 94 258 42 l 219 94 l 219 0 l 94 0 l 94 1050 m 436 100 q 526 117 486 100 q 594 165 567 135 q 638 237 622 194 q 653 329 653 279 q 638 422 653 379 q 594 494 622 464 q 526 541 567 524 q 436 558 486 558 q 346 541 386 558 q 278 494 306 524 q 235 422 250 464 q 219 329 219 379 q 235 237 219 279 q 278 165 250 194 q 346 117 306 135 q 436 100 386 100 z "},"c":{"ha":669,"x_min":63,"x_max":660,"o":"m 565 483 q 492 538 531 519 q 401 557 454 557 q 312 538 350 557 q 248 487 274 519 q 209 412 222 454 q 196 324 196 369 q 211 237 196 278 q 254 165 226 196 q 321 117 282 135 q 408 100 360 100 q 499 119 461 100 q 568 174 536 138 l 657 85 q 544 7 608 31 q 407 -17 479 -17 q 267 8 331 -17 q 158 78 204 33 q 88 187 113 124 q 63 326 63 250 q 88 467 63 403 q 158 576 113 531 q 266 648 203 622 q 407 674 329 674 q 545 648 479 674 q 660 569 611 622 l 565 483 z "},"d":{"ha":849,"x_min":63,"x_max":754,"o":"m 754 0 l 629 0 l 629 94 l 626 94 q 527 13 590 42 q 397 -17 464 -17 q 259 10 321 -17 q 153 83 197 36 q 86 193 110 131 q 63 329 63 256 q 86 466 63 403 q 153 576 110 529 q 259 649 197 622 q 397 675 321 675 q 531 645 468 675 q 626 564 593 615 l 629 564 l 629 1050 l 754 1050 l 754 0 m 413 100 q 503 117 463 100 q 571 165 543 135 q 614 237 599 194 q 629 329 629 279 q 614 422 629 379 q 571 494 599 464 q 503 541 543 524 q 413 558 463 558 q 322 541 363 558 q 254 494 282 524 q 211 422 226 464 q 196 329 196 379 q 211 237 196 279 q 254 165 226 194 q 322 117 282 135 q 413 100 363 100 z "},"e":{"ha":772,"x_min":56,"x_max":717,"o":"m 189 283 q 208 205 189 240 q 257 144 226 169 q 328 106 288 119 q 411 92 368 92 q 513 119 469 92 q 592 190 556 146 l 686 118 q 394 -17 582 -17 q 253 10 317 -17 q 147 83 190 36 q 79 192 103 129 q 56 329 56 256 q 81 466 56 403 q 152 576 107 529 q 260 649 197 622 q 396 675 322 675 q 544 644 483 675 q 643 565 604 614 q 699 453 682 515 q 717 328 717 392 l 717 283 l 189 283 m 583 383 q 570 460 582 425 q 535 520 558 494 q 476 560 511 546 q 393 575 440 575 q 309 558 347 575 q 244 513 271 540 q 203 451 218 485 q 189 383 189 417 l 583 383 z "},"f":{"ha":463,"x_min":1,"x_max":461,"o":"m 143 550 l 1 550 l 1 658 l 143 658 l 143 806 q 194 1002 143 938 q 368 1067 244 1067 q 412 1065 389 1067 q 461 1057 435 1064 l 447 946 q 413 956 429 953 q 376 958 396 958 q 321 948 342 958 q 288 918 300 938 q 273 872 276 899 q 269 810 269 844 l 269 658 l 418 658 l 418 550 l 268 550 l 268 0 l 143 0 l 143 550 z "},"g":{"ha":849,"x_min":63,"x_max":754,"o":"m 754 6 q 728 -131 754 -69 q 656 -238 703 -193 q 542 -308 608 -283 q 394 -333 475 -333 q 222 -307 300 -333 q 72 -215 143 -281 l 157 -110 q 263 -190 206 -162 q 392 -217 319 -217 q 507 -197 461 -217 q 580 -144 553 -176 q 618 -72 607 -112 q 629 11 629 -31 l 629 108 l 625 108 q 527 20 589 49 q 397 -8 465 -8 q 263 17 325 -8 q 157 88 201 43 q 88 195 113 133 q 63 329 63 257 q 86 465 63 401 q 153 575 110 528 q 259 649 197 622 q 397 675 321 675 q 527 646 464 675 q 626 564 590 617 l 629 564 l 629 658 l 754 658 l 754 6 m 413 558 q 322 541 363 558 q 254 494 282 524 q 211 422 226 464 q 196 329 196 379 q 254 169 196 229 q 413 108 313 108 q 571 169 513 108 q 629 329 629 229 q 614 422 629 379 q 571 494 599 464 q 503 541 543 524 q 413 558 463 558 z "},"h":{"ha":772,"x_min":94,"x_max":678,"o":"m 94 1050 l 219 1050 l 219 557 l 222 557 q 304 642 246 610 q 439 675 363 675 q 530 660 486 675 q 606 615 574 646 q 658 537 639 585 q 678 424 678 489 l 678 0 l 553 0 l 553 389 q 540 467 553 435 q 507 520 528 500 q 459 549 486 540 q 403 558 432 558 q 331 546 364 558 q 272 506 297 533 q 233 438 247 479 q 219 339 219 396 l 219 0 l 94 0 l 94 1050 z "},"i":{"ha":333,"x_min":75,"x_max":258,"o":"m 104 658 l 229 658 l 229 0 l 104 0 l 104 658 m 75 894 q 102 959 75 932 q 167 986 129 986 q 231 959 204 986 q 258 894 258 932 q 231 830 258 857 q 167 803 204 803 q 102 830 129 803 q 75 894 75 857 z "},"j":{"ha":333,"x_min":-53,"x_max":258,"o":"m 229 658 l 229 -94 q 226 -160 229 -119 q 203 -240 222 -201 q 144 -306 185 -278 q 28 -333 103 -333 q -13 -331 7 -333 q -53 -321 -33 -328 l -39 -206 q -14 -213 -28 -210 q 13 -217 0 -217 q 84 -184 64 -217 q 104 -89 104 -151 l 104 658 l 229 658 m 75 894 q 102 959 75 932 q 167 986 129 986 q 231 959 204 986 q 258 894 258 932 q 231 830 258 857 q 167 803 204 803 q 102 830 129 803 q 75 894 75 857 z "},"k":{"ha":721,"x_min":94,"x_max":703,"o":"m 94 1050 l 219 1050 l 219 372 l 503 657 l 676 657 l 369 358 l 703 0 l 525 0 l 219 342 l 219 0 l 94 0 l 94 1050 z "},"l":{"ha":333,"x_min":104,"x_max":229,"o":"m 104 1050 l 229 1050 l 229 0 l 104 0 l 104 1050 z "},"m":{"ha":1183,"x_min":94,"x_max":1089,"o":"m 94 658 l 211 658 l 211 556 l 214 556 q 235 590 218 569 q 280 630 253 611 q 344 662 307 649 q 425 675 381 675 q 549 644 499 675 q 631 553 599 614 q 721 644 663 614 q 839 675 779 675 q 964 650 915 675 q 1040 584 1013 625 q 1078 491 1068 543 q 1089 383 1089 439 l 1089 0 l 964 0 l 964 367 q 959 439 964 404 q 939 500 954 474 q 896 542 924 526 q 822 558 868 558 q 693 503 732 558 q 654 360 654 447 l 654 0 l 529 0 l 529 344 q 524 431 529 392 q 505 498 519 469 q 463 542 490 526 q 390 558 436 558 q 326 545 357 558 q 271 506 294 532 q 233 438 247 479 q 219 342 219 397 l 219 0 l 94 0 l 94 658 z "},"n":{"ha":772,"x_min":94,"x_max":678,"o":"m 94 658 l 219 658 l 219 557 l 222 557 q 304 642 246 610 q 439 675 363 675 q 530 660 486 675 q 606 615 574 646 q 658 537 639 585 q 678 424 678 489 l 678 0 l 553 0 l 553 389 q 540 467 553 435 q 507 520 528 500 q 459 549 486 540 q 403 558 432 558 q 331 546 364 558 q 272 506 297 533 q 233 438 247 479 q 219 339 219 396 l 219 0 l 94 0 l 94 658 z "},"o":{"ha":825,"x_min":63,"x_max":763,"o":"m 196 329 q 211 237 196 279 q 254 165 226 194 q 322 117 282 135 q 413 100 363 100 q 503 117 463 100 q 571 165 543 135 q 614 237 599 194 q 629 329 629 279 q 614 422 629 379 q 571 494 599 464 q 503 541 543 524 q 413 558 463 558 q 322 541 363 558 q 254 494 282 524 q 211 422 226 464 q 196 329 196 379 m 63 329 q 90 464 63 401 q 164 574 117 526 q 275 648 211 621 q 413 675 339 675 q 550 648 486 675 q 661 574 614 621 q 735 464 708 526 q 763 329 763 401 q 735 194 763 257 q 661 84 708 131 q 550 10 614 38 q 413 -17 486 -17 q 275 10 339 -17 q 164 84 211 38 q 90 194 117 131 q 63 329 63 257 z "},"p":{"ha":849,"x_min":94,"x_max":786,"o":"m 94 658 l 219 658 l 219 564 l 222 564 q 322 646 258 617 q 451 675 385 675 q 590 649 528 675 q 695 575 651 622 q 763 465 739 528 q 786 329 786 401 q 763 192 786 256 q 695 83 739 129 q 590 10 651 36 q 451 -17 528 -17 q 318 13 381 -17 q 222 94 256 43 l 219 94 l 219 -392 l 94 -392 l 94 658 m 436 558 q 346 541 386 558 q 278 494 306 524 q 235 422 250 464 q 219 329 219 379 q 235 237 219 279 q 278 165 250 194 q 346 117 306 135 q 436 100 386 100 q 526 117 486 100 q 594 165 567 135 q 638 237 622 194 q 653 329 653 279 q 638 422 653 379 q 594 494 622 464 q 526 541 567 524 q 436 558 486 558 z "},"q":{"ha":849,"x_min":63,"x_max":754,"o":"m 754 -317 l 629 -317 l 629 94 l 626 94 q 531 13 593 43 q 397 -17 468 -17 q 259 10 321 -17 q 153 83 197 36 q 86 192 110 129 q 63 329 63 256 q 86 465 63 401 q 153 575 110 528 q 259 649 197 622 q 397 675 321 675 q 527 646 464 675 q 626 564 590 617 l 629 564 l 629 658 l 754 658 l 754 -317 m 413 558 q 322 541 363 558 q 254 494 282 524 q 211 422 226 464 q 196 329 196 379 q 211 237 196 279 q 254 165 226 194 q 322 117 282 135 q 413 100 363 100 q 503 117 463 100 q 571 165 543 135 q 614 237 599 194 q 629 329 629 279 q 614 422 629 379 q 571 494 599 464 q 503 541 543 524 q 413 558 463 558 z "},"r":{"ha":514,"x_min":94,"x_max":475,"o":"m 94 658 l 219 658 l 219 557 l 222 557 q 256 605 235 583 q 302 642 276 626 q 358 666 328 657 q 419 675 389 675 q 475 667 450 675 l 469 532 q 439 539 454 536 q 408 542 424 542 q 268 490 317 542 q 219 331 219 439 l 219 0 l 94 0 l 94 658 z "},"s":{"ha":617,"x_min":39,"x_max":560,"o":"m 444 493 q 390 540 422 521 q 310 558 357 558 q 233 540 265 558 q 200 485 200 521 q 219 438 200 456 q 263 408 238 419 q 318 392 289 397 q 368 382 347 386 q 444 358 408 372 q 505 322 479 344 q 545 268 531 300 q 560 190 560 236 q 536 95 560 135 q 475 31 513 56 q 390 -6 438 6 q 293 -17 342 -17 q 149 8 211 -17 q 39 100 88 33 l 133 178 q 201 124 164 147 q 293 100 239 100 q 341 105 317 100 q 384 120 365 110 q 415 147 403 131 q 426 183 426 163 q 409 229 426 211 q 367 258 392 247 q 316 274 343 268 q 268 285 289 281 q 192 307 228 294 q 128 340 156 319 q 83 393 100 361 q 67 472 67 425 q 88 562 67 524 q 145 625 110 600 q 226 663 181 650 q 317 675 271 675 q 444 650 383 675 q 542 567 506 625 l 444 493 z "},"t":{"ha":514,"x_min":-1,"x_max":451,"o":"m 447 550 l 268 550 l 268 251 q 269 197 268 224 q 280 148 271 169 q 308 113 289 126 q 363 100 326 100 q 408 104 385 100 q 451 119 432 108 l 451 6 q 394 -12 429 -7 q 339 -17 358 -17 q 227 3 267 -17 q 169 56 188 24 q 147 127 150 88 q 143 207 143 167 l 143 550 l -1 550 l -1 658 l 143 658 l 143 843 l 268 843 l 268 658 l 447 658 l 447 550 z "},"u":{"ha":772,"x_min":94,"x_max":678,"o":"m 678 0 l 553 0 l 553 101 l 550 101 q 468 16 526 49 q 333 -17 410 -17 q 242 -2 285 -17 q 166 43 199 13 q 114 122 133 74 q 94 235 94 169 l 94 658 l 219 658 l 219 269 q 232 191 219 224 q 265 138 244 158 q 313 109 286 118 q 369 100 340 100 q 442 113 408 100 q 500 152 475 125 q 539 221 525 179 q 553 319 553 263 l 553 658 l 678 658 l 678 0 z "},"v":{"ha":694,"x_min":15,"x_max":679,"o":"m 15 658 l 160 658 l 357 154 l 546 658 l 679 658 l 421 0 l 283 0 l 15 658 z "},"w":{"ha":1054,"x_min":15,"x_max":1039,"o":"m 15 658 l 156 658 l 304 167 l 307 167 l 464 658 l 596 658 l 763 167 l 765 167 l 907 658 l 1039 658 l 826 0 l 700 0 l 526 492 l 524 492 l 367 0 l 232 0 l 15 658 z "},"x":{"ha":721,"x_min":8,"x_max":713,"o":"m 275 351 l 42 658 l 203 658 l 363 425 l 519 658 l 671 658 l 446 351 l 713 0 l 551 0 l 357 276 l 163 0 l 8 0 l 275 351 z "},"y":{"ha":694,"x_min":15,"x_max":679,"o":"m 15 658 l 160 658 l 356 144 l 358 144 l 544 658 l 679 658 l 367 -142 q 332 -220 350 -185 q 289 -281 314 -256 q 228 -319 264 -306 q 142 -333 193 -333 q 85 -330 114 -333 q 31 -315 57 -326 l 46 -201 q 121 -217 83 -217 q 170 -209 150 -217 q 205 -187 190 -201 q 229 -153 219 -172 q 249 -108 239 -133 l 289 -4 l 15 658 z "},"z":{"ha":643,"x_min":49,"x_max":594,"o":"m 49 113 l 422 550 l 61 550 l 61 658 l 575 658 l 575 547 l 199 108 l 594 108 l 594 0 l 49 0 l 49 113 z "},"{":{"ha":463,"x_min":56,"x_max":422,"o":"m 422 911 l 360 911 q 326 901 339 911 q 304 873 313 890 q 292 834 296 856 q 289 790 289 813 l 289 581 q 277 499 290 532 q 244 443 264 465 q 205 410 225 421 q 172 396 185 399 l 172 392 q 205 381 185 390 q 244 350 225 371 q 277 294 264 329 q 289 206 290 258 l 289 -3 q 292 -45 289 -24 q 304 -84 296 -67 q 326 -112 313 -101 q 360 -122 339 -122 l 422 -122 l 422 -222 l 318 -222 q 266 -210 292 -222 q 219 -172 240 -197 q 185 -106 199 -146 q 172 -10 172 -65 l 172 176 q 136 296 169 253 q 56 339 103 339 l 56 447 q 136 490 103 447 q 172 610 169 533 l 172 829 q 185 908 172 874 q 219 965 199 942 q 266 999 240 988 q 318 1011 292 1011 l 422 1011 l 422 911 z "},"|":{"ha":308,"x_min":100,"x_max":208,"o":"m 100 1050 l 208 1050 l 208 -25 l 100 -25 l 100 1050 z "},"}":{"ha":463,"x_min":40,"x_max":407,"o":"m 40 -122 l 103 -122 q 137 -112 124 -122 q 158 -84 150 -101 q 170 -45 167 -67 q 174 -1 174 -24 l 174 208 q 185 290 172 257 q 218 346 199 324 q 258 379 238 368 q 290 393 278 390 l 290 397 q 258 408 278 399 q 218 439 238 418 q 185 495 199 460 q 174 583 172 531 l 174 792 q 170 834 174 813 q 158 873 167 856 q 137 901 150 890 q 103 911 124 911 l 40 911 l 40 1011 l 144 1011 q 197 999 171 1011 q 243 960 222 986 q 277 894 264 935 q 290 799 290 854 l 290 613 q 325 493 290 536 q 407 450 360 450 l 407 342 q 325 299 360 342 q 290 179 290 256 l 290 -40 q 277 -119 290 -85 q 243 -176 264 -153 q 197 -210 222 -199 q 144 -222 171 -222 l 40 -222 l 40 -122 z "},"~":{"ha":925,"x_min":133,"x_max":792,"o":"m 792 439 q 705 342 750 368 q 614 317 660 317 q 533 332 574 317 q 453 367 493 347 q 376 401 413 386 q 306 417 339 417 q 265 408 283 417 q 233 384 247 399 q 208 352 219 369 q 189 317 197 335 l 133 403 q 208 491 165 457 q 318 525 251 525 q 399 510 360 525 q 475 475 439 494 q 546 440 511 456 q 613 424 581 424 q 676 445 646 424 q 736 525 707 467 l 792 439 z "}," ":{"ha":386,"x_min":0,"x_max":0,"o":""},"¡":{"ha":386,"x_min":101,"x_max":285,"o":"m 129 392 l 263 392 l 263 -308 l 129 -308 l 129 392 m 285 592 q 258 527 285 554 q 193 500 231 500 q 128 527 156 500 q 101 592 101 554 q 128 656 101 629 q 193 683 156 683 q 258 656 231 683 q 285 592 285 629 z "},"¢":{"ha":772,"x_min":100,"x_max":707,"o":"m 475 92 q 622 164 563 94 l 704 83 q 605 13 664 38 q 475 -17 546 -11 l 475 -108 l 400 -108 l 400 -17 q 275 19 331 -10 q 181 94 219 49 q 121 201 142 140 q 100 329 100 261 q 121 459 100 400 q 181 563 142 518 q 275 636 219 607 q 400 675 331 665 l 400 767 l 475 767 l 475 675 q 603 645 542 672 q 707 569 665 618 l 617 488 q 553 542 590 519 q 475 567 515 565 l 475 92 m 400 567 q 324 538 357 560 q 269 485 292 517 q 236 413 247 453 q 225 332 225 374 q 237 249 225 289 q 271 177 249 210 q 326 122 293 144 q 400 92 358 100 l 400 567 z "},"£":{"ha":772,"x_min":100,"x_max":782,"o":"m 600 456 l 375 456 l 375 117 l 717 117 l 717 0 l 100 0 l 100 117 l 242 117 l 242 456 l 108 456 l 108 556 l 242 556 l 242 694 q 261 810 242 754 q 319 908 281 865 q 414 975 357 950 q 547 1000 471 1000 q 674 980 614 1000 q 782 914 733 960 l 697 817 q 631 865 665 847 q 561 883 596 883 q 491 872 525 883 q 431 833 457 860 q 390 765 406 807 q 375 661 375 722 l 375 556 l 600 556 l 600 456 z "},"¤":{"ha":772,"x_min":29,"x_max":743,"o":"m 108 849 l 176 782 q 278 833 225 817 q 386 850 332 850 q 494 833 440 850 q 596 782 547 817 l 664 849 l 743 771 l 675 703 q 726 602 710 656 q 743 493 743 549 q 726 384 743 438 q 675 283 710 331 l 743 215 l 664 136 l 596 204 q 497 153 550 169 q 386 136 443 136 q 176 204 272 136 l 108 136 l 29 215 l 97 283 q 47 383 64 329 q 29 493 29 438 q 47 603 29 550 q 97 703 64 657 l 29 771 l 108 849 m 138 493 q 157 397 138 442 q 210 317 176 351 q 290 264 244 283 q 386 244 335 244 q 483 264 438 244 q 562 317 528 283 q 615 397 596 351 q 635 493 635 442 q 615 590 635 544 q 562 669 596 635 q 483 722 528 703 q 386 742 438 742 q 290 722 335 742 q 210 669 244 703 q 157 590 176 635 q 138 493 138 544 z "},"¥":{"ha":772,"x_min":-7,"x_max":779,"o":"m 328 258 l 90 258 l 90 350 l 328 350 l 328 424 l 304 463 l 90 463 l 90 554 l 249 554 l -7 983 l 132 983 l 381 544 l 638 983 l 779 983 l 521 554 l 682 554 l 682 463 l 468 463 l 444 424 l 444 350 l 682 350 l 682 258 l 444 258 l 444 0 l 328 0 l 328 258 z "},"¦":{"ha":308,"x_min":100,"x_max":208,"o":"m 100 397 l 208 397 l 208 -25 l 100 -25 l 100 397 m 100 1050 l 208 1050 l 208 628 l 100 628 l 100 1050 z "},"§":{"ha":772,"x_min":86,"x_max":686,"o":"m 554 806 q 499 870 536 850 q 414 892 463 890 q 318 865 360 892 q 276 783 276 839 q 307 714 276 742 q 383 663 338 686 q 481 618 428 640 q 580 565 535 596 q 656 492 625 535 q 686 388 686 450 q 655 280 686 326 q 571 206 624 233 q 638 134 614 176 q 661 38 661 92 q 636 -67 661 -22 q 570 -141 611 -111 q 476 -185 529 -171 q 369 -200 424 -200 q 201 -160 278 -200 q 86 -32 124 -121 l 207 25 q 273 -58 226 -33 q 379 -83 319 -83 q 431 -76 406 -83 q 476 -55 456 -69 q 508 -17 496 -40 q 519 38 519 6 q 489 100 519 74 q 413 149 458 126 q 315 196 368 172 q 216 248 261 219 q 140 315 171 276 q 110 407 110 353 q 148 539 110 490 q 246 617 186 588 q 165 685 196 644 q 135 781 135 725 q 160 879 135 836 q 224 951 185 922 q 315 994 264 979 q 417 1008 365 1008 q 492 1001 454 1008 q 565 976 531 993 q 626 933 599 960 q 671 869 654 907 l 554 806 m 338 556 q 300 539 318 549 q 267 516 282 529 q 244 485 253 503 q 235 446 235 468 q 248 392 235 414 q 281 354 261 369 q 324 327 300 339 q 371 304 349 315 l 478 253 q 535 306 510 272 q 561 375 561 339 q 551 419 561 400 q 524 454 540 439 q 487 481 507 469 q 447 503 467 493 l 338 556 z "},"¨":{"ha":333,"x_min":-61,"x_max":394,"o":"m 25 992 q 84 969 57 992 q 111 913 111 947 q 87 850 111 875 q 25 825 63 825 q -37 850 -12 825 q -61 913 -61 875 q -34 969 -61 947 q 25 992 -7 992 m 308 992 q 367 969 340 992 q 394 913 394 947 q 370 850 394 875 q 308 825 346 825 q 247 850 271 825 q 222 913 222 875 q 249 969 222 947 q 308 992 276 992 z "},"©":{"ha":1111,"x_min":39,"x_max":1072,"o":"m 39 492 q 80 692 39 599 q 191 856 121 786 q 355 967 261 926 q 556 1008 449 1008 q 756 967 663 1008 q 920 856 850 926 q 1031 692 990 786 q 1072 492 1072 599 q 1031 291 1072 385 q 920 127 990 197 q 756 16 850 57 q 556 -25 663 -25 q 355 16 449 -25 q 191 127 261 57 q 80 291 121 197 q 39 492 39 385 m 818 397 q 728 238 796 297 q 560 179 660 179 q 430 202 488 179 q 333 267 372 225 q 272 367 293 308 q 251 496 251 425 q 272 625 251 567 q 330 725 292 683 q 425 790 368 767 q 556 813 482 813 q 731 759 660 813 q 818 600 801 706 l 711 600 q 662 682 697 651 q 557 713 626 713 q 408 656 457 713 q 360 499 360 599 q 373 413 360 453 q 412 344 386 374 q 475 297 438 314 q 560 279 513 279 q 663 311 626 279 q 711 397 700 343 l 818 397 m 131 492 q 164 326 131 404 q 255 191 197 249 q 390 100 313 133 q 556 67 468 67 q 721 100 643 67 q 856 191 799 133 q 947 326 914 249 q 981 492 981 404 q 947 657 981 579 q 856 792 914 735 q 721 883 799 850 q 556 917 643 917 q 390 883 468 917 q 255 792 313 850 q 164 657 197 735 q 131 492 131 579 z "},"ª":{"ha":468,"x_min":47,"x_max":428,"o":"m 336 590 l 336 651 l 333 653 q 278 597 314 613 q 194 582 243 582 q 140 590 167 582 q 93 612 114 597 q 60 649 72 626 q 47 701 47 671 q 75 782 47 753 q 144 825 103 811 q 233 842 186 839 q 319 844 281 844 l 336 844 l 336 858 q 312 906 336 886 q 242 925 288 925 q 175 914 207 925 q 118 879 143 903 l 69 942 q 149 985 103 971 q 240 1000 194 1000 q 338 988 300 1000 q 394 958 375 976 q 421 914 414 939 q 428 863 428 889 l 428 590 l 336 590 m 333 778 q 270 776 304 778 q 207 769 236 775 q 158 748 178 763 q 139 707 139 733 q 165 667 139 678 q 222 657 190 657 q 308 683 281 657 q 336 751 336 710 l 336 778 l 333 778 z "},"«":{"ha":694,"x_min":65,"x_max":629,"o":"m 65 338 l 267 638 l 353 581 l 190 338 l 354 94 l 268 38 l 65 338 m 340 338 l 542 638 l 628 581 l 465 338 l 629 94 l 543 38 l 340 338 z "},"¬":{"ha":925,"x_min":92,"x_max":833,"o":"m 833 196 l 725 196 l 725 475 l 92 475 l 92 583 l 833 583 l 833 196 z "},"­":{"ha":439,"x_min":49,"x_max":390,"o":"m 390 278 l 49 278 l 49 394 l 390 394 l 390 278 z "},"®":{"ha":1111,"x_min":39,"x_max":1072,"o":"m 357 790 l 585 790 q 742 744 692 790 q 793 613 793 699 q 753 496 793 535 q 651 450 713 457 l 806 200 l 692 200 l 544 442 l 465 442 l 465 200 l 357 200 l 357 790 m 465 533 l 544 533 q 594 535 569 533 q 640 546 619 538 q 672 571 660 554 q 685 617 685 588 q 672 663 685 646 q 640 688 660 679 q 594 697 619 696 q 544 699 569 699 l 465 699 l 465 533 m 39 492 q 80 692 39 599 q 191 856 121 786 q 355 967 261 926 q 556 1008 449 1008 q 756 967 663 1008 q 920 856 850 926 q 1031 692 990 786 q 1072 492 1072 599 q 1031 291 1072 385 q 920 127 990 197 q 756 16 850 57 q 556 -25 663 -25 q 355 16 449 -25 q 191 127 261 57 q 80 291 121 197 q 39 492 39 385 m 131 492 q 164 326 131 404 q 255 191 197 249 q 390 100 313 133 q 556 67 468 67 q 721 100 643 67 q 856 191 799 133 q 947 326 914 249 q 981 492 981 404 q 947 657 981 579 q 856 792 914 735 q 721 883 799 850 q 556 917 643 917 q 390 883 468 917 q 255 792 313 850 q 164 657 197 735 q 131 492 131 579 z "},"¯":{"ha":333,"x_min":-33,"x_max":367,"o":"m 367 833 l -33 833 l -33 925 l 367 925 l 367 833 z "},"°":{"ha":556,"x_min":71,"x_max":485,"o":"m 71 793 q 87 874 71 836 q 131 939 103 911 q 197 983 160 967 q 278 1000 235 1000 q 358 983 321 1000 q 424 939 396 967 q 468 874 451 911 q 485 793 485 836 q 468 713 485 750 q 424 647 451 675 q 358 602 396 618 q 278 586 321 586 q 197 602 235 586 q 131 647 160 618 q 87 713 103 675 q 71 793 71 750 m 163 793 q 196 711 163 744 q 278 678 229 678 q 360 711 326 678 q 393 793 393 744 q 360 875 393 842 q 278 908 326 908 q 196 875 229 908 q 163 793 163 842 z "},"±":{"ha":925,"x_min":92,"x_max":833,"o":"m 92 546 l 408 546 l 408 772 l 517 772 l 517 546 l 833 546 l 833 438 l 517 438 l 517 229 l 408 229 l 408 438 l 92 438 l 92 546 m 92 179 l 833 179 l 833 71 l 92 71 l 92 179 z "},"²":{"ha":501,"x_min":36,"x_max":465,"o":"m 36 507 l 285 729 q 326 774 306 749 q 347 831 347 799 q 321 888 347 867 q 257 908 294 908 q 191 886 217 908 q 163 826 165 864 l 46 835 q 112 958 53 915 q 257 1000 171 1000 q 338 990 300 1000 q 403 958 375 979 q 448 906 432 938 q 464 833 464 875 q 436 738 464 778 q 365 661 408 697 l 169 493 l 465 493 l 465 401 l 36 401 l 36 507 z "},"³":{"ha":501,"x_min":33,"x_max":468,"o":"m 194 754 l 219 754 q 265 756 243 754 q 306 767 288 758 q 334 791 324 775 q 344 833 344 807 q 319 888 344 867 q 254 908 294 908 q 195 892 221 908 q 158 846 169 876 l 43 874 q 121 970 64 940 q 249 1000 178 1000 q 327 990 290 1000 q 392 961 364 981 q 436 913 419 942 q 453 844 453 883 q 424 759 453 796 q 344 711 394 722 l 344 708 q 437 660 406 701 q 468 565 468 619 q 451 492 468 524 q 403 438 433 460 q 335 404 374 415 q 253 393 296 393 q 114 425 174 393 q 33 531 54 457 l 149 558 q 184 504 160 524 q 253 485 208 485 q 328 509 296 485 q 360 574 360 533 q 347 620 360 603 q 314 647 335 638 q 268 660 293 657 q 218 663 243 663 l 194 663 l 194 754 z "},"´":{"ha":333,"x_min":75,"x_max":397,"o":"m 219 983 l 397 983 l 190 783 l 75 783 l 219 983 z "},"µ":{"ha":772,"x_min":94,"x_max":678,"o":"m 94 658 l 219 658 l 219 269 q 232 191 219 224 q 265 138 244 158 q 313 109 286 118 q 369 100 340 100 q 442 113 408 100 q 500 152 475 125 q 539 221 525 179 q 553 319 553 263 l 553 658 l 678 658 l 678 0 l 553 0 l 553 101 l 550 101 q 468 16 526 49 q 333 -17 410 -17 q 219 8 269 -17 l 219 -317 l 94 -317 l 94 658 z "},"¶":{"ha":833,"x_min":71,"x_max":733,"o":"m 361 442 q 244 462 297 442 q 152 516 190 482 q 92 597 114 550 q 71 699 71 644 q 156 909 71 835 q 388 983 240 983 l 733 983 l 733 -175 l 625 -175 l 625 892 l 469 892 l 469 -175 l 361 -175 l 361 442 z "},"·":{"ha":386,"x_min":101,"x_max":285,"o":"m 101 421 q 128 485 101 458 q 193 513 156 513 q 258 485 231 513 q 285 421 285 458 q 258 356 285 383 q 193 329 231 329 q 128 356 156 329 q 101 421 101 383 z "},"¸":{"ha":333,"x_min":7,"x_max":326,"o":"m 33 -229 q 142 -250 85 -250 q 169 -247 154 -250 q 197 -238 183 -244 q 218 -221 210 -232 q 226 -192 226 -210 q 213 -153 226 -165 q 181 -137 200 -140 q 138 -137 161 -133 q 96 -146 115 -140 l 67 -121 l 151 0 l 219 0 l 158 -85 l 199 -85 q 245 -90 222 -85 q 286 -108 268 -96 q 315 -140 304 -121 q 326 -185 326 -158 q 310 -247 326 -222 q 269 -287 294 -272 q 213 -310 244 -303 q 153 -317 182 -317 q 78 -309 115 -317 q 7 -285 42 -301 l 33 -229 z "},"¹":{"ha":501,"x_min":38,"x_max":314,"o":"m 214 900 l 96 800 l 38 864 l 215 1000 l 314 1000 l 314 401 l 214 401 l 214 900 z "},"º":{"ha":536,"x_min":40,"x_max":496,"o":"m 268 1000 q 434 943 372 1000 q 496 790 496 886 q 434 638 496 694 q 268 582 372 582 q 102 638 164 582 q 40 790 40 694 q 102 943 40 886 q 268 1000 164 1000 m 268 917 q 173 883 206 917 q 140 790 140 849 q 173 699 140 732 q 268 665 206 665 q 363 699 331 665 q 396 790 396 732 q 363 883 396 849 q 268 917 331 917 z "},"»":{"ha":694,"x_min":65,"x_max":629,"o":"m 629 338 l 428 38 l 342 94 l 504 338 l 340 581 l 426 638 l 629 338 m 354 338 l 153 38 l 67 94 l 229 338 l 65 581 l 151 638 l 354 338 z "},"¼":{"ha":1158,"x_min":46,"x_max":1113,"o":"m 222 900 l 104 800 l 46 864 l 224 1000 l 322 1000 l 322 401 l 222 401 l 222 900 m 935 131 l 663 131 l 663 211 l 917 599 l 1026 599 l 1026 222 l 1113 222 l 1113 131 l 1026 131 l 1026 0 l 935 0 l 935 131 m 926 482 l 924 482 l 763 222 l 926 222 l 926 482 m 821 1028 l 904 983 l 294 -44 l 211 0 l 821 1028 z "},"½":{"ha":1158,"x_min":43,"x_max":1115,"o":"m 219 900 l 101 800 l 43 864 l 221 1000 l 319 1000 l 319 401 l 219 401 l 219 900 m 686 106 l 935 328 q 976 372 956 347 q 997 429 997 397 q 971 486 997 465 q 907 507 944 507 q 841 485 867 507 q 813 425 815 463 l 696 433 q 762 556 703 514 q 907 599 821 599 q 988 588 950 599 q 1053 557 1025 578 q 1098 505 1082 536 q 1114 432 1114 474 q 1086 336 1114 376 q 1015 260 1058 296 l 819 92 l 1115 92 l 1115 0 l 686 0 l 686 106 m 804 1028 l 888 983 l 278 -44 l 194 0 l 804 1028 z "},"¾":{"ha":1158,"x_min":32,"x_max":1140,"o":"m 193 754 l 218 754 q 264 756 242 754 q 304 767 286 758 q 333 791 322 775 q 343 833 343 807 q 318 888 343 867 q 253 908 293 908 q 194 892 219 908 q 157 846 168 876 l 42 874 q 119 970 63 940 q 247 1000 176 1000 q 326 990 289 1000 q 390 961 363 981 q 435 913 418 942 q 451 844 451 883 q 422 759 451 796 q 343 711 393 722 l 343 708 q 435 660 404 701 q 467 565 467 619 q 449 492 467 524 q 402 438 432 460 q 333 404 372 415 q 251 393 294 393 q 113 425 172 393 q 32 531 53 457 l 147 558 q 183 504 158 524 q 251 485 207 485 q 326 509 294 485 q 358 574 358 533 q 346 620 358 603 q 313 647 333 638 q 267 660 292 657 q 217 663 242 663 l 193 663 l 193 754 m 963 131 l 690 131 l 690 211 l 944 599 l 1054 599 l 1054 222 l 1140 222 l 1140 131 l 1054 131 l 1054 0 l 963 0 l 963 131 m 963 482 l 960 482 l 799 222 l 963 222 l 963 482 m 876 1028 l 960 983 l 350 -44 l 267 0 l 876 1028 z "},"¿":{"ha":694,"x_min":44,"x_max":628,"o":"m 403 400 l 403 315 q 397 253 403 278 q 381 208 392 228 q 350 169 369 188 q 304 124 331 150 q 260 81 282 103 q 219 37 238 60 q 190 -12 201 14 q 178 -69 178 -39 q 190 -128 178 -101 q 221 -175 201 -156 q 267 -206 240 -194 q 325 -217 294 -217 q 435 -174 393 -217 q 486 -61 478 -131 l 628 -75 q 527 -265 610 -196 q 322 -333 444 -333 q 213 -316 264 -333 q 125 -266 163 -299 q 66 -185 88 -233 q 44 -76 44 -137 q 60 16 44 -24 q 103 90 75 56 l 186 176 l 200 189 q 235 224 222 210 q 256 255 249 239 q 267 290 264 271 q 269 339 269 310 l 269 400 l 403 400 m 246 592 q 273 656 246 629 q 338 683 300 683 q 402 656 375 683 q 429 592 429 629 q 402 527 429 554 q 338 500 375 500 q 273 527 300 500 q 246 592 246 554 z "},"À":{"ha":978,"x_min":1,"x_max":976,"o":"m 435 983 l 556 983 l 976 0 l 821 0 l 722 243 l 254 243 l 157 0 l 1 0 l 435 983 m 674 360 l 490 811 l 488 811 l 301 360 l 674 360 m 581 1039 l 465 1039 l 258 1239 l 436 1239 l 581 1039 z "},"Á":{"ha":978,"x_min":1,"x_max":976,"o":"m 435 983 l 556 983 l 976 0 l 821 0 l 722 243 l 254 243 l 157 0 l 1 0 l 435 983 m 674 360 l 490 811 l 488 811 l 301 360 l 674 360 m 542 1239 l 719 1239 l 513 1039 l 397 1039 l 542 1239 z "},"Â":{"ha":978,"x_min":1,"x_max":976,"o":"m 435 983 l 556 983 l 976 0 l 821 0 l 722 243 l 254 243 l 157 0 l 1 0 l 435 983 m 674 360 l 490 811 l 488 811 l 301 360 l 674 360 m 592 1039 l 489 1172 l 386 1039 l 260 1039 l 415 1239 l 563 1239 l 718 1039 l 592 1039 z "},"Ã":{"ha":978,"x_min":1,"x_max":976,"o":"m 435 983 l 556 983 l 976 0 l 821 0 l 722 243 l 254 243 l 157 0 l 1 0 l 435 983 m 674 360 l 490 811 l 488 811 l 301 360 l 674 360 m 256 1056 q 271 1108 260 1082 q 299 1155 282 1135 q 341 1188 317 1175 q 396 1200 365 1200 q 456 1190 428 1200 q 513 1168 485 1179 q 549 1152 533 1160 q 588 1144 565 1144 q 632 1163 615 1144 q 656 1206 649 1181 l 722 1206 q 708 1153 718 1179 q 683 1107 699 1128 q 645 1074 668 1086 q 592 1061 622 1061 q 534 1070 563 1061 q 479 1090 506 1079 q 435 1108 458 1099 q 388 1117 411 1117 q 345 1098 361 1117 q 322 1056 329 1079 l 256 1056 z "},"Ä":{"ha":978,"x_min":1,"x_max":976,"o":"m 435 983 l 556 983 l 976 0 l 821 0 l 722 243 l 254 243 l 157 0 l 1 0 l 435 983 m 674 360 l 490 811 l 488 811 l 301 360 l 674 360 m 347 1247 q 406 1225 379 1247 q 433 1168 433 1203 q 409 1106 433 1131 q 347 1081 385 1081 q 285 1106 310 1081 q 261 1168 261 1131 q 288 1225 261 1203 q 347 1247 315 1247 m 631 1247 q 690 1225 663 1247 q 717 1168 717 1203 q 692 1106 717 1131 q 631 1081 668 1081 q 569 1106 593 1081 q 544 1168 544 1131 q 572 1225 544 1203 q 631 1247 599 1247 z "},"Å":{"ha":978,"x_min":1,"x_max":976,"o":"m 435 983 l 556 983 l 976 0 l 821 0 l 722 243 l 254 243 l 157 0 l 1 0 l 435 983 m 674 360 l 490 811 l 488 811 l 301 360 l 674 360 m 347 1146 q 359 1200 347 1175 q 390 1244 371 1225 q 435 1273 410 1263 q 489 1283 461 1283 q 544 1273 518 1283 q 589 1244 569 1263 q 619 1201 608 1225 q 631 1147 631 1176 q 619 1093 631 1118 q 589 1049 608 1068 q 544 1020 569 1031 q 489 1010 518 1010 q 435 1020 461 1010 q 390 1049 410 1031 q 359 1092 371 1068 q 347 1146 347 1117 m 572 1146 q 547 1203 572 1181 q 489 1225 522 1225 q 431 1203 456 1225 q 406 1146 406 1181 q 431 1090 406 1113 q 489 1068 457 1068 q 547 1090 521 1068 q 572 1146 572 1113 z "},"Æ":{"ha":1338,"x_min":-11,"x_max":1275,"o":"m 625 983 l 1258 983 l 1258 858 l 849 858 l 849 565 l 1233 565 l 1233 440 l 849 440 l 849 125 l 1275 125 l 1275 0 l 715 0 l 715 239 l 293 239 l 153 0 l -11 0 l 625 983 m 715 364 l 715 858 l 689 858 l 365 364 l 715 364 z "},"Ç":{"ha":978,"x_min":65,"x_max":943,"o":"m 383 -229 q 492 -250 435 -250 q 519 -247 504 -250 q 547 -238 533 -244 q 568 -221 560 -232 q 576 -192 576 -210 q 563 -153 576 -165 q 531 -137 550 -140 q 488 -137 511 -133 q 446 -146 465 -140 l 417 -121 l 488 -18 q 360 19 419 -8 q 201 136 267 64 q 100 299 135 208 q 65 483 65 390 q 103 694 65 597 q 208 860 140 790 q 369 969 275 931 q 578 1008 464 1008 q 769 971 675 1008 q 922 856 863 933 l 811 771 q 706 854 769 825 q 574 883 642 883 q 423 852 490 883 q 308 767 356 821 q 233 640 260 713 q 207 483 207 567 q 232 336 207 406 q 304 214 257 267 q 419 131 351 161 q 574 100 488 100 q 722 135 658 100 q 831 232 786 169 l 943 147 q 904 103 932 132 q 831 47 876 75 q 720 -3 785 18 q 571 -25 656 -25 l 551 -25 l 508 -85 l 549 -85 q 595 -90 572 -85 q 636 -108 618 -96 q 665 -140 654 -121 q 676 -185 676 -158 q 660 -247 676 -222 q 619 -287 644 -272 q 563 -310 594 -303 q 503 -317 532 -317 q 428 -309 465 -317 q 357 -285 392 -301 l 383 -229 z "},"È":{"ha":849,"x_min":126,"x_max":786,"o":"m 126 983 l 761 983 l 761 858 l 260 858 l 260 565 l 726 565 l 726 440 l 260 440 l 260 125 l 786 125 l 786 0 l 126 0 l 126 983 m 517 1039 l 401 1039 l 194 1239 l 372 1239 l 517 1039 z "},"É":{"ha":849,"x_min":126,"x_max":786,"o":"m 126 983 l 761 983 l 761 858 l 260 858 l 260 565 l 726 565 l 726 440 l 260 440 l 260 125 l 786 125 l 786 0 l 126 0 l 126 983 m 478 1239 l 656 1239 l 449 1039 l 333 1039 l 478 1239 z "},"Ê":{"ha":849,"x_min":126,"x_max":786,"o":"m 126 983 l 761 983 l 761 858 l 260 858 l 260 565 l 726 565 l 726 440 l 260 440 l 260 125 l 786 125 l 786 0 l 126 0 l 126 983 m 528 1039 l 425 1172 l 322 1039 l 196 1039 l 351 1239 l 499 1239 l 654 1039 l 528 1039 z "},"Ë":{"ha":849,"x_min":126,"x_max":786,"o":"m 126 983 l 761 983 l 761 858 l 260 858 l 260 565 l 726 565 l 726 440 l 260 440 l 260 125 l 786 125 l 786 0 l 126 0 l 126 983 m 283 1247 q 342 1225 315 1247 q 369 1168 369 1203 q 345 1106 369 1131 q 283 1081 321 1081 q 222 1106 246 1081 q 197 1168 197 1131 q 224 1225 197 1203 q 283 1247 251 1247 m 567 1247 q 626 1225 599 1247 q 653 1168 653 1203 q 628 1106 653 1131 q 567 1081 604 1081 q 505 1106 529 1081 q 481 1168 481 1131 q 508 1225 481 1203 q 567 1247 535 1247 z "},"Ì":{"ha":386,"x_min":-37,"x_max":285,"o":"m 126 983 l 260 983 l 260 0 l 126 0 l 126 983 m 285 1039 l 169 1039 l -37 1239 l 140 1239 l 285 1039 z "},"Í":{"ha":386,"x_min":101,"x_max":424,"o":"m 126 983 l 260 983 l 260 0 l 126 0 l 126 983 m 246 1239 l 424 1239 l 217 1039 l 101 1039 l 246 1239 z "},"Î":{"ha":386,"x_min":-36,"x_max":422,"o":"m 126 983 l 260 983 l 260 0 l 126 0 l 126 983 m 296 1039 l 193 1172 l 90 1039 l -36 1039 l 119 1239 l 267 1239 l 422 1039 l 296 1039 z "},"Ï":{"ha":386,"x_min":-35,"x_max":421,"o":"m 126 983 l 260 983 l 260 0 l 126 0 l 126 983 m 51 1247 q 110 1225 83 1247 q 138 1168 138 1203 q 113 1106 138 1131 q 51 1081 89 1081 q -10 1106 14 1081 q -35 1168 -35 1131 q -8 1225 -35 1203 q 51 1247 19 1247 m 335 1247 q 394 1225 367 1247 q 421 1168 421 1203 q 397 1106 421 1131 q 335 1081 372 1081 q 273 1106 297 1081 q 249 1168 249 1131 q 276 1225 249 1203 q 335 1247 303 1247 z "},"Ð":{"ha":1029,"x_min":4,"x_max":964,"o":"m 104 467 l 4 467 l 4 558 l 104 558 l 104 983 l 447 983 q 630 960 551 983 q 766 897 708 936 q 862 806 824 857 q 922 700 900 754 q 954 592 944 646 q 964 492 964 538 q 929 309 964 397 q 826 152 894 221 q 658 42 758 83 q 425 0 557 0 l 104 0 l 104 467 m 238 125 l 406 125 q 566 148 490 125 q 699 217 642 171 q 789 331 756 263 q 822 492 822 400 q 807 602 822 539 q 749 722 792 665 q 632 819 707 779 q 438 858 557 858 l 238 858 l 238 558 l 563 558 l 563 467 l 238 467 l 238 125 z "},"Ñ":{"ha":1106,"x_min":126,"x_max":979,"o":"m 126 983 l 301 983 l 843 175 l 846 175 l 846 983 l 979 983 l 979 0 l 810 0 l 263 808 l 260 808 l 260 0 l 126 0 l 126 983 m 319 1056 q 335 1108 324 1082 q 363 1155 346 1135 q 405 1188 381 1175 q 460 1200 429 1200 q 520 1190 492 1200 q 576 1168 549 1179 q 613 1152 597 1160 q 651 1144 629 1144 q 696 1163 679 1144 q 719 1206 713 1181 l 786 1206 q 772 1153 782 1179 q 747 1107 763 1128 q 709 1074 732 1086 q 656 1061 686 1061 q 598 1070 626 1061 q 543 1090 569 1079 q 499 1108 522 1099 q 451 1117 475 1117 q 409 1098 425 1117 q 386 1056 393 1079 l 319 1056 z "},"Ò":{"ha":1156,"x_min":65,"x_max":1090,"o":"m 578 -25 q 371 15 465 -25 q 209 124 276 54 q 103 288 142 193 q 65 492 65 382 q 103 696 65 601 q 209 860 142 790 q 371 969 276 929 q 578 1008 465 1008 q 785 969 690 1008 q 947 860 879 929 q 1052 696 1014 790 q 1090 492 1090 601 q 1052 288 1090 382 q 947 124 1014 193 q 785 15 879 54 q 578 -25 690 -25 m 578 100 q 731 131 663 100 q 847 215 799 163 q 922 340 896 268 q 949 492 949 411 q 922 644 949 572 q 847 768 896 715 q 731 852 799 821 q 578 883 663 883 q 425 852 493 883 q 308 768 357 821 q 233 644 260 715 q 207 492 207 572 q 233 340 207 411 q 308 215 260 268 q 425 131 357 163 q 578 100 493 100 m 669 1039 l 554 1039 l 347 1239 l 525 1239 l 669 1039 z "},"Ó":{"ha":1156,"x_min":65,"x_max":1090,"o":"m 578 -25 q 371 15 465 -25 q 209 124 276 54 q 103 288 142 193 q 65 492 65 382 q 103 696 65 601 q 209 860 142 790 q 371 969 276 929 q 578 1008 465 1008 q 785 969 690 1008 q 947 860 879 929 q 1052 696 1014 790 q 1090 492 1090 601 q 1052 288 1090 382 q 947 124 1014 193 q 785 15 879 54 q 578 -25 690 -25 m 578 100 q 731 131 663 100 q 847 215 799 163 q 922 340 896 268 q 949 492 949 411 q 922 644 949 572 q 847 768 896 715 q 731 852 799 821 q 578 883 663 883 q 425 852 493 883 q 308 768 357 821 q 233 644 260 715 q 207 492 207 572 q 233 340 207 411 q 308 215 260 268 q 425 131 357 163 q 578 100 493 100 m 631 1239 l 808 1239 l 601 1039 l 486 1039 l 631 1239 z "},"Ô":{"ha":1156,"x_min":65,"x_max":1090,"o":"m 578 -25 q 371 15 465 -25 q 209 124 276 54 q 103 288 142 193 q 65 492 65 382 q 103 696 65 601 q 209 860 142 790 q 371 969 276 929 q 578 1008 465 1008 q 785 969 690 1008 q 947 860 879 929 q 1052 696 1014 790 q 1090 492 1090 601 q 1052 288 1090 382 q 947 124 1014 193 q 785 15 879 54 q 578 -25 690 -25 m 578 100 q 731 131 663 100 q 847 215 799 163 q 922 340 896 268 q 949 492 949 411 q 922 644 949 572 q 847 768 896 715 q 731 852 799 821 q 578 883 663 883 q 425 852 493 883 q 308 768 357 821 q 233 644 260 715 q 207 492 207 572 q 233 340 207 411 q 308 215 260 268 q 425 131 357 163 q 578 100 493 100 m 681 1039 l 578 1172 l 475 1039 l 349 1039 l 504 1239 l 651 1239 l 807 1039 l 681 1039 z "},"Õ":{"ha":1156,"x_min":65,"x_max":1090,"o":"m 578 -25 q 371 15 465 -25 q 209 124 276 54 q 103 288 142 193 q 65 492 65 382 q 103 696 65 601 q 209 860 142 790 q 371 969 276 929 q 578 1008 465 1008 q 785 969 690 1008 q 947 860 879 929 q 1052 696 1014 790 q 1090 492 1090 601 q 1052 288 1090 382 q 947 124 1014 193 q 785 15 879 54 q 578 -25 690 -25 m 578 100 q 731 131 663 100 q 847 215 799 163 q 922 340 896 268 q 949 492 949 411 q 922 644 949 572 q 847 768 896 715 q 731 852 799 821 q 578 883 663 883 q 425 852 493 883 q 308 768 357 821 q 233 644 260 715 q 207 492 207 572 q 233 340 207 411 q 308 215 260 268 q 425 131 357 163 q 578 100 493 100 m 344 1056 q 360 1108 349 1082 q 388 1155 371 1135 q 430 1188 406 1175 q 485 1200 454 1200 q 545 1190 517 1200 q 601 1168 574 1179 q 638 1152 622 1160 q 676 1144 654 1144 q 721 1163 704 1144 q 744 1206 738 1181 l 811 1206 q 797 1153 807 1179 q 772 1107 788 1128 q 734 1074 757 1086 q 681 1061 711 1061 q 623 1070 651 1061 q 568 1090 594 1079 q 524 1108 547 1099 q 476 1117 500 1117 q 434 1098 450 1117 q 411 1056 418 1079 l 344 1056 z "},"Ö":{"ha":1156,"x_min":65,"x_max":1090,"o":"m 578 -25 q 371 15 465 -25 q 209 124 276 54 q 103 288 142 193 q 65 492 65 382 q 103 696 65 601 q 209 860 142 790 q 371 969 276 929 q 578 1008 465 1008 q 785 969 690 1008 q 947 860 879 929 q 1052 696 1014 790 q 1090 492 1090 601 q 1052 288 1090 382 q 947 124 1014 193 q 785 15 879 54 q 578 -25 690 -25 m 578 100 q 731 131 663 100 q 847 215 799 163 q 922 340 896 268 q 949 492 949 411 q 922 644 949 572 q 847 768 896 715 q 731 852 799 821 q 578 883 663 883 q 425 852 493 883 q 308 768 357 821 q 233 644 260 715 q 207 492 207 572 q 233 340 207 411 q 308 215 260 268 q 425 131 357 163 q 578 100 493 100 m 436 1247 q 495 1225 468 1247 q 522 1168 522 1203 q 498 1106 522 1131 q 436 1081 474 1081 q 374 1106 399 1081 q 350 1168 350 1131 q 377 1225 350 1203 q 436 1247 404 1247 m 719 1247 q 778 1225 751 1247 q 806 1168 806 1203 q 781 1106 806 1131 q 719 1081 757 1081 q 658 1106 682 1081 q 633 1168 633 1131 q 660 1225 633 1203 q 719 1247 688 1247 z "},"×":{"ha":925,"x_min":92,"x_max":833,"o":"m 386 421 l 92 715 l 168 792 l 463 497 l 758 792 l 833 715 l 539 421 l 833 126 l 756 50 l 463 344 l 169 50 l 94 128 l 386 421 z "},"Ø":{"ha":1156,"x_min":65,"x_max":1090,"o":"m 342 182 q 448 122 389 143 q 578 100 507 100 q 731 131 663 100 q 847 215 799 163 q 922 340 896 268 q 949 492 949 411 q 926 632 949 567 q 863 750 904 697 l 342 182 m 807 806 q 703 863 761 842 q 578 883 646 883 q 425 852 493 883 q 308 768 357 821 q 233 644 260 715 q 207 492 207 572 q 228 356 207 419 q 288 240 249 292 l 807 806 m 76 11 l 194 140 q 99 299 132 210 q 65 492 65 388 q 103 696 65 601 q 209 860 142 790 q 371 969 276 929 q 578 1008 465 1008 q 751 981 671 1008 q 897 903 832 953 l 1013 1028 l 1071 975 l 956 850 q 1055 690 1019 782 q 1090 492 1090 599 q 1052 288 1090 382 q 947 124 1014 193 q 785 15 879 54 q 578 -25 690 -25 q 400 3 482 -25 q 253 85 318 32 l 136 -42 l 76 11 z "},"Ù":{"ha":978,"x_min":108,"x_max":869,"o":"m 242 983 l 242 381 q 254 285 242 335 q 296 194 267 236 q 372 126 325 153 q 489 100 419 100 q 606 126 558 100 q 682 194 653 153 q 724 285 711 236 q 736 381 736 335 l 736 983 l 869 983 l 869 360 q 840 203 869 274 q 760 82 811 133 q 639 3 708 31 q 489 -25 569 -25 q 339 3 408 -25 q 218 82 269 31 q 138 203 167 133 q 108 360 108 274 l 108 983 l 242 983 m 581 1039 l 465 1039 l 258 1239 l 436 1239 l 581 1039 z "},"Ú":{"ha":978,"x_min":108,"x_max":869,"o":"m 242 983 l 242 381 q 254 285 242 335 q 296 194 267 236 q 372 126 325 153 q 489 100 419 100 q 606 126 558 100 q 682 194 653 153 q 724 285 711 236 q 736 381 736 335 l 736 983 l 869 983 l 869 360 q 840 203 869 274 q 760 82 811 133 q 639 3 708 31 q 489 -25 569 -25 q 339 3 408 -25 q 218 82 269 31 q 138 203 167 133 q 108 360 108 274 l 108 983 l 242 983 m 542 1239 l 719 1239 l 513 1039 l 397 1039 l 542 1239 z "},"Û":{"ha":978,"x_min":108,"x_max":869,"o":"m 242 983 l 242 381 q 254 285 242 335 q 296 194 267 236 q 372 126 325 153 q 489 100 419 100 q 606 126 558 100 q 682 194 653 153 q 724 285 711 236 q 736 381 736 335 l 736 983 l 869 983 l 869 360 q 840 203 869 274 q 760 82 811 133 q 639 3 708 31 q 489 -25 569 -25 q 339 3 408 -25 q 218 82 269 31 q 138 203 167 133 q 108 360 108 274 l 108 983 l 242 983 m 592 1039 l 489 1172 l 386 1039 l 260 1039 l 415 1239 l 563 1239 l 718 1039 l 592 1039 z "},"Ü":{"ha":978,"x_min":108,"x_max":869,"o":"m 242 983 l 242 381 q 254 285 242 335 q 296 194 267 236 q 372 126 325 153 q 489 100 419 100 q 606 126 558 100 q 682 194 653 153 q 724 285 711 236 q 736 381 736 335 l 736 983 l 869 983 l 869 360 q 840 203 869 274 q 760 82 811 133 q 639 3 708 31 q 489 -25 569 -25 q 339 3 408 -25 q 218 82 269 31 q 138 203 167 133 q 108 360 108 274 l 108 983 l 242 983 m 347 1247 q 406 1225 379 1247 q 433 1168 433 1203 q 409 1106 433 1131 q 347 1081 385 1081 q 285 1106 310 1081 q 261 1168 261 1131 q 288 1225 261 1203 q 347 1247 315 1247 m 631 1247 q 690 1225 663 1247 q 717 1168 717 1203 q 692 1106 717 1131 q 631 1081 668 1081 q 569 1106 593 1081 q 544 1168 544 1131 q 572 1225 544 1203 q 631 1247 599 1247 z "},"Ý":{"ha":850,"x_min":-14,"x_max":864,"o":"m 358 419 l -14 983 l 157 983 l 425 551 l 701 983 l 864 983 l 492 419 l 492 0 l 358 0 l 358 419 m 478 1239 l 656 1239 l 449 1039 l 333 1039 l 478 1239 z "},"Þ":{"ha":824,"x_min":126,"x_max":788,"o":"m 126 983 l 260 983 l 260 782 l 472 782 q 628 756 567 782 q 724 691 689 731 q 774 602 760 651 q 788 507 788 553 q 774 412 788 461 q 724 323 760 363 q 628 258 689 283 q 472 232 567 232 l 260 232 l 260 0 l 126 0 l 126 983 m 260 349 l 435 349 q 512 355 474 349 q 580 378 550 361 q 628 426 610 394 q 646 507 646 457 q 628 588 646 557 q 580 636 610 619 q 512 659 550 653 q 435 665 474 665 l 260 665 l 260 349 z "},"ß":{"ha":849,"x_min":94,"x_max":771,"o":"m 94 707 q 107 846 94 781 q 153 960 119 911 q 249 1038 188 1010 q 407 1067 310 1067 q 516 1051 465 1067 q 606 1003 567 1035 q 667 924 644 971 q 689 815 689 876 q 647 675 689 729 q 535 600 606 621 l 535 597 q 618 571 576 590 q 694 516 660 551 q 749 428 728 481 q 771 306 771 376 q 746 171 771 231 q 676 69 721 111 q 569 6 631 28 q 435 -17 507 -17 q 336 -4 383 -17 l 336 108 q 410 100 371 100 q 575 156 513 100 q 638 317 638 213 q 619 413 638 372 q 567 479 600 453 q 491 519 535 506 q 396 532 447 532 l 376 532 l 376 649 l 399 649 q 513 689 469 649 q 556 800 556 729 q 542 871 556 842 q 506 917 528 900 q 456 942 483 935 q 400 950 428 950 q 313 933 347 950 q 257 885 278 915 q 228 813 236 854 q 219 722 219 771 l 219 0 l 94 0 l 94 707 z "},"à":{"ha":721,"x_min":63,"x_max":639,"o":"m 97 578 q 219 651 150 626 q 358 675 289 675 q 483 657 431 675 q 568 608 535 639 q 617 538 601 578 q 633 456 633 499 l 633 119 q 635 56 633 85 q 639 0 636 26 l 528 0 q 524 100 524 50 l 521 100 q 422 10 479 36 q 290 -17 365 -17 q 203 -4 244 -17 q 130 33 161 8 q 81 95 99 58 q 63 181 63 132 q 91 288 63 244 q 169 358 119 331 q 284 397 218 385 q 425 408 350 408 l 517 408 l 517 436 q 507 486 517 461 q 478 531 497 511 q 429 563 458 551 q 360 575 400 575 q 297 568 324 575 q 247 551 269 561 q 207 526 225 540 q 172 500 189 513 l 97 578 m 450 317 q 359 312 406 317 q 274 293 313 307 q 212 254 236 279 q 188 190 188 229 q 226 108 188 133 q 329 83 264 83 q 417 101 381 83 q 475 146 453 118 q 507 208 497 174 q 517 275 517 242 l 517 317 l 450 317 m 453 783 l 338 783 l 131 983 l 308 983 l 453 783 z "},"á":{"ha":721,"x_min":63,"x_max":639,"o":"m 97 578 q 219 651 150 626 q 358 675 289 675 q 483 657 431 675 q 568 608 535 639 q 617 538 601 578 q 633 456 633 499 l 633 119 q 635 56 633 85 q 639 0 636 26 l 528 0 q 524 100 524 50 l 521 100 q 422 10 479 36 q 290 -17 365 -17 q 203 -4 244 -17 q 130 33 161 8 q 81 95 99 58 q 63 181 63 132 q 91 288 63 244 q 169 358 119 331 q 284 397 218 385 q 425 408 350 408 l 517 408 l 517 436 q 507 486 517 461 q 478 531 497 511 q 429 563 458 551 q 360 575 400 575 q 297 568 324 575 q 247 551 269 561 q 207 526 225 540 q 172 500 189 513 l 97 578 m 450 317 q 359 312 406 317 q 274 293 313 307 q 212 254 236 279 q 188 190 188 229 q 226 108 188 133 q 329 83 264 83 q 417 101 381 83 q 475 146 453 118 q 507 208 497 174 q 517 275 517 242 l 517 317 l 450 317 m 414 983 l 592 983 l 385 783 l 269 783 l 414 983 z "},"â":{"ha":721,"x_min":63,"x_max":639,"o":"m 97 578 q 219 651 150 626 q 358 675 289 675 q 483 657 431 675 q 568 608 535 639 q 617 538 601 578 q 633 456 633 499 l 633 119 q 635 56 633 85 q 639 0 636 26 l 528 0 q 524 100 524 50 l 521 100 q 422 10 479 36 q 290 -17 365 -17 q 203 -4 244 -17 q 130 33 161 8 q 81 95 99 58 q 63 181 63 132 q 91 288 63 244 q 169 358 119 331 q 284 397 218 385 q 425 408 350 408 l 517 408 l 517 436 q 507 486 517 461 q 478 531 497 511 q 429 563 458 551 q 360 575 400 575 q 297 568 324 575 q 247 551 269 561 q 207 526 225 540 q 172 500 189 513 l 97 578 m 450 317 q 359 312 406 317 q 274 293 313 307 q 212 254 236 279 q 188 190 188 229 q 226 108 188 133 q 329 83 264 83 q 417 101 381 83 q 475 146 453 118 q 507 208 497 174 q 517 275 517 242 l 517 317 l 450 317 m 464 783 l 361 917 l 258 783 l 132 783 l 288 983 l 435 983 l 590 783 l 464 783 z "},"ã":{"ha":721,"x_min":63,"x_max":639,"o":"m 97 578 q 219 651 150 626 q 358 675 289 675 q 483 657 431 675 q 568 608 535 639 q 617 538 601 578 q 633 456 633 499 l 633 119 q 635 56 633 85 q 639 0 636 26 l 528 0 q 524 100 524 50 l 521 100 q 422 10 479 36 q 290 -17 365 -17 q 203 -4 244 -17 q 130 33 161 8 q 81 95 99 58 q 63 181 63 132 q 91 288 63 244 q 169 358 119 331 q 284 397 218 385 q 425 408 350 408 l 517 408 l 517 436 q 507 486 517 461 q 478 531 497 511 q 429 563 458 551 q 360 575 400 575 q 297 568 324 575 q 247 551 269 561 q 207 526 225 540 q 172 500 189 513 l 97 578 m 450 317 q 359 312 406 317 q 274 293 313 307 q 212 254 236 279 q 188 190 188 229 q 226 108 188 133 q 329 83 264 83 q 417 101 381 83 q 475 146 453 118 q 507 208 497 174 q 517 275 517 242 l 517 317 l 450 317 m 128 800 q 143 853 132 826 q 172 899 154 879 q 213 932 189 919 q 268 944 238 944 q 328 934 300 944 q 385 913 357 924 q 422 897 406 904 q 460 889 438 889 q 504 907 488 889 q 528 950 521 925 l 594 950 q 581 898 590 924 q 556 851 571 872 q 517 818 540 831 q 464 806 494 806 q 406 815 435 806 q 351 835 378 824 q 307 852 331 843 q 260 861 283 861 q 217 842 233 861 q 194 800 201 824 l 128 800 z "},"ä":{"ha":721,"x_min":63,"x_max":639,"o":"m 97 578 q 219 651 150 626 q 358 675 289 675 q 483 657 431 675 q 568 608 535 639 q 617 538 601 578 q 633 456 633 499 l 633 119 q 635 56 633 85 q 639 0 636 26 l 528 0 q 524 100 524 50 l 521 100 q 422 10 479 36 q 290 -17 365 -17 q 203 -4 244 -17 q 130 33 161 8 q 81 95 99 58 q 63 181 63 132 q 91 288 63 244 q 169 358 119 331 q 284 397 218 385 q 425 408 350 408 l 517 408 l 517 436 q 507 486 517 461 q 478 531 497 511 q 429 563 458 551 q 360 575 400 575 q 297 568 324 575 q 247 551 269 561 q 207 526 225 540 q 172 500 189 513 l 97 578 m 450 317 q 359 312 406 317 q 274 293 313 307 q 212 254 236 279 q 188 190 188 229 q 226 108 188 133 q 329 83 264 83 q 417 101 381 83 q 475 146 453 118 q 507 208 497 174 q 517 275 517 242 l 517 317 l 450 317 m 219 992 q 278 969 251 992 q 306 913 306 947 q 281 850 306 875 q 219 825 257 825 q 158 850 182 825 q 133 913 133 875 q 160 969 133 947 q 219 992 188 992 m 503 992 q 562 969 535 992 q 589 913 589 947 q 565 850 589 875 q 503 825 540 825 q 441 850 465 825 q 417 913 417 875 q 444 969 417 947 q 503 992 471 992 z "},"å":{"ha":721,"x_min":63,"x_max":639,"o":"m 97 578 q 219 651 150 626 q 358 675 289 675 q 483 657 431 675 q 568 608 535 639 q 617 538 601 578 q 633 456 633 499 l 633 119 q 635 56 633 85 q 639 0 636 26 l 528 0 q 524 100 524 50 l 521 100 q 422 10 479 36 q 290 -17 365 -17 q 203 -4 244 -17 q 130 33 161 8 q 81 95 99 58 q 63 181 63 132 q 91 288 63 244 q 169 358 119 331 q 284 397 218 385 q 425 408 350 408 l 517 408 l 517 436 q 507 486 517 461 q 478 531 497 511 q 429 563 458 551 q 360 575 400 575 q 297 568 324 575 q 247 551 269 561 q 207 526 225 540 q 172 500 189 513 l 97 578 m 450 317 q 359 312 406 317 q 274 293 313 307 q 212 254 236 279 q 188 190 188 229 q 226 108 188 133 q 329 83 264 83 q 417 101 381 83 q 475 146 453 118 q 507 208 497 174 q 517 275 517 242 l 517 317 l 450 317 m 219 904 q 231 958 219 933 q 263 1002 243 983 q 308 1031 282 1021 q 361 1042 333 1042 q 416 1031 390 1042 q 461 1002 442 1021 q 492 959 481 983 q 503 906 503 935 q 492 851 503 876 q 461 808 481 826 q 416 778 442 789 q 361 768 390 768 q 308 778 333 768 q 263 808 282 789 q 231 851 243 826 q 219 904 219 875 m 444 904 q 419 961 444 939 q 361 983 394 983 q 303 961 328 983 q 278 904 278 939 q 303 849 278 871 q 361 826 329 826 q 419 849 393 826 q 444 904 444 871 z "},"æ":{"ha":1183,"x_min":54,"x_max":1129,"o":"m 1129 283 l 639 283 q 652 207 639 243 q 691 144 665 171 q 753 100 717 117 q 838 83 790 83 q 940 113 897 83 q 1008 188 983 143 l 1110 111 q 988 10 1051 44 q 835 -25 925 -25 q 689 5 756 -25 q 578 110 622 35 q 466 11 532 47 q 308 -25 400 -25 q 194 -6 242 -25 q 115 42 146 13 q 69 110 83 72 q 54 188 54 149 q 78 284 54 246 q 142 344 103 322 q 230 374 181 365 q 328 383 279 383 l 522 383 l 522 404 q 481 525 522 475 q 357 575 439 575 q 257 556 299 575 q 171 500 215 536 l 93 579 q 215 651 146 626 q 356 675 285 675 q 488 651 424 675 q 592 569 553 628 q 629 606 608 588 q 678 640 650 625 q 741 665 706 656 q 822 675 776 675 q 976 639 917 675 q 1070 551 1036 603 q 1117 441 1104 499 q 1129 342 1129 383 l 1129 283 m 325 283 q 220 260 253 283 q 188 188 188 236 q 228 107 188 139 q 325 75 268 75 q 399 88 364 75 q 462 126 435 101 q 506 185 489 150 q 522 264 522 219 l 522 283 l 325 283 m 996 383 q 985 454 994 421 q 954 513 975 488 q 901 552 933 538 q 821 567 868 567 q 743 552 776 567 q 686 513 710 538 q 651 454 663 488 q 639 383 639 421 l 996 383 z "},"ç":{"ha":669,"x_min":63,"x_max":660,"o":"m 243 -229 q 351 -250 294 -250 q 378 -247 364 -250 q 406 -238 393 -244 q 428 -221 419 -232 q 436 -192 436 -210 q 423 -153 436 -165 q 390 -137 410 -140 q 348 -137 371 -133 q 306 -146 325 -140 l 276 -121 l 351 -12 q 267 8 307 -7 q 158 78 204 33 q 88 187 113 124 q 63 326 63 250 q 88 467 63 403 q 158 576 113 531 q 266 648 203 622 q 407 674 329 674 q 545 648 479 674 q 660 569 611 622 l 565 483 q 492 538 531 519 q 401 557 454 557 q 312 538 350 557 q 248 487 274 519 q 209 412 222 454 q 196 324 196 369 q 211 237 196 278 q 254 165 226 196 q 321 117 282 135 q 408 100 360 100 q 499 119 461 100 q 568 174 536 138 l 657 85 q 543 7 608 31 q 417 -17 483 -15 l 368 -85 l 408 -85 q 455 -90 432 -85 q 496 -108 478 -96 q 525 -140 514 -121 q 536 -185 536 -158 q 520 -247 536 -222 q 479 -287 504 -272 q 423 -310 454 -303 q 363 -317 392 -317 q 288 -309 325 -317 q 217 -285 251 -301 l 243 -229 z "},"è":{"ha":772,"x_min":56,"x_max":717,"o":"m 189 283 q 208 205 189 240 q 257 144 226 169 q 328 106 288 119 q 411 92 368 92 q 513 119 469 92 q 592 190 556 146 l 686 118 q 394 -17 582 -17 q 253 10 317 -17 q 147 83 190 36 q 79 192 103 129 q 56 329 56 256 q 81 466 56 403 q 152 576 107 529 q 260 649 197 622 q 396 675 322 675 q 544 644 483 675 q 643 565 604 614 q 699 453 682 515 q 717 328 717 392 l 717 283 l 189 283 m 583 383 q 570 460 582 425 q 535 520 558 494 q 476 560 511 546 q 393 575 440 575 q 309 558 347 575 q 244 513 271 540 q 203 451 218 485 q 189 383 189 417 l 583 383 m 478 783 l 363 783 l 156 983 l 333 983 l 478 783 z "},"é":{"ha":772,"x_min":56,"x_max":717,"o":"m 189 283 q 208 205 189 240 q 257 144 226 169 q 328 106 288 119 q 411 92 368 92 q 513 119 469 92 q 592 190 556 146 l 686 118 q 394 -17 582 -17 q 253 10 317 -17 q 147 83 190 36 q 79 192 103 129 q 56 329 56 256 q 81 466 56 403 q 152 576 107 529 q 260 649 197 622 q 396 675 322 675 q 544 644 483 675 q 643 565 604 614 q 699 453 682 515 q 717 328 717 392 l 717 283 l 189 283 m 583 383 q 570 460 582 425 q 535 520 558 494 q 476 560 511 546 q 393 575 440 575 q 309 558 347 575 q 244 513 271 540 q 203 451 218 485 q 189 383 189 417 l 583 383 m 439 983 l 617 983 l 410 783 l 294 783 l 439 983 z "},"ê":{"ha":772,"x_min":56,"x_max":717,"o":"m 189 283 q 208 205 189 240 q 257 144 226 169 q 328 106 288 119 q 411 92 368 92 q 513 119 469 92 q 592 190 556 146 l 686 118 q 394 -17 582 -17 q 253 10 317 -17 q 147 83 190 36 q 79 192 103 129 q 56 329 56 256 q 81 466 56 403 q 152 576 107 529 q 260 649 197 622 q 396 675 322 675 q 544 644 483 675 q 643 565 604 614 q 699 453 682 515 q 717 328 717 392 l 717 283 l 189 283 m 583 383 q 570 460 582 425 q 535 520 558 494 q 476 560 511 546 q 393 575 440 575 q 309 558 347 575 q 244 513 271 540 q 203 451 218 485 q 189 383 189 417 l 583 383 m 489 783 l 386 917 l 283 783 l 157 783 l 313 983 l 460 983 l 615 783 l 489 783 z "},"ë":{"ha":772,"x_min":56,"x_max":717,"o":"m 189 283 q 208 205 189 240 q 257 144 226 169 q 328 106 288 119 q 411 92 368 92 q 513 119 469 92 q 592 190 556 146 l 686 118 q 394 -17 582 -17 q 253 10 317 -17 q 147 83 190 36 q 79 192 103 129 q 56 329 56 256 q 81 466 56 403 q 152 576 107 529 q 260 649 197 622 q 396 675 322 675 q 544 644 483 675 q 643 565 604 614 q 699 453 682 515 q 717 328 717 392 l 717 283 l 189 283 m 583 383 q 570 460 582 425 q 535 520 558 494 q 476 560 511 546 q 393 575 440 575 q 309 558 347 575 q 244 513 271 540 q 203 451 218 485 q 189 383 189 417 l 583 383 m 244 992 q 303 969 276 992 q 331 913 331 947 q 306 850 331 875 q 244 825 282 825 q 183 850 207 825 q 158 913 158 875 q 185 969 158 947 q 244 992 213 992 m 528 992 q 587 969 560 992 q 614 913 614 947 q 590 850 614 875 q 528 825 565 825 q 466 850 490 825 q 442 913 442 875 q 469 969 442 947 q 528 992 496 992 z "},"ì":{"ha":333,"x_min":-64,"x_max":258,"o":"m 104 658 l 229 658 l 229 0 l 104 0 l 104 658 m 258 783 l 143 783 l -64 983 l 114 983 l 258 783 z "},"í":{"ha":333,"x_min":75,"x_max":397,"o":"m 104 658 l 229 658 l 229 0 l 104 0 l 104 658 m 219 983 l 397 983 l 190 783 l 75 783 l 219 983 z "},"î":{"ha":333,"x_min":-62,"x_max":396,"o":"m 104 658 l 229 658 l 229 0 l 104 0 l 104 658 m 269 783 l 167 917 l 64 783 l -62 783 l 93 983 l 240 983 l 396 783 l 269 783 z "},"ï":{"ha":333,"x_min":-61,"x_max":394,"o":"m 104 658 l 229 658 l 229 0 l 104 0 l 104 658 m 25 992 q 84 969 57 992 q 111 913 111 947 q 87 850 111 875 q 25 825 63 825 q -37 850 -12 825 q -61 913 -61 875 q -34 969 -61 947 q 25 992 -7 992 m 308 992 q 367 969 340 992 q 394 913 394 947 q 370 850 394 875 q 308 825 346 825 q 247 850 271 825 q 222 913 222 875 q 249 969 222 947 q 308 992 276 992 z "},"ð":{"ha":825,"x_min":63,"x_max":763,"o":"m 660 989 l 504 913 q 605 794 558 856 q 687 667 651 733 q 742 527 722 600 q 763 374 763 454 q 739 214 763 286 q 670 90 715 142 q 560 11 625 39 q 413 -17 496 -17 q 275 10 339 -17 q 164 84 211 38 q 90 194 117 131 q 63 329 63 257 q 90 464 63 401 q 164 574 117 526 q 275 648 211 621 q 413 675 339 675 q 506 660 458 675 q 586 606 553 644 l 589 608 q 499 740 550 678 q 389 858 447 801 l 240 786 l 175 850 l 322 924 l 204 1022 l 314 1086 l 438 978 l 588 1050 l 660 989 m 196 329 q 211 237 196 279 q 254 165 226 194 q 322 117 282 135 q 413 100 363 100 q 503 117 463 100 q 571 165 543 135 q 614 237 599 194 q 629 329 629 279 q 614 422 629 379 q 571 494 599 464 q 503 541 543 524 q 413 558 463 558 q 322 541 363 558 q 254 494 282 524 q 211 422 226 464 q 196 329 196 379 z "},"ñ":{"ha":772,"x_min":94,"x_max":678,"o":"m 94 658 l 219 658 l 219 557 l 222 557 q 304 642 246 610 q 439 675 363 675 q 530 660 486 675 q 606 615 574 646 q 658 537 639 585 q 678 424 678 489 l 678 0 l 553 0 l 553 389 q 540 467 553 435 q 507 520 528 500 q 459 549 486 540 q 403 558 432 558 q 331 546 364 558 q 272 506 297 533 q 233 438 247 479 q 219 339 219 396 l 219 0 l 94 0 l 94 658 m 153 800 q 168 853 157 826 q 197 899 179 879 q 238 932 214 919 q 293 944 263 944 q 353 934 325 944 q 410 913 382 924 q 447 897 431 904 q 485 889 463 889 q 529 907 513 889 q 553 950 546 925 l 619 950 q 606 898 615 924 q 581 851 596 872 q 542 818 565 831 q 489 806 519 806 q 431 815 460 806 q 376 835 403 824 q 332 852 356 843 q 285 861 308 861 q 242 842 258 861 q 219 800 226 824 l 153 800 z "},"ò":{"ha":825,"x_min":63,"x_max":763,"o":"m 196 329 q 211 237 196 279 q 254 165 226 194 q 322 117 282 135 q 413 100 363 100 q 503 117 463 100 q 571 165 543 135 q 614 237 599 194 q 629 329 629 279 q 614 422 629 379 q 571 494 599 464 q 503 541 543 524 q 413 558 463 558 q 322 541 363 558 q 254 494 282 524 q 211 422 226 464 q 196 329 196 379 m 63 329 q 90 464 63 401 q 164 574 117 526 q 275 648 211 621 q 413 675 339 675 q 550 648 486 675 q 661 574 614 621 q 735 464 708 526 q 763 329 763 401 q 735 194 763 257 q 661 84 708 131 q 550 10 614 38 q 413 -17 486 -17 q 275 10 339 -17 q 164 84 211 38 q 90 194 117 131 q 63 329 63 257 m 504 783 l 389 783 l 182 983 l 360 983 l 504 783 z "},"ó":{"ha":825,"x_min":63,"x_max":763,"o":"m 196 329 q 211 237 196 279 q 254 165 226 194 q 322 117 282 135 q 413 100 363 100 q 503 117 463 100 q 571 165 543 135 q 614 237 599 194 q 629 329 629 279 q 614 422 629 379 q 571 494 599 464 q 503 541 543 524 q 413 558 463 558 q 322 541 363 558 q 254 494 282 524 q 211 422 226 464 q 196 329 196 379 m 63 329 q 90 464 63 401 q 164 574 117 526 q 275 648 211 621 q 413 675 339 675 q 550 648 486 675 q 661 574 614 621 q 735 464 708 526 q 763 329 763 401 q 735 194 763 257 q 661 84 708 131 q 550 10 614 38 q 413 -17 486 -17 q 275 10 339 -17 q 164 84 211 38 q 90 194 117 131 q 63 329 63 257 m 467 983 l 644 983 l 438 783 l 322 783 l 467 983 z "},"ô":{"ha":825,"x_min":63,"x_max":763,"o":"m 196 329 q 211 237 196 279 q 254 165 226 194 q 322 117 282 135 q 413 100 363 100 q 503 117 463 100 q 571 165 543 135 q 614 237 599 194 q 629 329 629 279 q 614 422 629 379 q 571 494 599 464 q 503 541 543 524 q 413 558 463 558 q 322 541 363 558 q 254 494 282 524 q 211 422 226 464 q 196 329 196 379 m 63 329 q 90 464 63 401 q 164 574 117 526 q 275 648 211 621 q 413 675 339 675 q 550 648 486 675 q 661 574 614 621 q 735 464 708 526 q 763 329 763 401 q 735 194 763 257 q 661 84 708 131 q 550 10 614 38 q 413 -17 486 -17 q 275 10 339 -17 q 164 84 211 38 q 90 194 117 131 q 63 329 63 257 m 515 783 l 413 917 l 310 783 l 183 783 l 339 983 l 486 983 l 642 783 l 515 783 z "},"õ":{"ha":825,"x_min":63,"x_max":763,"o":"m 196 329 q 211 237 196 279 q 254 165 226 194 q 322 117 282 135 q 413 100 363 100 q 503 117 463 100 q 571 165 543 135 q 614 237 599 194 q 629 329 629 279 q 614 422 629 379 q 571 494 599 464 q 503 541 543 524 q 413 558 463 558 q 322 541 363 558 q 254 494 282 524 q 211 422 226 464 q 196 329 196 379 m 63 329 q 90 464 63 401 q 164 574 117 526 q 275 648 211 621 q 413 675 339 675 q 550 648 486 675 q 661 574 614 621 q 735 464 708 526 q 763 329 763 401 q 735 194 763 257 q 661 84 708 131 q 550 10 614 38 q 413 -17 486 -17 q 275 10 339 -17 q 164 84 211 38 q 90 194 117 131 q 63 329 63 257 m 179 800 q 194 853 183 826 q 223 899 206 879 q 265 932 240 919 q 319 944 289 944 q 380 934 351 944 q 436 913 408 924 q 473 897 457 904 q 511 889 489 889 q 556 907 539 889 q 579 950 572 925 l 646 950 q 632 898 642 924 q 607 851 622 872 q 569 818 592 831 q 515 806 546 806 q 458 815 486 806 q 403 835 429 824 q 358 852 382 843 q 311 861 335 861 q 269 842 285 861 q 246 800 253 824 l 179 800 z "},"ö":{"ha":825,"x_min":63,"x_max":763,"o":"m 196 329 q 211 237 196 279 q 254 165 226 194 q 322 117 282 135 q 413 100 363 100 q 503 117 463 100 q 571 165 543 135 q 614 237 599 194 q 629 329 629 279 q 614 422 629 379 q 571 494 599 464 q 503 541 543 524 q 413 558 463 558 q 322 541 363 558 q 254 494 282 524 q 211 422 226 464 q 196 329 196 379 m 63 329 q 90 464 63 401 q 164 574 117 526 q 275 648 211 621 q 413 675 339 675 q 550 648 486 675 q 661 574 614 621 q 735 464 708 526 q 763 329 763 401 q 735 194 763 257 q 661 84 708 131 q 550 10 614 38 q 413 -17 486 -17 q 275 10 339 -17 q 164 84 211 38 q 90 194 117 131 q 63 329 63 257 m 271 992 q 330 969 303 992 q 357 913 357 947 q 333 850 357 875 q 271 825 308 825 q 209 850 233 825 q 185 913 185 875 q 212 969 185 947 q 271 992 239 992 m 554 992 q 613 969 586 992 q 640 913 640 947 q 616 850 640 875 q 554 825 592 825 q 492 850 517 825 q 468 913 468 875 q 495 969 468 947 q 554 992 522 992 z "},"÷":{"ha":925,"x_min":92,"x_max":833,"o":"m 833 474 l 833 365 l 92 365 l 92 474 l 833 474 m 371 653 q 398 717 371 690 q 463 744 425 744 q 527 717 500 744 q 554 653 554 690 q 527 588 554 615 q 463 561 500 561 q 398 588 425 561 q 371 653 371 615 m 371 186 q 398 251 371 224 q 463 278 425 278 q 527 251 500 278 q 554 186 554 224 q 527 122 554 149 q 463 94 500 94 q 398 122 425 94 q 371 186 371 149 z "},"ø":{"ha":825,"x_min":57,"x_max":792,"o":"m 554 510 q 492 546 526 533 q 413 558 457 558 q 322 541 363 558 q 254 494 282 524 q 211 422 226 464 q 196 329 196 379 q 238 188 196 243 l 554 510 m 57 6 l 150 100 q 86 203 110 144 q 63 329 63 263 q 90 464 63 401 q 164 574 117 526 q 275 648 211 621 q 413 675 339 675 q 536 653 479 675 q 638 594 593 632 l 742 699 l 792 649 l 688 543 q 743 444 724 499 q 763 329 763 390 q 735 194 763 257 q 661 84 708 131 q 550 10 614 38 q 413 -17 486 -17 q 301 1 354 -17 q 204 51 249 19 l 108 -44 l 57 6 m 289 138 q 413 100 339 100 q 503 117 463 100 q 571 165 543 135 q 614 237 599 194 q 629 329 629 279 q 599 453 629 401 l 289 138 z "},"ù":{"ha":772,"x_min":94,"x_max":678,"o":"m 678 0 l 553 0 l 553 101 l 550 101 q 468 16 526 49 q 333 -17 410 -17 q 242 -2 285 -17 q 166 43 199 13 q 114 122 133 74 q 94 235 94 169 l 94 658 l 219 658 l 219 269 q 232 191 219 224 q 265 138 244 158 q 313 109 286 118 q 369 100 340 100 q 442 113 408 100 q 500 152 475 125 q 539 221 525 179 q 553 319 553 263 l 553 658 l 678 658 l 678 0 m 478 783 l 363 783 l 156 983 l 333 983 l 478 783 z "},"ú":{"ha":772,"x_min":94,"x_max":678,"o":"m 678 0 l 553 0 l 553 101 l 550 101 q 468 16 526 49 q 333 -17 410 -17 q 242 -2 285 -17 q 166 43 199 13 q 114 122 133 74 q 94 235 94 169 l 94 658 l 219 658 l 219 269 q 232 191 219 224 q 265 138 244 158 q 313 109 286 118 q 369 100 340 100 q 442 113 408 100 q 500 152 475 125 q 539 221 525 179 q 553 319 553 263 l 553 658 l 678 658 l 678 0 m 439 983 l 617 983 l 410 783 l 294 783 l 439 983 z "},"û":{"ha":772,"x_min":94,"x_max":678,"o":"m 678 0 l 553 0 l 553 101 l 550 101 q 468 16 526 49 q 333 -17 410 -17 q 242 -2 285 -17 q 166 43 199 13 q 114 122 133 74 q 94 235 94 169 l 94 658 l 219 658 l 219 269 q 232 191 219 224 q 265 138 244 158 q 313 109 286 118 q 369 100 340 100 q 442 113 408 100 q 500 152 475 125 q 539 221 525 179 q 553 319 553 263 l 553 658 l 678 658 l 678 0 m 489 783 l 386 917 l 283 783 l 157 783 l 313 983 l 460 983 l 615 783 l 489 783 z "},"ü":{"ha":772,"x_min":94,"x_max":678,"o":"m 678 0 l 553 0 l 553 101 l 550 101 q 468 16 526 49 q 333 -17 410 -17 q 242 -2 285 -17 q 166 43 199 13 q 114 122 133 74 q 94 235 94 169 l 94 658 l 219 658 l 219 269 q 232 191 219 224 q 265 138 244 158 q 313 109 286 118 q 369 100 340 100 q 442 113 408 100 q 500 152 475 125 q 539 221 525 179 q 553 319 553 263 l 553 658 l 678 658 l 678 0 m 244 992 q 303 969 276 992 q 331 913 331 947 q 306 850 331 875 q 244 825 282 825 q 183 850 207 825 q 158 913 158 875 q 185 969 158 947 q 244 992 213 992 m 528 992 q 587 969 560 992 q 614 913 614 947 q 590 850 614 875 q 528 825 565 825 q 466 850 490 825 q 442 913 442 875 q 469 969 442 947 q 528 992 496 992 z "},"ý":{"ha":694,"x_min":15,"x_max":679,"o":"m 15 658 l 160 658 l 356 144 l 358 144 l 544 658 l 679 658 l 367 -142 q 332 -220 350 -185 q 289 -281 314 -256 q 228 -319 264 -306 q 142 -333 193 -333 q 85 -330 114 -333 q 31 -315 57 -326 l 46 -201 q 121 -217 83 -217 q 170 -209 150 -217 q 205 -187 190 -201 q 229 -153 219 -172 q 249 -108 239 -133 l 289 -4 l 15 658 m 400 983 l 578 983 l 371 783 l 256 783 l 400 983 z "},"þ":{"ha":849,"x_min":94,"x_max":786,"o":"m 94 1050 l 219 1050 l 219 564 l 222 564 q 318 645 256 615 q 451 675 381 675 q 590 649 528 675 q 695 576 651 622 q 763 466 739 529 q 786 329 786 403 q 763 193 786 256 q 695 83 739 131 q 590 10 651 36 q 451 -17 528 -17 q 322 13 385 -17 q 222 94 258 42 l 219 94 l 219 -317 l 94 -317 l 94 1050 m 436 100 q 526 117 486 100 q 594 165 567 135 q 638 237 622 194 q 653 329 653 279 q 638 422 653 379 q 594 494 622 464 q 526 541 567 524 q 436 558 486 558 q 346 541 386 558 q 278 494 306 524 q 235 422 250 464 q 219 329 219 379 q 235 237 219 279 q 278 165 250 194 q 346 117 306 135 q 436 100 386 100 z "},"ÿ":{"ha":694,"x_min":15,"x_max":679,"o":"m 15 658 l 160 658 l 356 144 l 358 144 l 544 658 l 679 658 l 367 -142 q 332 -220 350 -185 q 289 -281 314 -256 q 228 -319 264 -306 q 142 -333 193 -333 q 85 -330 114 -333 q 31 -315 57 -326 l 46 -201 q 121 -217 83 -217 q 170 -209 150 -217 q 205 -187 190 -201 q 229 -153 219 -172 q 249 -108 239 -133 l 289 -4 l 15 658 m 206 992 q 265 969 238 992 q 292 913 292 947 q 267 850 292 875 q 206 825 243 825 q 144 850 168 825 q 119 913 119 875 q 147 969 119 947 q 206 992 174 992 m 489 992 q 548 969 521 992 q 575 913 575 947 q 551 850 575 875 q 489 825 526 825 q 427 850 451 825 q 403 913 403 875 q 430 969 403 947 q 489 992 457 992 z "},"Ā":{"ha":978,"x_min":1,"x_max":976,"o":"m 435 983 l 556 983 l 976 0 l 821 0 l 722 243 l 254 243 l 157 0 l 1 0 l 435 983 m 674 360 l 490 811 l 488 811 l 301 360 l 674 360 m 690 1094 l 290 1094 l 290 1186 l 690 1186 l 690 1094 z "},"ā":{"ha":721,"x_min":63,"x_max":639,"o":"m 97 578 q 219 651 150 626 q 358 675 289 675 q 483 657 431 675 q 568 608 535 639 q 617 538 601 578 q 633 456 633 499 l 633 119 q 635 56 633 85 q 639 0 636 26 l 528 0 q 524 100 524 50 l 521 100 q 422 10 479 36 q 290 -17 365 -17 q 203 -4 244 -17 q 130 33 161 8 q 81 95 99 58 q 63 181 63 132 q 91 288 63 244 q 169 358 119 331 q 284 397 218 385 q 425 408 350 408 l 517 408 l 517 436 q 507 486 517 461 q 478 531 497 511 q 429 563 458 551 q 360 575 400 575 q 297 568 324 575 q 247 551 269 561 q 207 526 225 540 q 172 500 189 513 l 97 578 m 450 317 q 359 312 406 317 q 274 293 313 307 q 212 254 236 279 q 188 190 188 229 q 226 108 188 133 q 329 83 264 83 q 417 101 381 83 q 475 146 453 118 q 507 208 497 174 q 517 275 517 242 l 517 317 l 450 317 m 549 833 l 149 833 l 149 925 l 549 925 l 549 833 z "},"Ă":{"ha":978,"x_min":1,"x_max":976,"o":"m 435 983 l 556 983 l 976 0 l 821 0 l 722 243 l 254 243 l 157 0 l 1 0 l 435 983 m 674 360 l 490 811 l 488 811 l 301 360 l 674 360 m 349 1244 q 399 1168 358 1192 q 492 1144 440 1144 q 584 1168 543 1144 q 635 1244 625 1192 l 708 1244 q 642 1101 701 1149 q 490 1053 582 1053 q 339 1101 399 1053 q 272 1244 279 1149 l 349 1244 z "},"ă":{"ha":721,"x_min":63,"x_max":639,"o":"m 97 578 q 219 651 150 626 q 358 675 289 675 q 483 657 431 675 q 568 608 535 639 q 617 538 601 578 q 633 456 633 499 l 633 119 q 635 56 633 85 q 639 0 636 26 l 528 0 q 524 100 524 50 l 521 100 q 422 10 479 36 q 290 -17 365 -17 q 203 -4 244 -17 q 130 33 161 8 q 81 95 99 58 q 63 181 63 132 q 91 288 63 244 q 169 358 119 331 q 284 397 218 385 q 425 408 350 408 l 517 408 l 517 436 q 507 486 517 461 q 478 531 497 511 q 429 563 458 551 q 360 575 400 575 q 297 568 324 575 q 247 551 269 561 q 207 526 225 540 q 172 500 189 513 l 97 578 m 450 317 q 359 312 406 317 q 274 293 313 307 q 212 254 236 279 q 188 190 188 229 q 226 108 188 133 q 329 83 264 83 q 417 101 381 83 q 475 146 453 118 q 507 208 497 174 q 517 275 517 242 l 517 317 l 450 317 m 206 975 q 256 899 215 922 q 349 875 297 875 q 441 899 400 875 q 492 975 482 922 l 565 975 q 499 831 558 879 q 347 783 439 783 q 196 831 256 783 q 129 975 136 879 l 206 975 z "},"Ą":{"ha":978,"x_min":1,"x_max":976,"o":"m 969 -258 q 908 -295 942 -283 q 843 -307 875 -307 q 749 -277 789 -307 q 706 -189 708 -247 q 717 -131 706 -160 q 748 -77 729 -103 q 789 -29 767 -51 q 821 0 806 -12 l 722 243 l 254 243 l 157 0 l 1 0 l 435 983 l 556 983 l 976 0 l 899 0 q 876 -25 889 -11 q 842 -69 858 -46 q 816 -117 826 -93 q 806 -164 806 -142 q 828 -210 808 -197 q 874 -224 849 -224 q 908 -216 892 -224 q 939 -197 925 -208 l 969 -258 m 674 360 l 490 811 l 488 811 l 301 360 l 674 360 z "},"ą":{"ha":721,"x_min":63,"x_max":681,"o":"m 681 -258 q 619 -295 653 -283 q 554 -307 586 -307 q 460 -277 500 -307 q 417 -189 419 -247 q 428 -131 417 -160 q 459 -77 440 -103 q 500 -29 478 -51 q 532 0 517 -12 l 528 0 q 524 100 524 50 l 521 100 q 422 10 479 36 q 290 -17 365 -17 q 203 -4 244 -17 q 130 33 161 8 q 81 95 99 58 q 63 181 63 132 q 91 288 63 244 q 169 358 119 331 q 284 397 218 385 q 425 408 350 408 l 517 408 l 517 436 q 507 486 517 461 q 478 531 497 511 q 429 563 458 551 q 360 575 400 575 q 297 568 324 575 q 247 551 269 561 q 207 526 225 540 q 172 500 189 513 l 97 578 q 219 651 150 626 q 358 675 289 675 q 483 657 431 675 q 568 608 535 639 q 617 538 601 578 q 633 456 633 499 l 633 119 q 635 56 633 85 q 639 0 636 26 l 610 0 q 588 -25 600 -11 q 553 -69 569 -46 q 527 -117 538 -93 q 517 -164 517 -142 q 540 -210 519 -197 q 585 -224 560 -224 q 619 -216 603 -224 q 650 -197 636 -208 l 681 -258 m 450 317 q 359 312 406 317 q 274 293 313 307 q 212 254 236 279 q 188 190 188 229 q 226 108 188 133 q 329 83 264 83 q 417 101 381 83 q 475 146 453 118 q 507 208 497 174 q 517 275 517 242 l 517 317 l 450 317 z "},"Ć":{"ha":978,"x_min":65,"x_max":943,"o":"m 811 771 q 706 854 769 825 q 574 883 642 883 q 423 852 490 883 q 308 767 356 821 q 233 640 260 713 q 207 483 207 567 q 232 336 207 406 q 304 214 257 267 q 419 131 351 161 q 574 100 488 100 q 722 135 658 100 q 831 232 786 169 l 943 147 q 904 103 932 132 q 831 47 876 75 q 720 -3 785 18 q 571 -25 656 -25 q 360 19 454 -25 q 201 136 267 64 q 100 299 135 208 q 65 483 65 390 q 103 694 65 597 q 208 860 140 790 q 369 969 275 931 q 578 1008 464 1008 q 769 971 675 1008 q 922 856 863 933 l 811 771 m 640 1256 l 818 1256 l 611 1056 l 496 1056 l 640 1256 z "},"ć":{"ha":669,"x_min":63,"x_max":660,"o":"m 565 483 q 492 538 531 519 q 401 557 454 557 q 312 538 350 557 q 248 487 274 519 q 209 412 222 454 q 196 324 196 369 q 211 237 196 278 q 254 165 226 196 q 321 117 282 135 q 408 100 360 100 q 499 119 461 100 q 568 174 536 138 l 657 85 q 544 7 608 31 q 407 -17 479 -17 q 267 8 331 -17 q 158 78 204 33 q 88 187 113 124 q 63 326 63 250 q 88 467 63 403 q 158 576 113 531 q 266 648 203 622 q 407 674 329 674 q 545 648 479 674 q 660 569 611 622 l 565 483 m 418 983 l 596 983 l 389 783 l 274 783 l 418 983 z "},"Ĉ":{"ha":978,"x_min":65,"x_max":943,"o":"m 811 771 q 706 854 769 825 q 574 883 642 883 q 423 852 490 883 q 308 767 356 821 q 233 640 260 713 q 207 483 207 567 q 232 336 207 406 q 304 214 257 267 q 419 131 351 161 q 574 100 488 100 q 722 135 658 100 q 831 232 786 169 l 943 147 q 904 103 932 132 q 831 47 876 75 q 720 -3 785 18 q 571 -25 656 -25 q 360 19 454 -25 q 201 136 267 64 q 100 299 135 208 q 65 483 65 390 q 103 694 65 597 q 208 860 140 790 q 369 969 275 931 q 578 1008 464 1008 q 769 971 675 1008 q 922 856 863 933 l 811 771 m 674 1056 l 571 1189 l 468 1056 l 342 1056 l 497 1256 l 644 1256 l 800 1056 l 674 1056 z "},"ĉ":{"ha":669,"x_min":63,"x_max":660,"o":"m 565 483 q 492 538 531 519 q 401 557 454 557 q 312 538 350 557 q 248 487 274 519 q 209 412 222 454 q 196 324 196 369 q 211 237 196 278 q 254 165 226 196 q 321 117 282 135 q 408 100 360 100 q 499 119 461 100 q 568 174 536 138 l 657 85 q 544 7 608 31 q 407 -17 479 -17 q 267 8 331 -17 q 158 78 204 33 q 88 187 113 124 q 63 326 63 250 q 88 467 63 403 q 158 576 113 531 q 266 648 203 622 q 407 674 329 674 q 545 648 479 674 q 660 569 611 622 l 565 483 m 492 783 l 389 917 l 286 783 l 160 783 l 315 983 l 463 983 l 618 783 l 492 783 z "},"Ċ":{"ha":978,"x_min":65,"x_max":943,"o":"m 811 771 q 706 854 769 825 q 574 883 642 883 q 423 852 490 883 q 308 767 356 821 q 233 640 260 713 q 207 483 207 567 q 232 336 207 406 q 304 214 257 267 q 419 131 351 161 q 574 100 488 100 q 722 135 658 100 q 831 232 786 169 l 943 147 q 904 103 932 132 q 831 47 876 75 q 720 -3 785 18 q 571 -25 656 -25 q 360 19 454 -25 q 201 136 267 64 q 100 299 135 208 q 65 483 65 390 q 103 694 65 597 q 208 860 140 790 q 369 969 275 931 q 578 1008 464 1008 q 769 971 675 1008 q 922 856 863 933 l 811 771 m 568 1079 q 506 1104 531 1079 q 482 1167 482 1129 q 509 1224 482 1201 q 568 1246 536 1246 q 627 1224 600 1246 q 654 1167 654 1201 q 630 1104 654 1129 q 568 1079 606 1079 z "},"ċ":{"ha":669,"x_min":63,"x_max":660,"o":"m 565 483 q 492 538 531 519 q 401 557 454 557 q 312 538 350 557 q 248 487 274 519 q 209 412 222 454 q 196 324 196 369 q 211 237 196 278 q 254 165 226 196 q 321 117 282 135 q 408 100 360 100 q 499 119 461 100 q 568 174 536 138 l 657 85 q 544 7 608 31 q 407 -17 479 -17 q 267 8 331 -17 q 158 78 204 33 q 88 187 113 124 q 63 326 63 250 q 88 467 63 403 q 158 576 113 531 q 266 648 203 622 q 407 674 329 674 q 545 648 479 674 q 660 569 611 622 l 565 483 m 396 825 q 334 850 358 825 q 310 913 310 875 q 337 969 310 947 q 396 992 364 992 q 455 969 428 992 q 482 913 482 947 q 458 850 482 875 q 396 825 433 825 z "},"Č":{"ha":978,"x_min":65,"x_max":943,"o":"m 811 771 q 706 854 769 825 q 574 883 642 883 q 423 852 490 883 q 308 767 356 821 q 233 640 260 713 q 207 483 207 567 q 232 336 207 406 q 304 214 257 267 q 419 131 351 161 q 574 100 488 100 q 722 135 658 100 q 831 232 786 169 l 943 147 q 904 103 932 132 q 831 47 876 75 q 720 -3 785 18 q 571 -25 656 -25 q 360 19 454 -25 q 201 136 267 64 q 100 299 135 208 q 65 483 65 390 q 103 694 65 597 q 208 860 140 790 q 369 969 275 931 q 578 1008 464 1008 q 769 971 675 1008 q 922 856 863 933 l 811 771 m 328 1256 l 449 1256 l 557 1122 l 660 1256 l 786 1256 l 631 1056 l 483 1056 l 328 1256 z "},"č":{"ha":669,"x_min":63,"x_max":660,"o":"m 565 483 q 492 538 531 519 q 401 557 454 557 q 312 538 350 557 q 248 487 274 519 q 209 412 222 454 q 196 324 196 369 q 211 237 196 278 q 254 165 226 196 q 321 117 282 135 q 408 100 360 100 q 499 119 461 100 q 568 174 536 138 l 657 85 q 544 7 608 31 q 407 -17 479 -17 q 267 8 331 -17 q 158 78 204 33 q 88 187 113 124 q 63 326 63 250 q 88 467 63 403 q 158 576 113 531 q 266 648 203 622 q 407 674 329 674 q 545 648 479 674 q 660 569 611 622 l 565 483 m 169 983 l 290 983 l 399 850 l 501 983 l 628 983 l 472 783 l 325 783 l 169 983 z "},"Ď":{"ha":1029,"x_min":104,"x_max":964,"o":"m 104 983 l 447 983 q 630 960 551 983 q 766 897 708 936 q 862 806 824 857 q 922 700 900 754 q 954 592 944 646 q 964 492 964 538 q 929 309 964 397 q 826 152 894 221 q 658 42 758 83 q 425 0 557 0 l 104 0 l 104 983 m 238 125 l 406 125 q 566 148 490 125 q 699 217 642 171 q 789 331 756 263 q 822 492 822 400 q 807 602 822 539 q 749 722 792 665 q 632 819 707 779 q 438 858 557 858 l 238 858 l 238 125 m 249 1256 l 369 1256 l 478 1122 l 581 1256 l 707 1256 l 551 1056 l 404 1056 l 249 1256 z "},"ď":{"ha":849,"x_min":63,"x_max":1072,"o":"m 754 0 l 629 0 l 629 94 l 626 94 q 527 13 590 42 q 397 -17 464 -17 q 259 10 321 -17 q 153 83 197 36 q 86 193 110 131 q 63 329 63 256 q 86 466 63 403 q 153 576 110 529 q 259 649 197 622 q 397 675 321 675 q 531 645 468 675 q 626 564 593 615 l 629 564 l 629 1050 l 754 1050 l 754 0 m 413 100 q 503 117 463 100 q 571 165 543 135 q 614 237 599 194 q 629 329 629 279 q 614 422 629 379 q 571 494 599 464 q 503 541 543 524 q 413 558 463 558 q 322 541 363 558 q 254 494 282 524 q 211 422 226 464 q 196 329 196 379 q 211 237 196 279 q 254 165 226 194 q 322 117 282 135 q 413 100 363 100 m 964 719 l 854 719 l 943 983 l 1072 983 l 964 719 z "},"Đ":{"ha":1029,"x_min":4,"x_max":964,"o":"m 104 467 l 4 467 l 4 558 l 104 558 l 104 983 l 447 983 q 630 960 551 983 q 766 897 708 936 q 862 806 824 857 q 922 700 900 754 q 954 592 944 646 q 964 492 964 538 q 929 309 964 397 q 826 152 894 221 q 658 42 758 83 q 425 0 557 0 l 104 0 l 104 467 m 238 125 l 406 125 q 566 148 490 125 q 699 217 642 171 q 789 331 756 263 q 822 492 822 400 q 807 602 822 539 q 749 722 792 665 q 632 819 707 779 q 438 858 557 858 l 238 858 l 238 558 l 563 558 l 563 467 l 238 467 l 238 125 z "},"đ":{"ha":849,"x_min":63,"x_max":824,"o":"m 824 778 l 754 778 l 754 0 l 629 0 l 629 94 l 626 94 q 527 13 590 42 q 397 -17 464 -17 q 259 10 321 -17 q 153 83 197 36 q 86 193 110 131 q 63 329 63 256 q 86 466 63 403 q 153 576 110 529 q 259 649 197 622 q 397 675 321 675 q 531 645 468 675 q 626 564 593 615 l 629 564 l 629 778 l 381 778 l 381 864 l 629 864 l 629 1050 l 754 1050 l 754 864 l 824 864 l 824 778 m 413 100 q 503 117 463 100 q 571 165 543 135 q 614 237 599 194 q 629 329 629 279 q 614 422 629 379 q 571 494 599 464 q 503 541 543 524 q 413 558 463 558 q 322 541 363 558 q 254 494 282 524 q 211 422 226 464 q 196 329 196 379 q 211 237 196 279 q 254 165 226 194 q 322 117 282 135 q 413 100 363 100 z "},"Ē":{"ha":849,"x_min":126,"x_max":786,"o":"m 126 983 l 761 983 l 761 858 l 260 858 l 260 565 l 726 565 l 726 440 l 260 440 l 260 125 l 786 125 l 786 0 l 126 0 l 126 983 m 644 1094 l 244 1094 l 244 1186 l 644 1186 l 644 1094 z "},"ē":{"ha":772,"x_min":56,"x_max":717,"o":"m 189 283 q 208 205 189 240 q 257 144 226 169 q 328 106 288 119 q 411 92 368 92 q 513 119 469 92 q 592 190 556 146 l 686 118 q 394 -17 582 -17 q 253 10 317 -17 q 147 83 190 36 q 79 192 103 129 q 56 329 56 256 q 81 466 56 403 q 152 576 107 529 q 260 649 197 622 q 396 675 322 675 q 544 644 483 675 q 643 565 604 614 q 699 453 682 515 q 717 328 717 392 l 717 283 l 189 283 m 583 383 q 570 460 582 425 q 535 520 558 494 q 476 560 511 546 q 393 575 440 575 q 309 558 347 575 q 244 513 271 540 q 203 451 218 485 q 189 383 189 417 l 583 383 m 590 833 l 190 833 l 190 925 l 590 925 l 590 833 z "},"Ĕ":{"ha":849,"x_min":126,"x_max":786,"o":"m 126 983 l 761 983 l 761 858 l 260 858 l 260 565 l 726 565 l 726 440 l 260 440 l 260 125 l 786 125 l 786 0 l 126 0 l 126 983 m 306 1244 q 356 1168 315 1192 q 449 1144 397 1144 q 541 1168 500 1144 q 592 1244 582 1192 l 665 1244 q 599 1101 658 1149 q 447 1053 539 1053 q 296 1101 356 1053 q 229 1244 236 1149 l 306 1244 z "},"ĕ":{"ha":772,"x_min":56,"x_max":717,"o":"m 189 283 q 208 205 189 240 q 257 144 226 169 q 328 106 288 119 q 411 92 368 92 q 513 119 469 92 q 592 190 556 146 l 686 118 q 394 -17 582 -17 q 253 10 317 -17 q 147 83 190 36 q 79 192 103 129 q 56 329 56 256 q 81 466 56 403 q 152 576 107 529 q 260 649 197 622 q 396 675 322 675 q 544 644 483 675 q 643 565 604 614 q 699 453 682 515 q 717 328 717 392 l 717 283 l 189 283 m 583 383 q 570 460 582 425 q 535 520 558 494 q 476 560 511 546 q 393 575 440 575 q 309 558 347 575 q 244 513 271 540 q 203 451 218 485 q 189 383 189 417 l 583 383 m 257 975 q 308 899 267 922 q 400 875 349 875 q 492 899 451 875 q 543 975 533 922 l 617 975 q 550 831 610 879 q 399 783 490 783 q 247 831 307 783 q 181 975 188 879 l 257 975 z "},"Ė":{"ha":849,"x_min":126,"x_max":786,"o":"m 126 983 l 761 983 l 761 858 l 260 858 l 260 565 l 726 565 l 726 440 l 260 440 l 260 125 l 786 125 l 786 0 l 126 0 l 126 983 m 458 1079 q 397 1104 421 1079 q 372 1167 372 1129 q 399 1224 372 1201 q 458 1246 426 1246 q 517 1224 490 1246 q 544 1167 544 1201 q 520 1104 544 1129 q 458 1079 496 1079 z "},"ė":{"ha":772,"x_min":56,"x_max":717,"o":"m 189 283 q 208 205 189 240 q 257 144 226 169 q 328 106 288 119 q 411 92 368 92 q 513 119 469 92 q 592 190 556 146 l 686 118 q 394 -17 582 -17 q 253 10 317 -17 q 147 83 190 36 q 79 192 103 129 q 56 329 56 256 q 81 466 56 403 q 152 576 107 529 q 260 649 197 622 q 396 675 322 675 q 544 644 483 675 q 643 565 604 614 q 699 453 682 515 q 717 328 717 392 l 717 283 l 189 283 m 583 383 q 570 460 582 425 q 535 520 558 494 q 476 560 511 546 q 393 575 440 575 q 309 558 347 575 q 244 513 271 540 q 203 451 218 485 q 189 383 189 417 l 583 383 m 401 825 q 340 850 364 825 q 315 913 315 875 q 342 969 315 947 q 401 992 369 992 q 460 969 433 992 q 488 913 488 947 q 463 850 488 875 q 401 825 439 825 z "},"Ę":{"ha":849,"x_min":126,"x_max":831,"o":"m 831 -258 q 769 -295 803 -283 q 704 -307 736 -307 q 610 -277 650 -307 q 567 -189 569 -247 q 578 -131 567 -160 q 609 -77 590 -103 q 650 -29 628 -51 q 682 0 667 -12 l 126 0 l 126 983 l 761 983 l 761 858 l 260 858 l 260 565 l 726 565 l 726 440 l 260 440 l 260 125 l 786 125 l 786 0 l 760 0 q 738 -25 750 -11 q 703 -69 719 -46 q 677 -117 688 -93 q 667 -164 667 -142 q 690 -210 669 -197 q 735 -224 710 -224 q 769 -216 753 -224 q 800 -197 786 -208 l 831 -258 z "},"ę":{"ha":772,"x_min":56,"x_max":717,"o":"m 551 -258 q 490 -295 524 -283 q 425 -307 457 -307 q 331 -277 371 -307 q 288 -189 290 -247 q 299 -131 288 -160 q 330 -77 311 -103 q 371 -29 349 -51 l 383 -17 q 253 10 313 -14 q 147 83 190 36 q 79 192 103 129 q 56 329 56 256 q 81 466 56 403 q 152 576 107 529 q 260 649 197 622 q 396 675 322 675 q 544 644 483 675 q 643 565 604 614 q 699 453 682 515 q 717 328 717 392 l 717 283 l 189 283 q 208 205 189 240 q 257 144 226 169 q 328 106 288 119 q 411 92 368 92 q 513 119 469 92 q 592 190 556 146 l 686 118 q 471 -10 604 13 q 458 -25 465 -18 q 424 -69 440 -46 q 398 -117 408 -93 q 388 -164 388 -142 q 410 -210 390 -197 q 456 -224 431 -224 q 490 -216 474 -224 q 521 -197 507 -208 l 551 -258 m 583 383 q 570 460 582 425 q 535 520 558 494 q 476 560 511 546 q 393 575 440 575 q 309 558 347 575 q 244 513 271 540 q 203 451 218 485 q 189 383 189 417 l 583 383 z "},"Ě":{"ha":849,"x_min":126,"x_max":786,"o":"m 126 983 l 761 983 l 761 858 l 260 858 l 260 565 l 726 565 l 726 440 l 260 440 l 260 125 l 786 125 l 786 0 l 126 0 l 126 983 m 219 1256 l 340 1256 l 449 1122 l 551 1256 l 678 1256 l 522 1056 l 375 1056 l 219 1256 z "},"ě":{"ha":772,"x_min":56,"x_max":717,"o":"m 189 283 q 208 205 189 240 q 257 144 226 169 q 328 106 288 119 q 411 92 368 92 q 513 119 469 92 q 592 190 556 146 l 686 118 q 394 -17 582 -17 q 253 10 317 -17 q 147 83 190 36 q 79 192 103 129 q 56 329 56 256 q 81 466 56 403 q 152 576 107 529 q 260 649 197 622 q 396 675 322 675 q 544 644 483 675 q 643 565 604 614 q 699 453 682 515 q 717 328 717 392 l 717 283 l 189 283 m 583 383 q 570 460 582 425 q 535 520 558 494 q 476 560 511 546 q 393 575 440 575 q 309 558 347 575 q 244 513 271 540 q 203 451 218 485 q 189 383 189 417 l 583 383 m 169 983 l 290 983 l 399 850 l 501 983 l 628 983 l 472 783 l 325 783 l 169 983 z "},"Ĝ":{"ha":1081,"x_min":65,"x_max":964,"o":"m 964 550 l 964 65 q 882 26 928 43 q 787 -2 836 10 q 687 -19 738 -14 q 592 -25 636 -25 q 369 17 467 -25 q 203 129 271 58 q 101 294 136 200 q 65 492 65 388 q 103 696 65 601 q 209 860 142 790 q 371 969 276 929 q 578 1008 465 1008 q 800 974 714 1008 q 944 881 886 940 l 850 779 q 721 860 789 838 q 578 883 653 883 q 425 852 493 883 q 308 768 357 821 q 233 644 260 715 q 207 492 207 572 q 236 337 207 408 q 317 213 265 265 q 438 130 368 160 q 589 100 507 100 q 723 113 660 100 q 831 151 786 126 l 831 425 l 613 425 l 613 550 l 964 550 m 671 1056 l 568 1189 l 465 1056 l 339 1056 l 494 1256 l 642 1256 l 797 1056 l 671 1056 z "},"ĝ":{"ha":849,"x_min":63,"x_max":754,"o":"m 754 6 q 728 -131 754 -69 q 656 -238 703 -193 q 542 -308 608 -283 q 394 -333 475 -333 q 222 -307 300 -333 q 72 -215 143 -281 l 157 -110 q 263 -190 206 -162 q 392 -217 319 -217 q 507 -197 461 -217 q 580 -144 553 -176 q 618 -72 607 -112 q 629 11 629 -31 l 629 108 l 625 108 q 527 20 589 49 q 397 -8 465 -8 q 263 17 325 -8 q 157 88 201 43 q 88 195 113 133 q 63 329 63 257 q 86 465 63 401 q 153 575 110 528 q 259 649 197 622 q 397 675 321 675 q 527 646 464 675 q 626 564 590 617 l 629 564 l 629 658 l 754 658 l 754 6 m 413 558 q 322 541 363 558 q 254 494 282 524 q 211 422 226 464 q 196 329 196 379 q 254 169 196 229 q 413 108 313 108 q 571 169 513 108 q 629 329 629 229 q 614 422 629 379 q 571 494 599 464 q 503 541 543 524 q 413 558 463 558 m 522 783 l 419 917 l 317 783 l 190 783 l 346 983 l 493 983 l 649 783 l 522 783 z "},"Ğ":{"ha":1081,"x_min":65,"x_max":964,"o":"m 964 550 l 964 65 q 882 26 928 43 q 787 -2 836 10 q 687 -19 738 -14 q 592 -25 636 -25 q 369 17 467 -25 q 203 129 271 58 q 101 294 136 200 q 65 492 65 388 q 103 696 65 601 q 209 860 142 790 q 371 969 276 929 q 578 1008 465 1008 q 800 974 714 1008 q 944 881 886 940 l 850 779 q 721 860 789 838 q 578 883 653 883 q 425 852 493 883 q 308 768 357 821 q 233 644 260 715 q 207 492 207 572 q 236 337 207 408 q 317 213 265 265 q 438 130 368 160 q 589 100 507 100 q 723 113 660 100 q 831 151 786 126 l 831 425 l 613 425 l 613 550 l 964 550 m 428 1244 q 478 1168 438 1192 q 571 1144 519 1144 q 663 1168 622 1144 q 714 1244 704 1192 l 788 1244 q 721 1101 781 1149 q 569 1053 661 1053 q 418 1101 478 1053 q 351 1244 358 1149 l 428 1244 z "},"ğ":{"ha":849,"x_min":63,"x_max":754,"o":"m 754 6 q 728 -131 754 -69 q 656 -238 703 -193 q 542 -308 608 -283 q 394 -333 475 -333 q 222 -307 300 -333 q 72 -215 143 -281 l 157 -110 q 263 -190 206 -162 q 392 -217 319 -217 q 507 -197 461 -217 q 580 -144 553 -176 q 618 -72 607 -112 q 629 11 629 -31 l 629 108 l 625 108 q 527 20 589 49 q 397 -8 465 -8 q 263 17 325 -8 q 157 88 201 43 q 88 195 113 133 q 63 329 63 257 q 86 465 63 401 q 153 575 110 528 q 259 649 197 622 q 397 675 321 675 q 527 646 464 675 q 626 564 590 617 l 629 564 l 629 658 l 754 658 l 754 6 m 413 558 q 322 541 363 558 q 254 494 282 524 q 211 422 226 464 q 196 329 196 379 q 254 169 196 229 q 413 108 313 108 q 571 169 513 108 q 629 329 629 229 q 614 422 629 379 q 571 494 599 464 q 503 541 543 524 q 413 558 463 558 m 283 975 q 334 899 293 922 q 426 875 375 875 q 519 899 478 875 q 569 975 560 922 l 643 975 q 576 831 636 879 q 425 783 517 783 q 274 831 333 783 q 207 975 214 879 l 283 975 z "},"Ġ":{"ha":1081,"x_min":65,"x_max":964,"o":"m 964 550 l 964 65 q 882 26 928 43 q 787 -2 836 10 q 687 -19 738 -14 q 592 -25 636 -25 q 369 17 467 -25 q 203 129 271 58 q 101 294 136 200 q 65 492 65 388 q 103 696 65 601 q 209 860 142 790 q 371 969 276 929 q 578 1008 465 1008 q 800 974 714 1008 q 944 881 886 940 l 850 779 q 721 860 789 838 q 578 883 653 883 q 425 852 493 883 q 308 768 357 821 q 233 644 260 715 q 207 492 207 572 q 236 337 207 408 q 317 213 265 265 q 438 130 368 160 q 589 100 507 100 q 723 113 660 100 q 831 151 786 126 l 831 425 l 613 425 l 613 550 l 964 550 m 588 1079 q 526 1104 550 1079 q 501 1167 501 1129 q 528 1224 501 1201 q 588 1246 556 1246 q 647 1224 619 1246 q 674 1167 674 1201 q 649 1104 674 1129 q 588 1079 625 1079 z "},"ġ":{"ha":849,"x_min":63,"x_max":754,"o":"m 754 6 q 728 -131 754 -69 q 656 -238 703 -193 q 542 -308 608 -283 q 394 -333 475 -333 q 222 -307 300 -333 q 72 -215 143 -281 l 157 -110 q 263 -190 206 -162 q 392 -217 319 -217 q 507 -197 461 -217 q 580 -144 553 -176 q 618 -72 607 -112 q 629 11 629 -31 l 629 108 l 625 108 q 527 20 589 49 q 397 -8 465 -8 q 263 17 325 -8 q 157 88 201 43 q 88 195 113 133 q 63 329 63 257 q 86 465 63 401 q 153 575 110 528 q 259 649 197 622 q 397 675 321 675 q 527 646 464 675 q 626 564 590 617 l 629 564 l 629 658 l 754 658 l 754 6 m 413 558 q 322 541 363 558 q 254 494 282 524 q 211 422 226 464 q 196 329 196 379 q 254 169 196 229 q 413 108 313 108 q 571 169 513 108 q 629 329 629 229 q 614 422 629 379 q 571 494 599 464 q 503 541 543 524 q 413 558 463 558 m 426 825 q 365 850 389 825 q 340 913 340 875 q 367 969 340 947 q 426 992 394 992 q 485 969 458 992 q 513 913 513 947 q 488 850 513 875 q 426 825 464 825 z "},"Ģ":{"ha":1081,"x_min":65,"x_max":964,"o":"m 964 550 l 964 65 q 882 26 928 43 q 787 -2 836 10 q 687 -19 738 -14 q 592 -25 636 -25 q 369 17 467 -25 q 203 129 271 58 q 101 294 136 200 q 65 492 65 388 q 103 696 65 601 q 209 860 142 790 q 371 969 276 929 q 578 1008 465 1008 q 800 974 714 1008 q 944 881 886 940 l 850 779 q 721 860 789 838 q 578 883 653 883 q 425 852 493 883 q 308 768 357 821 q 233 644 260 715 q 207 492 207 572 q 236 337 207 408 q 317 213 265 265 q 438 130 368 160 q 589 100 507 100 q 723 113 660 100 q 831 151 786 126 l 831 425 l 613 425 l 613 550 l 964 550 m 571 -326 l 461 -326 l 550 -62 l 679 -62 l 571 -326 z "},"ģ":{"ha":849,"x_min":63,"x_max":754,"o":"m 754 6 q 728 -131 754 -69 q 656 -238 703 -193 q 542 -308 608 -283 q 394 -333 475 -333 q 222 -307 300 -333 q 72 -215 143 -281 l 157 -110 q 263 -190 206 -162 q 392 -217 319 -217 q 507 -197 461 -217 q 580 -144 553 -176 q 618 -72 607 -112 q 629 11 629 -31 l 629 108 l 625 108 q 527 20 589 49 q 397 -8 465 -8 q 263 17 325 -8 q 157 88 201 43 q 88 195 113 133 q 63 329 63 257 q 86 465 63 401 q 153 575 110 528 q 259 649 197 622 q 397 675 321 675 q 527 646 464 675 q 626 564 590 617 l 629 564 l 629 658 l 754 658 l 754 6 m 413 558 q 322 541 363 558 q 254 494 282 524 q 211 422 226 464 q 196 329 196 379 q 254 169 196 229 q 413 108 313 108 q 571 169 513 108 q 629 329 629 229 q 614 422 629 379 q 571 494 599 464 q 503 541 543 524 q 413 558 463 558 m 436 1047 l 546 1047 l 457 783 l 328 783 l 436 1047 z "},"Ĥ":{"ha":1029,"x_min":126,"x_max":903,"o":"m 126 983 l 260 983 l 260 575 l 769 575 l 769 983 l 903 983 l 903 0 l 769 0 l 769 450 l 260 450 l 260 0 l 126 0 l 126 983 m 606 1056 l 503 1189 l 400 1056 l 274 1056 l 429 1256 l 576 1256 l 732 1056 l 606 1056 z "},"ĥ":{"ha":772,"x_min":94,"x_max":678,"o":"m 94 1050 l 219 1050 l 219 557 l 222 557 q 304 642 246 610 q 439 675 363 675 q 530 660 486 675 q 606 615 574 646 q 658 537 639 585 q 678 424 678 489 l 678 0 l 553 0 l 553 389 q 540 467 553 435 q 507 520 528 500 q 459 549 486 540 q 403 558 432 558 q 331 546 364 558 q 272 506 297 533 q 233 438 247 479 q 219 339 219 396 l 219 0 l 94 0 l 94 1050 m 482 1106 l 379 1239 l 276 1106 l 150 1106 l 306 1306 l 453 1306 l 608 1106 l 482 1106 z "},"Ħ":{"ha":1029,"x_min":126,"x_max":903,"o":"m 126 983 l 260 983 l 260 808 l 769 808 l 769 983 l 903 983 l 903 0 l 769 0 l 769 450 l 260 450 l 260 0 l 126 0 l 126 983 m 769 575 l 769 700 l 260 700 l 260 575 l 769 575 z "},"ħ":{"ha":772,"x_min":31,"x_max":678,"o":"m 94 1050 l 219 1050 l 219 864 l 474 864 l 474 778 l 219 778 l 219 557 l 222 557 q 304 642 246 610 q 439 675 363 675 q 530 660 486 675 q 606 615 574 646 q 658 537 639 585 q 678 424 678 489 l 678 0 l 553 0 l 553 389 q 540 467 553 435 q 507 520 528 500 q 459 549 486 540 q 403 558 432 558 q 331 546 364 558 q 272 506 297 533 q 233 438 247 479 q 219 339 219 396 l 219 0 l 94 0 l 94 778 l 31 778 l 31 864 l 94 864 l 94 1050 z "},"Ĩ":{"ha":386,"x_min":-49,"x_max":418,"o":"m 126 983 l 260 983 l 260 0 l 126 0 l 126 983 m -49 1069 q -33 1122 -44 1096 q -5 1169 -22 1149 q 37 1201 13 1189 q 92 1214 61 1214 q 152 1203 124 1214 q 208 1182 181 1193 q 245 1166 229 1174 q 283 1158 261 1158 q 328 1176 311 1158 q 351 1219 344 1194 l 418 1219 q 404 1167 414 1193 q 379 1121 394 1142 q 341 1088 364 1100 q 288 1075 318 1075 q 230 1084 258 1075 q 175 1104 201 1093 q 131 1122 154 1113 q 83 1131 107 1131 q 41 1112 57 1131 q 18 1069 25 1093 l -49 1069 z "},"ĩ":{"ha":333,"x_min":-64,"x_max":403,"o":"m 104 658 l 229 658 l 229 0 l 104 0 l 104 658 m -64 800 q -49 853 -60 826 q -20 899 -37 879 q 22 932 -3 919 q 76 944 46 944 q 137 934 108 944 q 193 913 165 924 q 230 897 214 904 q 268 889 246 889 q 313 907 296 889 q 336 950 329 925 l 403 950 q 389 898 399 924 q 364 851 379 872 q 326 818 349 831 q 272 806 303 806 q 215 815 243 806 q 160 835 186 824 q 115 852 139 843 q 68 861 92 861 q 26 842 42 861 q 3 800 10 824 l -64 800 z "},"Ī":{"ha":386,"x_min":-18,"x_max":382,"o":"m 126 983 l 260 983 l 260 0 l 126 0 l 126 983 m 382 1094 l -18 1094 l -18 1186 l 382 1186 l 382 1094 z "},"ī":{"ha":333,"x_min":-32,"x_max":368,"o":"m 104 658 l 229 658 l 229 0 l 104 0 l 104 658 m 368 833 l -32 833 l -32 925 l 368 925 l 368 833 z "},"Ĭ":{"ha":386,"x_min":-25,"x_max":411,"o":"m 126 983 l 260 983 l 260 0 l 126 0 l 126 983 m 51 1244 q 102 1168 61 1192 q 194 1144 143 1144 q 287 1168 246 1144 q 338 1244 328 1192 l 411 1244 q 344 1101 404 1149 q 193 1053 285 1053 q 42 1101 101 1053 q -25 1244 -18 1149 l 51 1244 z "},"ĭ":{"ha":333,"x_min":-51,"x_max":385,"o":"m 104 658 l 229 658 l 229 0 l 104 0 l 104 658 m 25 921 q 76 844 35 868 q 168 821 117 821 q 260 844 219 821 q 311 921 301 868 l 385 921 q 318 777 378 825 q 167 729 258 729 q 15 777 75 729 q -51 921 -44 825 l 25 921 z "},"Į":{"ha":386,"x_min":26,"x_max":290,"o":"m 290 -258 q 229 -295 263 -283 q 164 -307 196 -307 q 69 -277 110 -307 q 26 -189 29 -247 q 38 -131 26 -160 q 69 -77 50 -103 q 110 -29 88 -51 q 142 0 126 -12 l 126 0 l 126 983 l 260 983 l 260 0 l 219 0 q 197 -25 210 -11 q 163 -69 179 -46 q 137 -117 147 -93 q 126 -164 126 -142 q 149 -210 129 -197 q 194 -224 169 -224 q 229 -216 213 -224 q 260 -197 246 -208 l 290 -258 z "},"į":{"ha":333,"x_min":8,"x_max":272,"o":"m 272 -258 q 211 -295 244 -283 q 146 -307 178 -307 q 51 -277 92 -307 q 8 -189 11 -247 q 20 -131 8 -160 q 51 -77 32 -103 q 92 -29 69 -51 q 124 0 108 -12 l 104 0 l 104 658 l 229 658 l 229 0 l 201 0 q 179 -25 192 -11 q 145 -69 161 -46 q 119 -117 129 -93 q 108 -164 108 -142 q 131 -210 111 -197 q 176 -224 151 -224 q 211 -216 194 -224 q 242 -197 228 -208 l 272 -258 m 75 894 q 102 959 75 932 q 167 986 129 986 q 231 959 204 986 q 258 894 258 932 q 231 830 258 857 q 167 803 204 803 q 102 830 129 803 q 75 894 75 857 z "},"İ":{"ha":386,"x_min":99,"x_max":271,"o":"m 126 983 l 260 983 l 260 0 l 126 0 l 126 983 m 185 1079 q 123 1104 147 1079 q 99 1167 99 1129 q 126 1224 99 1201 q 185 1246 153 1246 q 244 1224 217 1246 q 271 1167 271 1201 q 247 1104 271 1129 q 185 1079 222 1079 z "},"ı":{"ha":333,"x_min":104,"x_max":229,"o":"m 104 658 l 229 658 l 229 0 l 104 0 l 104 658 z "},"Ĳ":{"ha":993,"x_min":126,"x_max":890,"o":"m 126 983 l 260 983 l 260 0 l 126 0 l 126 983 m 757 983 l 890 983 l 890 281 q 861 128 890 188 q 788 35 832 69 q 694 -12 744 1 q 603 -25 644 -25 q 427 28 499 -25 q 336 190 356 82 l 467 219 q 513 132 478 164 q 603 100 547 100 q 683 119 653 100 q 729 170 713 139 q 751 242 746 201 q 757 324 757 282 l 757 983 z "},"ĳ":{"ha":668,"x_min":75,"x_max":593,"o":"m 104 658 l 229 658 l 229 0 l 104 0 l 104 658 m 75 894 q 102 959 75 932 q 167 986 129 986 q 231 959 204 986 q 258 894 258 932 q 231 830 258 857 q 167 803 204 803 q 102 830 129 803 q 75 894 75 857 m 564 658 l 564 -94 q 560 -160 564 -119 q 538 -240 557 -201 q 478 -306 519 -278 q 363 -333 438 -333 q 322 -331 342 -333 q 282 -321 301 -328 l 296 -206 q 321 -213 307 -210 q 347 -217 335 -217 q 419 -184 399 -217 q 439 -89 439 -151 l 439 658 l 564 658 m 410 894 q 437 959 410 932 q 501 986 464 986 q 566 959 539 986 q 593 894 593 932 q 566 830 593 857 q 501 803 539 803 q 437 830 464 803 q 410 894 410 857 z "},"Ĵ":{"ha":669,"x_min":13,"x_max":726,"o":"m 433 983 l 567 983 l 567 281 q 538 128 567 188 q 465 35 508 69 q 371 -12 421 1 q 279 -25 321 -25 q 103 28 175 -25 q 13 190 32 82 l 143 219 q 189 132 154 164 q 279 100 224 100 q 359 119 329 100 q 406 170 389 139 q 428 242 422 201 q 433 324 433 282 l 433 983 m 600 1056 l 497 1189 l 394 1056 l 268 1056 l 424 1256 l 571 1256 l 726 1056 l 600 1056 z "},"ĵ":{"ha":333,"x_min":-61,"x_max":397,"o":"m 229 658 l 229 -94 q 226 -160 229 -119 q 203 -240 222 -201 q 144 -306 185 -278 q 28 -333 103 -333 q -13 -331 7 -333 q -53 -321 -33 -328 l -39 -206 q -14 -213 -28 -210 q 13 -217 0 -217 q 84 -184 64 -217 q 104 -89 104 -151 l 104 658 l 229 658 m 271 783 l 168 917 l 65 783 l -61 783 l 94 983 l 242 983 l 397 783 l 271 783 z "},"Ķ":{"ha":900,"x_min":126,"x_max":924,"o":"m 126 983 l 260 983 l 260 558 l 271 558 l 706 983 l 892 983 l 417 529 l 924 0 l 729 0 l 271 492 l 260 492 l 260 0 l 126 0 l 126 983 m 426 -326 l 317 -326 l 406 -62 l 535 -62 l 426 -326 z "},"ķ":{"ha":721,"x_min":94,"x_max":703,"o":"m 94 1050 l 219 1050 l 219 372 l 503 657 l 676 657 l 369 358 l 703 0 l 525 0 l 219 342 l 219 0 l 94 0 l 94 1050 m 335 -326 l 225 -326 l 314 -62 l 443 -62 l 335 -326 z "},"Ĺ":{"ha":721,"x_min":126,"x_max":711,"o":"m 126 983 l 260 983 l 260 125 l 711 125 l 711 0 l 126 0 l 126 983 m 289 1256 l 467 1256 l 260 1056 l 144 1056 l 289 1256 z "},"ĺ":{"ha":333,"x_min":104,"x_max":426,"o":"m 104 1050 l 229 1050 l 229 0 l 104 0 l 104 1050 m 249 1300 l 426 1300 l 219 1100 l 104 1100 l 249 1300 z "},"Ļ":{"ha":721,"x_min":126,"x_max":711,"o":"m 126 983 l 260 983 l 260 125 l 711 125 l 711 0 l 126 0 l 126 983 m 397 -326 l 288 -326 l 376 -62 l 506 -62 l 397 -326 z "},"ļ":{"ha":333,"x_min":63,"x_max":281,"o":"m 104 1050 l 229 1050 l 229 0 l 104 0 l 104 1050 m 172 -326 l 63 -326 l 151 -62 l 281 -62 l 172 -326 z "},"Ľ":{"ha":721,"x_min":126,"x_max":711,"o":"m 126 983 l 260 983 l 260 125 l 711 125 l 711 0 l 126 0 l 126 983 m 443 719 l 333 719 l 422 983 l 551 983 l 443 719 z "},"ľ":{"ha":333,"x_min":104,"x_max":524,"o":"m 104 1050 l 229 1050 l 229 0 l 104 0 l 104 1050 m 415 719 l 306 719 l 394 983 l 524 983 l 415 719 z "},"Ŀ":{"ha":721,"x_min":126,"x_max":711,"o":"m 126 983 l 260 983 l 260 125 l 711 125 l 711 0 l 126 0 l 126 983 m 546 478 q 484 503 508 478 q 460 565 460 528 q 487 622 460 600 q 546 644 514 644 q 605 622 578 644 q 632 565 632 600 q 608 503 632 528 q 546 478 583 478 z "},"ŀ":{"ha":417,"x_min":104,"x_max":456,"o":"m 104 1050 l 229 1050 l 229 0 l 104 0 l 104 1050 m 369 483 q 308 508 332 483 q 283 571 283 533 q 310 628 283 606 q 369 650 338 650 q 428 628 401 650 q 456 571 456 606 q 431 508 456 533 q 369 483 407 483 z "},"Ł":{"ha":721,"x_min":26,"x_max":711,"o":"m 126 290 l 26 203 l 26 326 l 126 413 l 126 983 l 260 983 l 260 528 l 560 789 l 560 665 l 260 406 l 260 125 l 711 125 l 711 0 l 126 0 l 126 290 z "},"ł":{"ha":333,"x_min":-4,"x_max":338,"o":"m 104 414 l -4 306 l -4 431 l 104 539 l 104 1050 l 229 1050 l 229 664 l 338 771 l 338 646 l 229 539 l 229 0 l 104 0 l 104 414 z "},"Ń":{"ha":1106,"x_min":126,"x_max":979,"o":"m 126 983 l 301 983 l 843 175 l 846 175 l 846 983 l 979 983 l 979 0 l 810 0 l 263 808 l 260 808 l 260 0 l 126 0 l 126 983 m 611 1256 l 789 1256 l 582 1056 l 467 1056 l 611 1256 z "},"ń":{"ha":772,"x_min":94,"x_max":678,"o":"m 94 658 l 219 658 l 219 557 l 222 557 q 304 642 246 610 q 439 675 363 675 q 530 660 486 675 q 606 615 574 646 q 658 537 639 585 q 678 424 678 489 l 678 0 l 553 0 l 553 389 q 540 467 553 435 q 507 520 528 500 q 459 549 486 540 q 403 558 432 558 q 331 546 364 558 q 272 506 297 533 q 233 438 247 479 q 219 339 219 396 l 219 0 l 94 0 l 94 658 m 467 983 l 644 983 l 438 783 l 322 783 l 467 983 z "},"Ņ":{"ha":1106,"x_min":126,"x_max":979,"o":"m 126 983 l 301 983 l 843 175 l 846 175 l 846 983 l 979 983 l 979 0 l 810 0 l 263 808 l 260 808 l 260 0 l 126 0 l 126 983 m 524 -326 l 414 -326 l 503 -62 l 632 -62 l 524 -326 z "},"ņ":{"ha":772,"x_min":94,"x_max":678,"o":"m 94 658 l 219 658 l 219 557 l 222 557 q 304 642 246 610 q 439 675 363 675 q 530 660 486 675 q 606 615 574 646 q 658 537 639 585 q 678 424 678 489 l 678 0 l 553 0 l 553 389 q 540 467 553 435 q 507 520 528 500 q 459 549 486 540 q 403 558 432 558 q 331 546 364 558 q 272 506 297 533 q 233 438 247 479 q 219 339 219 396 l 219 0 l 94 0 l 94 658 m 363 -326 l 253 -326 l 342 -62 l 471 -62 l 363 -326 z "},"Ň":{"ha":1106,"x_min":126,"x_max":979,"o":"m 126 983 l 301 983 l 843 175 l 846 175 l 846 983 l 979 983 l 979 0 l 810 0 l 263 808 l 260 808 l 260 0 l 126 0 l 126 983 m 314 1256 l 435 1256 l 543 1122 l 646 1256 l 772 1256 l 617 1056 l 469 1056 l 314 1256 z "},"ň":{"ha":772,"x_min":94,"x_max":678,"o":"m 94 658 l 219 658 l 219 557 l 222 557 q 304 642 246 610 q 439 675 363 675 q 530 660 486 675 q 606 615 574 646 q 658 537 639 585 q 678 424 678 489 l 678 0 l 553 0 l 553 389 q 540 467 553 435 q 507 520 528 500 q 459 549 486 540 q 403 558 432 558 q 331 546 364 558 q 272 506 297 533 q 233 438 247 479 q 219 339 219 396 l 219 0 l 94 0 l 94 658 m 164 983 l 285 983 l 393 850 l 496 983 l 622 983 l 467 783 l 319 783 l 164 983 z "},"ŉ":{"ha":772,"x_min":15,"x_max":678,"o":"m 94 658 l 219 658 l 219 557 l 222 557 q 304 642 246 610 q 439 675 363 675 q 530 660 486 675 q 606 615 574 646 q 658 537 639 585 q 678 424 678 489 l 678 0 l 553 0 l 553 389 q 540 467 553 435 q 507 520 528 500 q 459 549 486 540 q 403 558 432 558 q 331 546 364 558 q 272 506 297 533 q 233 438 247 479 q 219 339 219 396 l 219 0 l 94 0 l 94 658 m 125 719 l 15 719 l 104 983 l 233 983 l 125 719 z "},"Ō":{"ha":1156,"x_min":65,"x_max":1090,"o":"m 578 -25 q 371 15 465 -25 q 209 124 276 54 q 103 288 142 193 q 65 492 65 382 q 103 696 65 601 q 209 860 142 790 q 371 969 276 929 q 578 1008 465 1008 q 785 969 690 1008 q 947 860 879 929 q 1052 696 1014 790 q 1090 492 1090 601 q 1052 288 1090 382 q 947 124 1014 193 q 785 15 879 54 q 578 -25 690 -25 m 578 100 q 731 131 663 100 q 847 215 799 163 q 922 340 896 268 q 949 492 949 411 q 922 644 949 572 q 847 768 896 715 q 731 852 799 821 q 578 883 663 883 q 425 852 493 883 q 308 768 357 821 q 233 644 260 715 q 207 492 207 572 q 233 340 207 411 q 308 215 260 268 q 425 131 357 163 q 578 100 493 100 m 781 1094 l 381 1094 l 381 1186 l 781 1186 l 781 1094 z "},"ō":{"ha":825,"x_min":63,"x_max":763,"o":"m 196 329 q 211 237 196 279 q 254 165 226 194 q 322 117 282 135 q 413 100 363 100 q 503 117 463 100 q 571 165 543 135 q 614 237 599 194 q 629 329 629 279 q 614 422 629 379 q 571 494 599 464 q 503 541 543 524 q 413 558 463 558 q 322 541 363 558 q 254 494 282 524 q 211 422 226 464 q 196 329 196 379 m 63 329 q 90 464 63 401 q 164 574 117 526 q 275 648 211 621 q 413 675 339 675 q 550 648 486 675 q 661 574 614 621 q 735 464 708 526 q 763 329 763 401 q 735 194 763 257 q 661 84 708 131 q 550 10 614 38 q 413 -17 486 -17 q 275 10 339 -17 q 164 84 211 38 q 90 194 117 131 q 63 329 63 257 m 614 833 l 214 833 l 214 925 l 614 925 l 614 833 z "},"Ŏ":{"ha":1156,"x_min":65,"x_max":1090,"o":"m 578 -25 q 371 15 465 -25 q 209 124 276 54 q 103 288 142 193 q 65 492 65 382 q 103 696 65 601 q 209 860 142 790 q 371 969 276 929 q 578 1008 465 1008 q 785 969 690 1008 q 947 860 879 929 q 1052 696 1014 790 q 1090 492 1090 601 q 1052 288 1090 382 q 947 124 1014 193 q 785 15 879 54 q 578 -25 690 -25 m 578 100 q 731 131 663 100 q 847 215 799 163 q 922 340 896 268 q 949 492 949 411 q 922 644 949 572 q 847 768 896 715 q 731 852 799 821 q 578 883 663 883 q 425 852 493 883 q 308 768 357 821 q 233 644 260 715 q 207 492 207 572 q 233 340 207 411 q 308 215 260 268 q 425 131 357 163 q 578 100 493 100 m 436 1244 q 487 1168 446 1192 q 579 1144 528 1144 q 672 1168 631 1144 q 722 1244 713 1192 l 796 1244 q 729 1101 789 1149 q 578 1053 669 1053 q 426 1101 486 1053 q 360 1244 367 1149 l 436 1244 z "},"ŏ":{"ha":825,"x_min":63,"x_max":763,"o":"m 196 329 q 211 237 196 279 q 254 165 226 194 q 322 117 282 135 q 413 100 363 100 q 503 117 463 100 q 571 165 543 135 q 614 237 599 194 q 629 329 629 279 q 614 422 629 379 q 571 494 599 464 q 503 541 543 524 q 413 558 463 558 q 322 541 363 558 q 254 494 282 524 q 211 422 226 464 q 196 329 196 379 m 63 329 q 90 464 63 401 q 164 574 117 526 q 275 648 211 621 q 413 675 339 675 q 550 648 486 675 q 661 574 614 621 q 735 464 708 526 q 763 329 763 401 q 735 194 763 257 q 661 84 708 131 q 550 10 614 38 q 413 -17 486 -17 q 275 10 339 -17 q 164 84 211 38 q 90 194 117 131 q 63 329 63 257 m 274 975 q 324 899 283 922 q 417 875 365 875 q 509 899 468 875 q 560 975 550 922 l 633 975 q 567 831 626 879 q 415 783 507 783 q 264 831 324 783 q 197 975 204 879 l 274 975 z "},"Ő":{"ha":1156,"x_min":65,"x_max":1090,"o":"m 578 -25 q 371 15 465 -25 q 209 124 276 54 q 103 288 142 193 q 65 492 65 382 q 103 696 65 601 q 209 860 142 790 q 371 969 276 929 q 578 1008 465 1008 q 785 969 690 1008 q 947 860 879 929 q 1052 696 1014 790 q 1090 492 1090 601 q 1052 288 1090 382 q 947 124 1014 193 q 785 15 879 54 q 578 -25 690 -25 m 578 100 q 731 131 663 100 q 847 215 799 163 q 922 340 896 268 q 949 492 949 411 q 922 644 949 572 q 847 768 896 715 q 731 852 799 821 q 578 883 663 883 q 425 852 493 883 q 308 768 357 821 q 233 644 260 715 q 207 492 207 572 q 233 340 207 411 q 308 215 260 268 q 425 131 357 163 q 578 100 493 100 m 513 1256 l 689 1256 l 482 1056 l 368 1056 l 513 1256 m 747 1256 l 924 1256 l 717 1056 l 603 1056 l 747 1256 z "},"ő":{"ha":825,"x_min":63,"x_max":763,"o":"m 196 329 q 211 237 196 279 q 254 165 226 194 q 322 117 282 135 q 413 100 363 100 q 503 117 463 100 q 571 165 543 135 q 614 237 599 194 q 629 329 629 279 q 614 422 629 379 q 571 494 599 464 q 503 541 543 524 q 413 558 463 558 q 322 541 363 558 q 254 494 282 524 q 211 422 226 464 q 196 329 196 379 m 63 329 q 90 464 63 401 q 164 574 117 526 q 275 648 211 621 q 413 675 339 675 q 550 648 486 675 q 661 574 614 621 q 735 464 708 526 q 763 329 763 401 q 735 194 763 257 q 661 84 708 131 q 550 10 614 38 q 413 -17 486 -17 q 275 10 339 -17 q 164 84 211 38 q 90 194 117 131 q 63 329 63 257 m 336 983 l 513 983 l 306 783 l 192 783 l 336 983 m 571 983 l 747 983 l 540 783 l 426 783 l 571 983 z "},"Œ":{"ha":1363,"x_min":81,"x_max":1282,"o":"m 1282 0 l 649 0 q 407 37 513 0 q 228 139 301 74 q 118 294 156 204 q 81 492 81 385 q 119 694 81 603 q 232 849 158 785 q 410 949 306 914 q 649 983 515 983 l 1265 983 l 1265 858 l 857 858 l 857 565 l 1240 565 l 1240 440 l 857 440 l 857 125 l 1282 125 l 1282 0 m 724 858 l 639 858 q 458 828 536 858 q 328 749 381 799 q 249 632 276 699 q 222 492 222 565 q 249 347 222 414 q 328 230 276 279 q 458 153 381 181 q 639 125 536 125 l 724 125 l 724 858 z "},"œ":{"ha":1286,"x_min":54,"x_max":1232,"o":"m 1206 119 q 929 -17 1111 -17 q 775 13 849 -17 q 660 111 701 43 q 627 71 647 93 q 576 29 607 49 q 499 -3 544 10 q 389 -17 453 -17 q 247 10 310 -17 q 142 83 185 36 q 76 192 99 129 q 54 329 54 256 q 79 467 54 404 q 149 576 104 531 q 257 649 194 622 q 396 675 319 675 q 547 644 482 675 q 663 549 613 614 q 703 593 679 571 q 758 633 726 615 q 830 663 789 651 q 922 675 871 675 q 1050 651 993 675 q 1147 583 1107 626 q 1210 478 1188 539 q 1232 344 1232 418 l 1232 283 l 733 283 q 744 213 733 247 q 780 151 756 178 q 842 108 804 124 q 932 92 879 92 q 1033 117 992 92 q 1103 188 1075 143 l 1206 119 m 1099 383 q 1086 453 1097 418 q 1053 515 1075 488 q 997 558 1031 542 q 919 575 964 575 q 840 556 875 575 q 782 510 806 538 q 746 448 758 482 q 733 383 733 414 l 1099 383 m 608 329 q 597 417 608 374 q 560 493 585 460 q 495 547 535 526 q 400 567 456 567 q 307 548 347 567 q 240 497 267 529 q 201 422 214 465 q 188 329 188 379 q 201 238 188 281 q 240 162 214 194 q 303 110 265 129 q 389 92 340 92 q 495 112 453 92 q 563 165 538 132 q 598 242 588 199 q 608 329 608 285 z "},"Ŕ":{"ha":849,"x_min":126,"x_max":825,"o":"m 126 983 l 472 983 q 628 958 567 983 q 724 892 689 932 q 774 803 760 853 q 788 708 788 754 q 771 617 788 661 q 723 538 754 574 q 647 478 692 503 q 546 449 601 454 l 825 0 l 658 0 l 408 433 l 260 433 l 260 0 l 126 0 l 126 983 m 260 550 l 435 550 q 512 556 474 550 q 580 579 550 563 q 628 627 610 596 q 646 708 646 658 q 628 790 646 758 q 580 838 610 821 q 512 860 550 854 q 435 867 474 867 l 260 867 l 260 550 m 475 1256 l 653 1256 l 446 1056 l 331 1056 l 475 1256 z "},"ŕ":{"ha":514,"x_min":94,"x_max":486,"o":"m 94 658 l 219 658 l 219 557 l 222 557 q 256 605 235 583 q 302 642 276 626 q 358 666 328 657 q 419 675 389 675 q 475 667 450 675 l 469 532 q 439 539 454 536 q 408 542 424 542 q 268 490 317 542 q 219 331 219 439 l 219 0 l 94 0 l 94 658 m 308 983 l 486 983 l 279 783 l 164 783 l 308 983 z "},"Ŗ":{"ha":849,"x_min":126,"x_max":825,"o":"m 126 983 l 472 983 q 628 958 567 983 q 724 892 689 932 q 774 803 760 853 q 788 708 788 754 q 771 617 788 661 q 723 538 754 574 q 647 478 692 503 q 546 449 601 454 l 825 0 l 658 0 l 408 433 l 260 433 l 260 0 l 126 0 l 126 983 m 260 550 l 435 550 q 512 556 474 550 q 580 579 550 563 q 628 627 610 596 q 646 708 646 658 q 628 790 646 758 q 580 838 610 821 q 512 860 550 854 q 435 867 474 867 l 260 867 l 260 550 m 410 -326 l 300 -326 l 389 -62 l 518 -62 l 410 -326 z "},"ŗ":{"ha":514,"x_min":10,"x_max":475,"o":"m 94 658 l 219 658 l 219 557 l 222 557 q 256 605 235 583 q 302 642 276 626 q 358 666 328 657 q 419 675 389 675 q 475 667 450 675 l 469 532 q 439 539 454 536 q 408 542 424 542 q 268 490 317 542 q 219 331 219 439 l 219 0 l 94 0 l 94 658 m 119 -326 l 10 -326 l 99 -62 l 228 -62 l 119 -326 z "},"Ř":{"ha":849,"x_min":126,"x_max":825,"o":"m 126 983 l 472 983 q 628 958 567 983 q 724 892 689 932 q 774 803 760 853 q 788 708 788 754 q 771 617 788 661 q 723 538 754 574 q 647 478 692 503 q 546 449 601 454 l 825 0 l 658 0 l 408 433 l 260 433 l 260 0 l 126 0 l 126 983 m 260 550 l 435 550 q 512 556 474 550 q 580 579 550 563 q 628 627 610 596 q 646 708 646 658 q 628 790 646 758 q 580 838 610 821 q 512 860 550 854 q 435 867 474 867 l 260 867 l 260 550 m 179 1256 l 300 1256 l 408 1122 l 511 1256 l 638 1256 l 482 1056 l 335 1056 l 179 1256 z "},"ř":{"ha":514,"x_min":-4,"x_max":475,"o":"m 94 658 l 219 658 l 219 557 l 222 557 q 256 605 235 583 q 302 642 276 626 q 358 666 328 657 q 419 675 389 675 q 475 667 450 675 l 469 532 q 439 539 454 536 q 408 542 424 542 q 268 490 317 542 q 219 331 219 439 l 219 0 l 94 0 l 94 658 m -4 983 l 117 983 l 225 850 l 328 983 l 454 983 l 299 783 l 151 783 l -4 983 z "},"Ś":{"ha":772,"x_min":46,"x_max":701,"o":"m 156 206 q 248 126 192 151 q 364 100 304 100 q 432 110 397 100 q 495 142 467 121 q 542 193 524 163 q 560 264 560 224 q 524 351 560 321 q 434 401 488 381 q 317 440 381 421 q 201 492 254 458 q 111 581 147 525 q 75 733 75 638 q 94 825 75 776 q 153 914 113 874 q 256 981 193 954 q 408 1008 319 1008 q 563 986 489 1008 q 692 896 636 964 l 583 797 q 513 860 558 836 q 408 883 467 883 q 316 869 353 883 q 257 831 279 854 q 226 782 235 808 q 217 733 217 756 q 253 638 217 671 q 342 583 289 604 q 459 546 396 563 q 576 499 522 529 q 665 419 629 469 q 701 279 701 368 q 674 151 701 208 q 601 56 647 94 q 493 -4 556 17 q 360 -25 431 -25 q 181 8 265 -25 q 46 111 96 42 l 156 206 m 458 1256 l 636 1256 l 429 1056 l 314 1056 l 458 1256 z "},"ś":{"ha":617,"x_min":39,"x_max":560,"o":"m 444 493 q 390 540 422 521 q 310 558 357 558 q 233 540 265 558 q 200 485 200 521 q 219 438 200 456 q 263 408 238 419 q 318 392 289 397 q 368 382 347 386 q 444 358 408 372 q 505 322 479 344 q 545 268 531 300 q 560 190 560 236 q 536 95 560 135 q 475 31 513 56 q 390 -6 438 6 q 293 -17 342 -17 q 149 8 211 -17 q 39 100 88 33 l 133 178 q 201 124 164 147 q 293 100 239 100 q 341 105 317 100 q 384 120 365 110 q 415 147 403 131 q 426 183 426 163 q 409 229 426 211 q 367 258 392 247 q 316 274 343 268 q 268 285 289 281 q 192 307 228 294 q 128 340 156 319 q 83 393 100 361 q 67 472 67 425 q 88 562 67 524 q 145 625 110 600 q 226 663 181 650 q 317 675 271 675 q 444 650 383 675 q 542 567 506 625 l 444 493 m 372 983 l 550 983 l 343 783 l 228 783 l 372 983 z "},"Ŝ":{"ha":772,"x_min":46,"x_max":701,"o":"m 156 206 q 248 126 192 151 q 364 100 304 100 q 432 110 397 100 q 495 142 467 121 q 542 193 524 163 q 560 264 560 224 q 524 351 560 321 q 434 401 488 381 q 317 440 381 421 q 201 492 254 458 q 111 581 147 525 q 75 733 75 638 q 94 825 75 776 q 153 914 113 874 q 256 981 193 954 q 408 1008 319 1008 q 563 986 489 1008 q 692 896 636 964 l 583 797 q 513 860 558 836 q 408 883 467 883 q 316 869 353 883 q 257 831 279 854 q 226 782 235 808 q 217 733 217 756 q 253 638 217 671 q 342 583 289 604 q 459 546 396 563 q 576 499 522 529 q 665 419 629 469 q 701 279 701 368 q 674 151 701 208 q 601 56 647 94 q 493 -4 556 17 q 360 -25 431 -25 q 181 8 265 -25 q 46 111 96 42 l 156 206 m 504 1056 l 401 1189 l 299 1056 l 172 1056 l 328 1256 l 475 1256 l 631 1056 l 504 1056 z "},"ŝ":{"ha":617,"x_min":39,"x_max":560,"o":"m 444 493 q 390 540 422 521 q 310 558 357 558 q 233 540 265 558 q 200 485 200 521 q 219 438 200 456 q 263 408 238 419 q 318 392 289 397 q 368 382 347 386 q 444 358 408 372 q 505 322 479 344 q 545 268 531 300 q 560 190 560 236 q 536 95 560 135 q 475 31 513 56 q 390 -6 438 6 q 293 -17 342 -17 q 149 8 211 -17 q 39 100 88 33 l 133 178 q 201 124 164 147 q 293 100 239 100 q 341 105 317 100 q 384 120 365 110 q 415 147 403 131 q 426 183 426 163 q 409 229 426 211 q 367 258 392 247 q 316 274 343 268 q 268 285 289 281 q 192 307 228 294 q 128 340 156 319 q 83 393 100 361 q 67 472 67 425 q 88 562 67 524 q 145 625 110 600 q 226 663 181 650 q 317 675 271 675 q 444 650 383 675 q 542 567 506 625 l 444 493 m 418 783 l 315 917 l 213 783 l 86 783 l 242 983 l 389 983 l 544 783 l 418 783 z "},"Ş":{"ha":772,"x_min":46,"x_max":701,"o":"m 238 -229 q 346 -250 289 -250 q 373 -247 358 -250 q 401 -238 388 -244 q 422 -221 414 -232 q 431 -192 431 -210 q 417 -153 431 -165 q 385 -137 404 -140 q 342 -137 365 -133 q 300 -146 319 -140 l 271 -121 l 338 -25 q 181 8 256 -21 q 46 111 96 42 l 156 206 q 248 126 192 151 q 364 100 304 100 q 432 110 397 100 q 495 142 467 121 q 542 193 524 163 q 560 264 560 224 q 524 351 560 321 q 434 401 488 381 q 317 440 381 421 q 201 492 254 458 q 111 581 147 525 q 75 733 75 638 q 94 825 75 776 q 153 914 113 874 q 256 981 193 954 q 408 1008 319 1008 q 563 986 489 1008 q 692 896 636 964 l 583 797 q 513 860 558 836 q 408 883 467 883 q 316 869 353 883 q 257 831 279 854 q 226 782 235 808 q 217 733 217 756 q 253 638 217 671 q 342 583 289 604 q 459 546 396 563 q 576 499 522 529 q 665 419 629 469 q 701 279 701 368 q 674 151 701 208 q 601 56 647 94 q 493 -4 556 17 q 407 -22 451 -18 l 363 -85 l 403 -85 q 449 -90 426 -85 q 490 -108 472 -96 q 519 -140 508 -121 q 531 -185 531 -158 q 515 -247 531 -222 q 474 -287 499 -272 q 417 -310 449 -303 q 357 -317 386 -317 q 283 -309 319 -317 q 211 -285 246 -301 l 238 -229 z "},"ş":{"ha":617,"x_min":39,"x_max":560,"o":"m 167 -229 q 275 -250 218 -250 q 302 -247 288 -250 q 330 -238 317 -244 q 351 -221 343 -232 q 360 -192 360 -210 q 347 -153 360 -165 q 314 -137 333 -140 q 272 -137 294 -133 q 229 -146 249 -140 l 200 -121 l 272 -17 q 149 8 203 -12 q 39 100 88 33 l 133 178 q 201 124 164 147 q 293 100 239 100 q 341 105 317 100 q 384 120 365 110 q 415 147 403 131 q 426 183 426 163 q 409 229 426 211 q 367 258 392 247 q 316 274 343 268 q 268 285 289 281 q 192 307 228 294 q 128 340 156 319 q 83 393 100 361 q 67 472 67 425 q 88 562 67 524 q 145 625 110 600 q 226 663 181 650 q 317 675 271 675 q 444 650 383 675 q 542 567 506 625 l 444 493 q 390 540 422 521 q 310 558 357 558 q 233 540 265 558 q 200 485 200 521 q 219 438 200 456 q 263 408 238 419 q 318 392 289 397 q 368 382 347 386 q 444 358 408 372 q 505 322 479 344 q 545 268 531 300 q 560 190 560 236 q 536 95 560 135 q 475 31 513 56 q 389 -6 438 6 q 343 -14 367 -11 l 292 -85 l 332 -85 q 378 -90 356 -85 q 419 -108 401 -96 q 449 -140 438 -121 q 460 -185 460 -158 q 444 -247 460 -222 q 403 -287 428 -272 q 347 -310 378 -303 q 286 -317 315 -317 q 212 -309 249 -317 q 140 -285 175 -301 l 167 -229 z "},"Š":{"ha":772,"x_min":46,"x_max":701,"o":"m 156 206 q 248 126 192 151 q 364 100 304 100 q 432 110 397 100 q 495 142 467 121 q 542 193 524 163 q 560 264 560 224 q 524 351 560 321 q 434 401 488 381 q 317 440 381 421 q 201 492 254 458 q 111 581 147 525 q 75 733 75 638 q 94 825 75 776 q 153 914 113 874 q 256 981 193 954 q 408 1008 319 1008 q 563 986 489 1008 q 692 896 636 964 l 583 797 q 513 860 558 836 q 408 883 467 883 q 316 869 353 883 q 257 831 279 854 q 226 782 235 808 q 217 733 217 756 q 253 638 217 671 q 342 583 289 604 q 459 546 396 563 q 576 499 522 529 q 665 419 629 469 q 701 279 701 368 q 674 151 701 208 q 601 56 647 94 q 493 -4 556 17 q 360 -25 431 -25 q 181 8 265 -25 q 46 111 96 42 l 156 206 m 157 1239 l 278 1239 l 386 1106 l 489 1239 l 615 1239 l 460 1039 l 313 1039 l 157 1239 z "},"š":{"ha":617,"x_min":39,"x_max":560,"o":"m 444 493 q 390 540 422 521 q 310 558 357 558 q 233 540 265 558 q 200 485 200 521 q 219 438 200 456 q 263 408 238 419 q 318 392 289 397 q 368 382 347 386 q 444 358 408 372 q 505 322 479 344 q 545 268 531 300 q 560 190 560 236 q 536 95 560 135 q 475 31 513 56 q 390 -6 438 6 q 293 -17 342 -17 q 149 8 211 -17 q 39 100 88 33 l 133 178 q 201 124 164 147 q 293 100 239 100 q 341 105 317 100 q 384 120 365 110 q 415 147 403 131 q 426 183 426 163 q 409 229 426 211 q 367 258 392 247 q 316 274 343 268 q 268 285 289 281 q 192 307 228 294 q 128 340 156 319 q 83 393 100 361 q 67 472 67 425 q 88 562 67 524 q 145 625 110 600 q 226 663 181 650 q 317 675 271 675 q 444 650 383 675 q 542 567 506 625 l 444 493 m 79 983 l 200 983 l 308 850 l 411 983 l 538 983 l 382 783 l 235 783 l 79 983 z "},"Ţ":{"ha":797,"x_min":15,"x_max":782,"o":"m 332 858 l 15 858 l 15 983 l 782 983 l 782 858 l 465 858 l 465 0 l 332 0 l 332 858 m 249 -229 q 357 -250 300 -250 q 384 -247 369 -250 q 412 -238 399 -244 q 433 -221 425 -232 q 442 -192 442 -210 q 428 -153 442 -165 q 396 -137 415 -140 q 353 -137 376 -133 q 311 -146 331 -140 l 282 -121 l 367 0 l 435 0 l 374 -85 l 414 -85 q 460 -90 438 -85 q 501 -108 483 -96 q 531 -140 519 -121 q 542 -185 542 -158 q 526 -247 542 -222 q 485 -287 510 -272 q 428 -310 460 -303 q 368 -317 397 -317 q 294 -309 331 -317 q 222 -285 257 -301 l 249 -229 z "},"ţ":{"ha":514,"x_min":-1,"x_max":451,"o":"m 447 550 l 268 550 l 268 251 q 269 197 268 224 q 280 148 271 169 q 308 113 289 126 q 363 100 326 100 q 408 104 385 100 q 451 119 432 108 l 451 6 q 394 -12 429 -7 q 339 -17 358 -17 q 227 3 267 -17 q 169 56 188 24 q 147 127 150 88 q 143 207 143 167 l 143 550 l -1 550 l -1 658 l 143 658 l 143 843 l 268 843 l 268 658 l 447 658 l 447 550 m 154 -229 q 263 -250 206 -250 q 290 -247 275 -250 q 317 -238 304 -244 q 339 -221 331 -232 q 347 -192 347 -210 q 334 -153 347 -165 q 301 -137 321 -140 q 259 -137 282 -133 q 217 -146 236 -140 l 188 -121 l 272 0 l 340 0 l 279 -85 l 319 -85 q 366 -90 343 -85 q 407 -108 389 -96 q 436 -140 425 -121 q 447 -185 447 -158 q 431 -247 447 -222 q 390 -287 415 -272 q 334 -310 365 -303 q 274 -317 303 -317 q 199 -309 236 -317 q 128 -285 163 -301 l 154 -229 z "},"Ť":{"ha":797,"x_min":15,"x_max":782,"o":"m 332 858 l 15 858 l 15 983 l 782 983 l 782 858 l 465 858 l 465 0 l 332 0 l 332 858 m 169 1256 l 290 1256 l 399 1122 l 501 1256 l 628 1256 l 472 1056 l 325 1056 l 169 1256 z "},"ť":{"ha":514,"x_min":-1,"x_max":556,"o":"m 447 550 l 268 550 l 268 251 q 269 197 268 224 q 280 148 271 169 q 308 113 289 126 q 363 100 326 100 q 408 104 385 100 q 451 119 432 108 l 451 6 q 394 -12 429 -7 q 339 -17 358 -17 q 227 3 267 -17 q 169 56 188 24 q 147 127 150 88 q 143 207 143 167 l 143 550 l -1 550 l -1 658 l 143 658 l 143 843 l 268 843 l 268 658 l 447 658 l 447 550 m 447 719 l 338 719 l 426 983 l 556 983 l 447 719 z "},"Ŧ":{"ha":797,"x_min":15,"x_max":782,"o":"m 753 668 l 753 568 l 465 568 l 465 0 l 332 0 l 332 568 l 53 568 l 53 668 l 332 668 l 332 858 l 15 858 l 15 983 l 782 983 l 782 858 l 465 858 l 465 668 l 753 668 z "},"ŧ":{"ha":514,"x_min":-1,"x_max":451,"o":"m 447 550 l 268 550 l 268 432 l 422 432 l 422 344 l 268 344 l 268 251 q 269 197 268 224 q 280 148 271 169 q 308 113 289 126 q 363 100 326 100 q 408 104 385 100 q 451 119 432 108 l 451 6 q 394 -12 429 -7 q 339 -17 358 -17 q 227 3 267 -17 q 169 56 188 24 q 147 127 150 88 q 143 207 143 167 l 143 344 l 35 344 l 35 432 l 143 432 l 143 550 l -1 550 l -1 658 l 143 658 l 143 843 l 268 843 l 268 658 l 447 658 l 447 550 z "},"Ũ":{"ha":978,"x_min":108,"x_max":869,"o":"m 242 983 l 242 381 q 254 285 242 335 q 296 194 267 236 q 372 126 325 153 q 489 100 419 100 q 606 126 558 100 q 682 194 653 153 q 724 285 711 236 q 736 381 736 335 l 736 983 l 869 983 l 869 360 q 840 203 869 274 q 760 82 811 133 q 639 3 708 31 q 489 -25 569 -25 q 339 3 408 -25 q 218 82 269 31 q 138 203 167 133 q 108 360 108 274 l 108 983 l 242 983 m 256 1069 q 271 1122 260 1096 q 299 1169 282 1149 q 341 1201 317 1189 q 396 1214 365 1214 q 456 1203 428 1214 q 513 1182 485 1193 q 549 1166 533 1174 q 588 1158 565 1158 q 632 1176 615 1158 q 656 1219 649 1194 l 722 1219 q 708 1167 718 1193 q 683 1121 699 1142 q 645 1088 668 1100 q 592 1075 622 1075 q 534 1084 563 1075 q 479 1104 506 1093 q 435 1122 458 1113 q 388 1131 411 1131 q 345 1112 361 1131 q 322 1069 329 1093 l 256 1069 z "},"ũ":{"ha":772,"x_min":94,"x_max":678,"o":"m 678 0 l 553 0 l 553 101 l 550 101 q 468 16 526 49 q 333 -17 410 -17 q 242 -2 285 -17 q 166 43 199 13 q 114 122 133 74 q 94 235 94 169 l 94 658 l 219 658 l 219 269 q 232 191 219 224 q 265 138 244 158 q 313 109 286 118 q 369 100 340 100 q 442 113 408 100 q 500 152 475 125 q 539 221 525 179 q 553 319 553 263 l 553 658 l 678 658 l 678 0 m 157 800 q 172 853 161 826 q 201 899 183 879 q 242 932 218 919 q 297 944 267 944 q 358 934 329 944 q 414 913 386 924 q 451 897 435 904 q 489 889 467 889 q 533 907 517 889 q 557 950 550 925 l 624 950 q 610 898 619 924 q 585 851 600 872 q 547 818 569 831 q 493 806 524 806 q 435 815 464 806 q 381 835 407 824 q 336 852 360 843 q 289 861 313 861 q 247 842 263 861 q 224 800 231 824 l 157 800 z "},"Ū":{"ha":978,"x_min":108,"x_max":869,"o":"m 242 983 l 242 381 q 254 285 242 335 q 296 194 267 236 q 372 126 325 153 q 489 100 419 100 q 606 126 558 100 q 682 194 653 153 q 724 285 711 236 q 736 381 736 335 l 736 983 l 869 983 l 869 360 q 840 203 869 274 q 760 82 811 133 q 639 3 708 31 q 489 -25 569 -25 q 339 3 408 -25 q 218 82 269 31 q 138 203 167 133 q 108 360 108 274 l 108 983 l 242 983 m 679 1094 l 279 1094 l 279 1186 l 679 1186 l 679 1094 z "},"ū":{"ha":772,"x_min":94,"x_max":678,"o":"m 678 0 l 553 0 l 553 101 l 550 101 q 468 16 526 49 q 333 -17 410 -17 q 242 -2 285 -17 q 166 43 199 13 q 114 122 133 74 q 94 235 94 169 l 94 658 l 219 658 l 219 269 q 232 191 219 224 q 265 138 244 158 q 313 109 286 118 q 369 100 340 100 q 442 113 408 100 q 500 152 475 125 q 539 221 525 179 q 553 319 553 263 l 553 658 l 678 658 l 678 0 m 585 833 l 185 833 l 185 925 l 585 925 l 585 833 z "},"Ŭ":{"ha":978,"x_min":108,"x_max":869,"o":"m 242 983 l 242 381 q 254 285 242 335 q 296 194 267 236 q 372 126 325 153 q 489 100 419 100 q 606 126 558 100 q 682 194 653 153 q 724 285 711 236 q 736 381 736 335 l 736 983 l 869 983 l 869 360 q 840 203 869 274 q 760 82 811 133 q 639 3 708 31 q 489 -25 569 -25 q 339 3 408 -25 q 218 82 269 31 q 138 203 167 133 q 108 360 108 274 l 108 983 l 242 983 m 338 1244 q 388 1168 347 1192 q 481 1144 429 1144 q 573 1168 532 1144 q 624 1244 614 1192 l 697 1244 q 631 1101 690 1149 q 479 1053 571 1053 q 328 1101 388 1053 q 261 1244 268 1149 l 338 1244 z "},"ŭ":{"ha":772,"x_min":94,"x_max":678,"o":"m 678 0 l 553 0 l 553 101 l 550 101 q 468 16 526 49 q 333 -17 410 -17 q 242 -2 285 -17 q 166 43 199 13 q 114 122 133 74 q 94 235 94 169 l 94 658 l 219 658 l 219 269 q 232 191 219 224 q 265 138 244 158 q 313 109 286 118 q 369 100 340 100 q 442 113 408 100 q 500 152 475 125 q 539 221 525 179 q 553 319 553 263 l 553 658 l 678 658 l 678 0 m 247 975 q 298 899 257 922 q 390 875 339 875 q 483 899 442 875 q 533 975 524 922 l 607 975 q 540 831 600 879 q 389 783 481 783 q 238 831 297 783 q 171 975 178 879 l 247 975 z "},"Ů":{"ha":978,"x_min":108,"x_max":869,"o":"m 242 983 l 242 381 q 254 285 242 335 q 296 194 267 236 q 372 126 325 153 q 489 100 419 100 q 606 126 558 100 q 682 194 653 153 q 724 285 711 236 q 736 381 736 335 l 736 983 l 869 983 l 869 360 q 840 203 869 274 q 760 82 811 133 q 639 3 708 31 q 489 -25 569 -25 q 339 3 408 -25 q 218 82 269 31 q 138 203 167 133 q 108 360 108 274 l 108 983 l 242 983 m 340 1160 q 352 1214 340 1189 q 383 1258 364 1239 q 428 1287 403 1276 q 482 1297 454 1297 q 537 1287 511 1297 q 582 1258 563 1276 q 613 1215 601 1239 q 624 1161 624 1190 q 613 1107 624 1132 q 582 1063 601 1082 q 537 1034 563 1044 q 482 1024 511 1024 q 428 1034 454 1024 q 383 1063 403 1044 q 352 1106 364 1082 q 340 1160 340 1131 m 565 1160 q 540 1217 565 1194 q 482 1239 515 1239 q 424 1217 449 1239 q 399 1160 399 1194 q 424 1104 399 1126 q 482 1082 450 1082 q 540 1104 514 1082 q 565 1160 565 1126 z "},"ů":{"ha":772,"x_min":94,"x_max":678,"o":"m 678 0 l 553 0 l 553 101 l 550 101 q 468 16 526 49 q 333 -17 410 -17 q 242 -2 285 -17 q 166 43 199 13 q 114 122 133 74 q 94 235 94 169 l 94 658 l 219 658 l 219 269 q 232 191 219 224 q 265 138 244 158 q 313 109 286 118 q 369 100 340 100 q 442 113 408 100 q 500 152 475 125 q 539 221 525 179 q 553 319 553 263 l 553 658 l 678 658 l 678 0 m 240 904 q 252 958 240 933 q 283 1002 264 983 q 328 1031 303 1021 q 382 1042 354 1042 q 437 1031 411 1042 q 482 1002 463 1021 q 513 959 501 983 q 524 906 524 935 q 513 851 524 876 q 482 808 501 826 q 437 778 463 789 q 382 768 411 768 q 328 778 354 768 q 283 808 303 789 q 252 851 264 826 q 240 904 240 875 m 465 904 q 440 961 465 939 q 382 983 415 983 q 324 961 349 983 q 299 904 299 939 q 324 849 299 871 q 382 826 350 826 q 440 849 414 826 q 465 904 465 871 z "},"Ű":{"ha":978,"x_min":108,"x_max":869,"o":"m 242 983 l 242 381 q 254 285 242 335 q 296 194 267 236 q 372 126 325 153 q 489 100 419 100 q 606 126 558 100 q 682 194 653 153 q 724 285 711 236 q 736 381 736 335 l 736 983 l 869 983 l 869 360 q 840 203 869 274 q 760 82 811 133 q 639 3 708 31 q 489 -25 569 -25 q 339 3 408 -25 q 218 82 269 31 q 138 203 167 133 q 108 360 108 274 l 108 983 l 242 983 m 421 1256 l 597 1256 l 390 1056 l 276 1056 l 421 1256 m 656 1256 l 832 1256 l 625 1056 l 511 1056 l 656 1256 z "},"ű":{"ha":772,"x_min":94,"x_max":722,"o":"m 678 0 l 553 0 l 553 101 l 550 101 q 468 16 526 49 q 333 -17 410 -17 q 242 -2 285 -17 q 166 43 199 13 q 114 122 133 74 q 94 235 94 169 l 94 658 l 219 658 l 219 269 q 232 191 219 224 q 265 138 244 158 q 313 109 286 118 q 369 100 340 100 q 442 113 408 100 q 500 152 475 125 q 539 221 525 179 q 553 319 553 263 l 553 658 l 678 658 l 678 0 m 311 983 l 488 983 l 281 783 l 167 783 l 311 983 m 546 983 l 722 983 l 515 783 l 401 783 l 546 983 z "},"Ų":{"ha":978,"x_min":108,"x_max":869,"o":"m 639 -258 q 578 -295 611 -283 q 513 -307 544 -307 q 418 -277 458 -307 q 375 -189 378 -247 q 387 -131 375 -160 q 417 -77 399 -103 q 458 -29 436 -51 l 464 -24 q 339 3 397 -21 q 218 82 269 31 q 138 203 167 133 q 108 360 108 274 l 108 983 l 242 983 l 242 381 q 254 285 242 335 q 296 194 267 236 q 372 126 325 153 q 489 100 419 100 q 606 126 558 100 q 682 194 653 153 q 724 285 711 236 q 736 381 736 335 l 736 983 l 869 983 l 869 360 q 840 203 869 274 q 760 82 811 133 q 639 3 708 31 q 550 -21 596 -14 q 546 -25 547 -22 q 512 -69 528 -46 q 485 -117 496 -93 q 475 -164 475 -142 q 498 -210 478 -197 q 543 -224 518 -224 q 578 -216 561 -224 q 608 -197 594 -208 l 639 -258 z "},"ų":{"ha":772,"x_min":94,"x_max":717,"o":"m 717 -258 q 656 -295 689 -283 q 590 -307 622 -307 q 496 -277 536 -307 q 453 -189 456 -247 q 465 -131 453 -160 q 495 -77 476 -103 q 536 -29 514 -51 q 568 0 553 -12 l 553 0 l 553 101 l 550 101 q 468 16 526 49 q 333 -17 410 -17 q 242 -2 285 -17 q 166 43 199 13 q 114 122 133 74 q 94 235 94 169 l 94 658 l 219 658 l 219 269 q 232 191 219 224 q 265 138 244 158 q 313 109 286 118 q 369 100 340 100 q 442 113 408 100 q 500 152 475 125 q 539 221 525 179 q 553 319 553 263 l 553 658 l 678 658 l 678 0 l 646 0 q 624 -25 636 -11 q 590 -69 606 -46 q 563 -117 574 -93 q 553 -164 553 -142 q 576 -210 556 -197 q 621 -224 596 -224 q 656 -216 639 -224 q 686 -197 672 -208 l 717 -258 z "},"Ŵ":{"ha":1336,"x_min":1,"x_max":1335,"o":"m 1 983 l 140 983 l 357 197 l 360 197 l 592 983 l 744 983 l 976 197 l 979 197 l 1196 983 l 1335 983 l 1049 0 l 908 0 l 669 803 l 667 803 l 429 0 l 289 0 l 1 983 m 774 1056 l 671 1189 l 568 1056 l 442 1056 l 597 1256 l 744 1256 l 900 1056 l 774 1056 z "},"ŵ":{"ha":1054,"x_min":15,"x_max":1039,"o":"m 15 658 l 156 658 l 304 167 l 307 167 l 464 658 l 596 658 l 763 167 l 765 167 l 907 658 l 1039 658 l 826 0 l 700 0 l 526 492 l 524 492 l 367 0 l 232 0 l 15 658 m 647 783 l 544 917 l 442 783 l 315 783 l 471 983 l 618 983 l 774 783 l 647 783 z "},"Ŷ":{"ha":850,"x_min":-14,"x_max":864,"o":"m 358 419 l -14 983 l 157 983 l 425 551 l 701 983 l 864 983 l 492 419 l 492 0 l 358 0 l 358 419 m 529 1056 l 426 1189 l 324 1056 l 197 1056 l 353 1256 l 500 1256 l 656 1056 l 529 1056 z "},"ŷ":{"ha":694,"x_min":15,"x_max":679,"o":"m 15 658 l 160 658 l 356 144 l 358 144 l 544 658 l 679 658 l 367 -142 q 332 -220 350 -185 q 289 -281 314 -256 q 228 -319 264 -306 q 142 -333 193 -333 q 85 -330 114 -333 q 31 -315 57 -326 l 46 -201 q 121 -217 83 -217 q 170 -209 150 -217 q 205 -187 190 -201 q 229 -153 219 -172 q 249 -108 239 -133 l 289 -4 l 15 658 m 475 783 l 372 917 l 269 783 l 143 783 l 299 983 l 446 983 l 601 783 l 475 783 z "},"Ÿ":{"ha":850,"x_min":-14,"x_max":864,"o":"m 358 419 l -14 983 l 157 983 l 425 551 l 701 983 l 864 983 l 492 419 l 492 0 l 358 0 l 358 419 m 283 1247 q 342 1225 315 1247 q 369 1168 369 1203 q 345 1106 369 1131 q 283 1081 321 1081 q 222 1106 246 1081 q 197 1168 197 1131 q 224 1225 197 1203 q 283 1247 251 1247 m 567 1247 q 626 1225 599 1247 q 653 1168 653 1203 q 628 1106 653 1131 q 567 1081 604 1081 q 505 1106 529 1081 q 481 1168 481 1131 q 508 1225 481 1203 q 567 1247 535 1247 z "},"Ź":{"ha":824,"x_min":44,"x_max":779,"o":"m 44 125 l 604 858 l 61 858 l 61 983 l 771 983 l 771 858 l 214 125 l 779 125 l 779 0 l 44 0 l 44 125 m 436 1256 l 614 1256 l 407 1056 l 292 1056 l 436 1256 z "},"ź":{"ha":643,"x_min":49,"x_max":594,"o":"m 49 113 l 422 550 l 61 550 l 61 658 l 575 658 l 575 547 l 199 108 l 594 108 l 594 0 l 49 0 l 49 113 m 365 983 l 543 983 l 336 783 l 221 783 l 365 983 z "},"Ż":{"ha":824,"x_min":44,"x_max":779,"o":"m 44 125 l 604 858 l 61 858 l 61 983 l 771 983 l 771 858 l 214 125 l 779 125 l 779 0 l 44 0 l 44 125 m 400 1079 q 338 1104 363 1079 q 314 1167 314 1129 q 341 1224 314 1201 q 400 1246 368 1246 q 459 1224 432 1246 q 486 1167 486 1201 q 462 1104 486 1129 q 400 1079 438 1079 z "},"ż":{"ha":643,"x_min":49,"x_max":594,"o":"m 49 113 l 422 550 l 61 550 l 61 658 l 575 658 l 575 547 l 199 108 l 594 108 l 594 0 l 49 0 l 49 113 m 331 825 q 269 850 293 825 q 244 913 244 875 q 272 969 244 947 q 331 992 299 992 q 390 969 363 992 q 417 913 417 947 q 392 850 417 875 q 331 825 368 825 z "},"Ž":{"ha":824,"x_min":44,"x_max":779,"o":"m 44 125 l 604 858 l 61 858 l 61 983 l 771 983 l 771 858 l 214 125 l 779 125 l 779 0 l 44 0 l 44 125 m 183 1239 l 304 1239 l 413 1106 l 515 1239 l 642 1239 l 486 1039 l 339 1039 l 183 1239 z "},"ž":{"ha":643,"x_min":49,"x_max":594,"o":"m 49 113 l 422 550 l 61 550 l 61 658 l 575 658 l 575 547 l 199 108 l 594 108 l 594 0 l 49 0 l 49 113 m 93 983 l 214 983 l 322 850 l 425 983 l 551 983 l 396 783 l 249 783 l 93 983 z "},"ƒ":{"ha":772,"x_min":-17,"x_max":738,"o":"m 624 490 l 438 490 l 336 -21 q 262 -151 321 -103 q 118 -200 203 -200 q 45 -190 78 -200 q -17 -165 13 -181 l 36 -67 q 111 -83 79 -83 q 160 -72 142 -83 q 191 -42 179 -60 q 208 -1 203 -24 q 218 40 214 21 l 306 490 l 156 490 l 156 590 l 325 590 l 363 786 q 439 941 382 882 q 575 1000 496 1000 q 663 992 619 1000 q 738 967 706 985 l 682 863 q 649 878 667 874 q 601 883 632 883 q 531 853 565 883 q 483 744 497 822 l 457 590 l 624 590 l 624 490 z "},"ǀ":{"ha":308,"x_min":100,"x_max":208,"o":"m 100 1050 l 208 1050 l 208 -25 l 100 -25 l 100 1050 z "},"ǁ":{"ha":617,"x_min":100,"x_max":517,"o":"m 100 1050 l 208 1050 l 208 -25 l 100 -25 l 100 1050 m 408 1050 l 517 1050 l 517 -25 l 408 -25 l 408 1050 z "},"ǃ":{"ha":386,"x_min":101,"x_max":285,"o":"m 257 283 l 124 283 l 124 983 l 257 983 l 257 283 m 101 83 q 128 148 101 121 q 193 175 156 175 q 258 148 231 175 q 285 83 285 121 q 258 19 285 46 q 193 -8 231 -8 q 128 19 156 -8 q 101 83 101 46 z "},"Ǆ":{"ha":1853,"x_min":104,"x_max":1808,"o":"m 104 983 l 447 983 q 630 960 551 983 q 766 897 708 936 q 862 806 824 857 q 922 700 900 754 q 954 592 944 646 q 964 492 964 538 q 929 309 964 397 q 826 152 894 221 q 658 42 758 83 q 425 0 557 0 l 104 0 l 104 983 m 238 125 l 406 125 q 566 148 490 125 q 699 217 642 171 q 789 331 756 263 q 822 492 822 400 q 807 602 822 539 q 749 722 792 665 q 632 819 707 779 q 438 858 557 858 l 238 858 l 238 125 m 1074 125 l 1633 858 l 1090 858 l 1090 983 l 1800 983 l 1800 858 l 1243 125 l 1808 125 l 1808 0 l 1074 0 l 1074 125 m 1211 1253 l 1332 1253 l 1440 1119 l 1543 1253 l 1669 1253 l 1514 1053 l 1367 1053 l 1211 1253 z "},"ǅ":{"ha":1672,"x_min":104,"x_max":1624,"o":"m 104 983 l 447 983 q 630 960 551 983 q 766 897 708 936 q 862 806 824 857 q 922 700 900 754 q 954 592 944 646 q 964 492 964 538 q 929 309 964 397 q 826 152 894 221 q 658 42 758 83 q 425 0 557 0 l 104 0 l 104 983 m 238 125 l 406 125 q 566 148 490 125 q 699 217 642 171 q 789 331 756 263 q 822 492 822 400 q 807 602 822 539 q 749 722 792 665 q 632 819 707 779 q 438 858 557 858 l 238 858 l 238 125 m 1078 113 l 1451 550 l 1090 550 l 1090 658 l 1604 658 l 1604 547 l 1228 108 l 1624 108 l 1624 0 l 1078 0 l 1078 113 m 1121 929 l 1242 929 l 1350 796 l 1453 929 l 1579 929 l 1424 729 l 1276 729 l 1121 929 z "},"ǆ":{"ha":1492,"x_min":63,"x_max":1443,"o":"m 754 0 l 629 0 l 629 94 l 626 94 q 527 13 590 42 q 397 -17 464 -17 q 259 10 321 -17 q 153 83 197 36 q 86 193 110 131 q 63 329 63 256 q 86 466 63 403 q 153 576 110 529 q 259 649 197 622 q 397 675 321 675 q 531 645 468 675 q 626 564 593 615 l 629 564 l 629 1050 l 754 1050 l 754 0 m 413 100 q 503 117 463 100 q 571 165 543 135 q 614 237 599 194 q 629 329 629 279 q 614 422 629 379 q 571 494 599 464 q 503 541 543 524 q 413 558 463 558 q 322 541 363 558 q 254 494 282 524 q 211 422 226 464 q 196 329 196 379 q 211 237 196 279 q 254 165 226 194 q 322 117 282 135 q 413 100 363 100 m 897 113 l 1271 550 l 910 550 l 910 658 l 1424 658 l 1424 547 l 1047 108 l 1443 108 l 1443 0 l 897 0 l 897 113 m 940 929 l 1061 929 l 1169 796 l 1272 929 l 1399 929 l 1243 729 l 1096 729 l 940 929 z "},"Ǉ":{"ha":1390,"x_min":126,"x_max":1288,"o":"m 126 983 l 260 983 l 260 125 l 711 125 l 711 0 l 126 0 l 126 983 m 1154 983 l 1288 983 l 1288 281 q 1258 128 1288 188 q 1185 35 1229 69 q 1092 -12 1142 1 q 1000 -25 1042 -25 q 824 28 896 -25 q 733 190 753 82 l 864 219 q 910 132 875 164 q 1000 100 944 100 q 1080 119 1050 100 q 1126 170 1110 139 q 1149 242 1143 201 q 1154 324 1154 282 l 1154 983 z "},"ǈ":{"ha":1054,"x_min":126,"x_max":979,"o":"m 126 983 l 260 983 l 260 125 l 711 125 l 711 0 l 126 0 l 126 983 m 950 658 l 950 -94 q 947 -160 950 -119 q 924 -240 943 -201 q 865 -306 906 -278 q 749 -333 824 -333 q 708 -331 728 -333 q 668 -321 688 -328 l 682 -206 q 707 -213 693 -210 q 733 -217 721 -217 q 805 -184 785 -217 q 825 -89 825 -151 l 825 658 l 950 658 m 796 894 q 823 959 796 932 q 888 986 850 986 q 952 959 925 986 q 979 894 979 932 q 952 830 979 857 q 888 803 925 803 q 823 830 850 803 q 796 894 796 857 z "},"ǉ":{"ha":667,"x_min":104,"x_max":592,"o":"m 104 1050 l 229 1050 l 229 0 l 104 0 l 104 1050 m 563 658 l 563 -94 q 559 -160 563 -119 q 537 -240 556 -201 q 477 -306 518 -278 q 361 -333 436 -333 q 320 -331 340 -333 q 281 -321 300 -328 l 294 -206 q 319 -213 306 -210 q 346 -217 333 -217 q 417 -184 397 -217 q 438 -89 438 -151 l 438 658 l 563 658 m 408 894 q 435 959 408 932 q 500 986 463 986 q 565 959 538 986 q 592 894 592 932 q 565 830 592 857 q 500 803 538 803 q 435 830 463 803 q 408 894 408 857 z "},"Ǌ":{"ha":1775,"x_min":126,"x_max":1672,"o":"m 126 983 l 301 983 l 843 175 l 846 175 l 846 983 l 979 983 l 979 0 l 810 0 l 263 808 l 260 808 l 260 0 l 126 0 l 126 983 m 1539 983 l 1672 983 l 1672 281 q 1643 128 1672 188 q 1570 35 1614 69 q 1476 -12 1526 1 q 1385 -25 1426 -25 q 1209 28 1281 -25 q 1118 190 1138 82 l 1249 219 q 1294 132 1260 164 q 1385 100 1329 100 q 1465 119 1435 100 q 1511 170 1494 139 q 1533 242 1528 201 q 1539 324 1539 282 l 1539 983 z "},"ǋ":{"ha":1439,"x_min":126,"x_max":1364,"o":"m 126 983 l 301 983 l 843 175 l 846 175 l 846 983 l 979 983 l 979 0 l 810 0 l 263 808 l 260 808 l 260 0 l 126 0 l 126 983 m 1335 658 l 1335 -94 q 1331 -160 1335 -119 q 1309 -240 1328 -201 q 1249 -306 1290 -278 q 1133 -333 1208 -333 q 1092 -331 1113 -333 q 1053 -321 1072 -328 l 1067 -206 q 1092 -213 1078 -210 q 1118 -217 1106 -217 q 1190 -184 1169 -217 q 1210 -89 1210 -151 l 1210 658 l 1335 658 m 1181 894 q 1208 959 1181 932 q 1272 986 1235 986 q 1337 959 1310 986 q 1364 894 1364 932 q 1337 830 1364 857 q 1272 803 1310 803 q 1208 830 1235 803 q 1181 894 1181 857 z "},"ǌ":{"ha":1106,"x_min":94,"x_max":1031,"o":"m 94 658 l 219 658 l 219 557 l 222 557 q 304 642 246 610 q 439 675 363 675 q 530 660 486 675 q 606 615 574 646 q 658 537 639 585 q 678 424 678 489 l 678 0 l 553 0 l 553 389 q 540 467 553 435 q 507 520 528 500 q 459 549 486 540 q 403 558 432 558 q 331 546 364 558 q 272 506 297 533 q 233 438 247 479 q 219 339 219 396 l 219 0 l 94 0 l 94 658 m 1001 658 l 1001 -94 q 998 -160 1001 -119 q 976 -240 994 -201 q 916 -306 957 -278 q 800 -333 875 -333 q 759 -331 779 -333 q 719 -321 739 -328 l 733 -206 q 758 -213 744 -210 q 785 -217 772 -217 q 856 -184 836 -217 q 876 -89 876 -151 l 876 658 l 1001 658 m 847 894 q 874 959 847 932 q 939 986 901 986 q 1003 959 976 986 q 1031 894 1031 932 q 1003 830 1031 857 q 939 803 976 803 q 874 830 901 803 q 847 894 847 857 z "},"Ǎ":{"ha":978,"x_min":1,"x_max":976,"o":"m 435 983 l 556 983 l 976 0 l 821 0 l 722 243 l 254 243 l 157 0 l 1 0 l 435 983 m 674 360 l 490 811 l 488 811 l 301 360 l 674 360 m 260 1253 l 381 1253 l 489 1119 l 592 1253 l 718 1253 l 563 1053 l 415 1053 l 260 1253 z "},"ǎ":{"ha":721,"x_min":63,"x_max":639,"o":"m 97 578 q 219 651 150 626 q 358 675 289 675 q 483 657 431 675 q 568 608 535 639 q 617 538 601 578 q 633 456 633 499 l 633 119 q 635 56 633 85 q 639 0 636 26 l 528 0 q 524 100 524 50 l 521 100 q 422 10 479 36 q 290 -17 365 -17 q 203 -4 244 -17 q 130 33 161 8 q 81 95 99 58 q 63 181 63 132 q 91 288 63 244 q 169 358 119 331 q 284 397 218 385 q 425 408 350 408 l 517 408 l 517 436 q 507 486 517 461 q 478 531 497 511 q 429 563 458 551 q 360 575 400 575 q 297 568 324 575 q 247 551 269 561 q 207 526 225 540 q 172 500 189 513 l 97 578 m 450 317 q 359 312 406 317 q 274 293 313 307 q 212 254 236 279 q 188 190 188 229 q 226 108 188 133 q 329 83 264 83 q 417 101 381 83 q 475 146 453 118 q 507 208 497 174 q 517 275 517 242 l 517 317 l 450 317 m 121 946 l 242 946 l 350 813 l 453 946 l 579 946 l 424 746 l 276 746 l 121 946 z "},"Ǐ":{"ha":386,"x_min":-36,"x_max":422,"o":"m 126 983 l 260 983 l 260 0 l 126 0 l 126 983 m -36 1253 l 85 1253 l 193 1119 l 296 1253 l 422 1253 l 267 1053 l 119 1053 l -36 1253 z "},"ǐ":{"ha":333,"x_min":-62,"x_max":396,"o":"m 104 658 l 229 658 l 229 0 l 104 0 l 104 658 m -62 929 l 58 929 l 167 796 l 269 929 l 396 929 l 240 729 l 93 729 l -62 929 z "},"Ǒ":{"ha":1156,"x_min":65,"x_max":1090,"o":"m 578 -25 q 371 15 465 -25 q 209 124 276 54 q 103 288 142 193 q 65 492 65 382 q 103 696 65 601 q 209 860 142 790 q 371 969 276 929 q 578 1008 465 1008 q 785 969 690 1008 q 947 860 879 929 q 1052 696 1014 790 q 1090 492 1090 601 q 1052 288 1090 382 q 947 124 1014 193 q 785 15 879 54 q 578 -25 690 -25 m 578 100 q 731 131 663 100 q 847 215 799 163 q 922 340 896 268 q 949 492 949 411 q 922 644 949 572 q 847 768 896 715 q 731 852 799 821 q 578 883 663 883 q 425 852 493 883 q 308 768 357 821 q 233 644 260 715 q 207 492 207 572 q 233 340 207 411 q 308 215 260 268 q 425 131 357 163 q 578 100 493 100 m 349 1278 l 469 1278 l 578 1144 l 681 1278 l 807 1278 l 651 1078 l 504 1078 l 349 1278 z "},"ǒ":{"ha":825,"x_min":63,"x_max":763,"o":"m 196 329 q 211 237 196 279 q 254 165 226 194 q 322 117 282 135 q 413 100 363 100 q 503 117 463 100 q 571 165 543 135 q 614 237 599 194 q 629 329 629 279 q 614 422 629 379 q 571 494 599 464 q 503 541 543 524 q 413 558 463 558 q 322 541 363 558 q 254 494 282 524 q 211 422 226 464 q 196 329 196 379 m 63 329 q 90 464 63 401 q 164 574 117 526 q 275 648 211 621 q 413 675 339 675 q 550 648 486 675 q 661 574 614 621 q 735 464 708 526 q 763 329 763 401 q 735 194 763 257 q 661 84 708 131 q 550 10 614 38 q 413 -17 486 -17 q 275 10 339 -17 q 164 84 211 38 q 90 194 117 131 q 63 329 63 257 m 183 946 l 304 946 l 413 813 l 515 946 l 642 946 l 486 746 l 339 746 l 183 946 z "},"Ǔ":{"ha":978,"x_min":108,"x_max":869,"o":"m 242 983 l 242 381 q 254 285 242 335 q 296 194 267 236 q 372 126 325 153 q 489 100 419 100 q 606 126 558 100 q 682 194 653 153 q 724 285 711 236 q 736 381 736 335 l 736 983 l 869 983 l 869 360 q 840 203 869 274 q 760 82 811 133 q 639 3 708 31 q 489 -25 569 -25 q 339 3 408 -25 q 218 82 269 31 q 138 203 167 133 q 108 360 108 274 l 108 983 l 242 983 m 260 1253 l 381 1253 l 489 1119 l 592 1253 l 718 1253 l 563 1053 l 415 1053 l 260 1253 z "},"ǔ":{"ha":772,"x_min":94,"x_max":678,"o":"m 678 0 l 553 0 l 553 101 l 550 101 q 468 16 526 49 q 333 -17 410 -17 q 242 -2 285 -17 q 166 43 199 13 q 114 122 133 74 q 94 235 94 169 l 94 658 l 219 658 l 219 269 q 232 191 219 224 q 265 138 244 158 q 313 109 286 118 q 369 100 340 100 q 442 113 408 100 q 500 152 475 125 q 539 221 525 179 q 553 319 553 263 l 553 658 l 678 658 l 678 0 m 157 929 l 278 929 l 386 796 l 489 929 l 615 929 l 460 729 l 313 729 l 157 929 z "},"Ǖ":{"ha":978,"x_min":108,"x_max":869,"o":"m 242 983 l 242 381 q 254 285 242 335 q 296 194 267 236 q 372 126 325 153 q 489 100 419 100 q 606 126 558 100 q 682 194 653 153 q 724 285 711 236 q 736 381 736 335 l 736 983 l 869 983 l 869 360 q 840 203 869 274 q 760 82 811 133 q 639 3 708 31 q 489 -25 569 -25 q 339 3 408 -25 q 218 82 269 31 q 138 203 167 133 q 108 360 108 274 l 108 983 l 242 983 m 347 1219 q 406 1197 379 1219 q 433 1140 433 1175 q 409 1078 433 1103 q 347 1053 385 1053 q 285 1078 310 1053 q 261 1140 261 1103 q 288 1197 261 1175 q 347 1219 315 1219 m 631 1219 q 690 1197 663 1219 q 717 1140 717 1175 q 692 1078 717 1103 q 631 1053 668 1053 q 569 1078 593 1053 q 544 1140 544 1103 q 572 1197 544 1175 q 631 1219 599 1219 m 689 1289 l 289 1289 l 289 1381 l 689 1381 l 689 1289 z "},"ǖ":{"ha":772,"x_min":94,"x_max":678,"o":"m 678 0 l 553 0 l 553 101 l 550 101 q 468 16 526 49 q 333 -17 410 -17 q 242 -2 285 -17 q 166 43 199 13 q 114 122 133 74 q 94 235 94 169 l 94 658 l 219 658 l 219 269 q 232 191 219 224 q 265 138 244 158 q 313 109 286 118 q 369 100 340 100 q 442 113 408 100 q 500 152 475 125 q 539 221 525 179 q 553 319 553 263 l 553 658 l 678 658 l 678 0 m 244 896 q 303 874 276 896 q 331 817 331 851 q 306 754 331 779 q 244 729 282 729 q 183 754 207 729 q 158 817 158 779 q 185 874 158 851 q 244 896 213 896 m 528 896 q 587 874 560 896 q 614 817 614 851 q 590 754 614 779 q 528 729 565 729 q 466 754 490 729 q 442 817 442 779 q 469 874 442 851 q 528 896 496 896 m 586 964 l 186 964 l 186 1056 l 586 1056 l 586 964 z "},"Ǘ":{"ha":978,"x_min":108,"x_max":869,"o":"m 242 983 l 242 381 q 254 285 242 335 q 296 194 267 236 q 372 126 325 153 q 489 100 419 100 q 606 126 558 100 q 682 194 653 153 q 724 285 711 236 q 736 381 736 335 l 736 983 l 869 983 l 869 360 q 840 203 869 274 q 760 82 811 133 q 639 3 708 31 q 489 -25 569 -25 q 339 3 408 -25 q 218 82 269 31 q 138 203 167 133 q 108 360 108 274 l 108 983 l 242 983 m 347 1219 q 406 1197 379 1219 q 433 1140 433 1175 q 409 1078 433 1103 q 347 1053 385 1053 q 285 1078 310 1053 q 261 1140 261 1103 q 288 1197 261 1175 q 347 1219 315 1219 m 631 1219 q 690 1197 663 1219 q 717 1140 717 1175 q 692 1078 717 1103 q 631 1053 668 1053 q 569 1078 593 1053 q 544 1140 544 1103 q 572 1197 544 1175 q 631 1219 599 1219 m 542 1489 l 719 1489 l 513 1289 l 397 1289 l 542 1489 z "},"ǘ":{"ha":772,"x_min":94,"x_max":678,"o":"m 678 0 l 553 0 l 553 101 l 550 101 q 468 16 526 49 q 333 -17 410 -17 q 242 -2 285 -17 q 166 43 199 13 q 114 122 133 74 q 94 235 94 169 l 94 658 l 219 658 l 219 269 q 232 191 219 224 q 265 138 244 158 q 313 109 286 118 q 369 100 340 100 q 442 113 408 100 q 500 152 475 125 q 539 221 525 179 q 553 319 553 263 l 553 658 l 678 658 l 678 0 m 244 896 q 303 874 276 896 q 331 817 331 851 q 306 754 331 779 q 244 729 282 729 q 183 754 207 729 q 158 817 158 779 q 185 874 158 851 q 244 896 213 896 m 528 896 q 587 874 560 896 q 614 817 614 851 q 590 754 614 779 q 528 729 565 729 q 466 754 490 729 q 442 817 442 779 q 469 874 442 851 q 528 896 496 896 m 453 1164 l 631 1164 l 424 964 l 308 964 l 453 1164 z "},"Ǚ":{"ha":978,"x_min":108,"x_max":869,"o":"m 242 983 l 242 381 q 254 285 242 335 q 296 194 267 236 q 372 126 325 153 q 489 100 419 100 q 606 126 558 100 q 682 194 653 153 q 724 285 711 236 q 736 381 736 335 l 736 983 l 869 983 l 869 360 q 840 203 869 274 q 760 82 811 133 q 639 3 708 31 q 489 -25 569 -25 q 339 3 408 -25 q 218 82 269 31 q 138 203 167 133 q 108 360 108 274 l 108 983 l 242 983 m 347 1219 q 406 1197 379 1219 q 433 1140 433 1175 q 409 1078 433 1103 q 347 1053 385 1053 q 285 1078 310 1053 q 261 1140 261 1103 q 288 1197 261 1175 q 347 1219 315 1219 m 631 1219 q 690 1197 663 1219 q 717 1140 717 1175 q 692 1078 717 1103 q 631 1053 668 1053 q 569 1078 593 1053 q 544 1140 544 1103 q 572 1197 544 1175 q 631 1219 599 1219 m 260 1489 l 381 1489 l 489 1356 l 592 1489 l 718 1489 l 563 1289 l 415 1289 l 260 1489 z "},"ǚ":{"ha":772,"x_min":94,"x_max":678,"o":"m 678 0 l 553 0 l 553 101 l 550 101 q 468 16 526 49 q 333 -17 410 -17 q 242 -2 285 -17 q 166 43 199 13 q 114 122 133 74 q 94 235 94 169 l 94 658 l 219 658 l 219 269 q 232 191 219 224 q 265 138 244 158 q 313 109 286 118 q 369 100 340 100 q 442 113 408 100 q 500 152 475 125 q 539 221 525 179 q 553 319 553 263 l 553 658 l 678 658 l 678 0 m 244 896 q 303 874 276 896 q 331 817 331 851 q 306 754 331 779 q 244 729 282 729 q 183 754 207 729 q 158 817 158 779 q 185 874 158 851 q 244 896 213 896 m 528 896 q 587 874 560 896 q 614 817 614 851 q 590 754 614 779 q 528 729 565 729 q 466 754 490 729 q 442 817 442 779 q 469 874 442 851 q 528 896 496 896 m 157 1164 l 278 1164 l 386 1031 l 489 1164 l 615 1164 l 460 964 l 313 964 l 157 1164 z "},"Ǜ":{"ha":978,"x_min":108,"x_max":869,"o":"m 242 983 l 242 381 q 254 285 242 335 q 296 194 267 236 q 372 126 325 153 q 489 100 419 100 q 606 126 558 100 q 682 194 653 153 q 724 285 711 236 q 736 381 736 335 l 736 983 l 869 983 l 869 360 q 840 203 869 274 q 760 82 811 133 q 639 3 708 31 q 489 -25 569 -25 q 339 3 408 -25 q 218 82 269 31 q 138 203 167 133 q 108 360 108 274 l 108 983 l 242 983 m 347 1219 q 406 1197 379 1219 q 433 1140 433 1175 q 409 1078 433 1103 q 347 1053 385 1053 q 285 1078 310 1053 q 261 1140 261 1103 q 288 1197 261 1175 q 347 1219 315 1219 m 631 1219 q 690 1197 663 1219 q 717 1140 717 1175 q 692 1078 717 1103 q 631 1053 668 1053 q 569 1078 593 1053 q 544 1140 544 1103 q 572 1197 544 1175 q 631 1219 599 1219 m 567 1289 l 451 1289 l 244 1489 l 422 1489 l 567 1289 z "},"ǜ":{"ha":772,"x_min":94,"x_max":678,"o":"m 678 0 l 553 0 l 553 101 l 550 101 q 468 16 526 49 q 333 -17 410 -17 q 242 -2 285 -17 q 166 43 199 13 q 114 122 133 74 q 94 235 94 169 l 94 658 l 219 658 l 219 269 q 232 191 219 224 q 265 138 244 158 q 313 109 286 118 q 369 100 340 100 q 442 113 408 100 q 500 152 475 125 q 539 221 525 179 q 553 319 553 263 l 553 658 l 678 658 l 678 0 m 244 896 q 303 874 276 896 q 331 817 331 851 q 306 754 331 779 q 244 729 282 729 q 183 754 207 729 q 158 817 158 779 q 185 874 158 851 q 244 896 213 896 m 528 896 q 587 874 560 896 q 614 817 614 851 q 590 754 614 779 q 528 729 565 729 q 466 754 490 729 q 442 817 442 779 q 469 874 442 851 q 528 896 496 896 m 464 964 l 349 964 l 142 1164 l 319 1164 l 464 964 z "},"Ǟ":{"ha":978,"x_min":1,"x_max":976,"o":"m 435 983 l 556 983 l 976 0 l 821 0 l 722 243 l 254 243 l 157 0 l 1 0 l 435 983 m 674 360 l 490 811 l 488 811 l 301 360 l 674 360 m 347 1219 q 406 1197 379 1219 q 433 1140 433 1175 q 409 1078 433 1103 q 347 1053 385 1053 q 285 1078 310 1053 q 261 1140 261 1103 q 288 1197 261 1175 q 347 1219 315 1219 m 631 1219 q 690 1197 663 1219 q 717 1140 717 1175 q 692 1078 717 1103 q 631 1053 668 1053 q 569 1078 593 1053 q 544 1140 544 1103 q 572 1197 544 1175 q 631 1219 599 1219 m 689 1289 l 289 1289 l 289 1381 l 689 1381 l 689 1289 z "},"ǟ":{"ha":721,"x_min":63,"x_max":639,"o":"m 97 578 q 219 651 150 626 q 358 675 289 675 q 483 657 431 675 q 568 608 535 639 q 617 538 601 578 q 633 456 633 499 l 633 119 q 635 56 633 85 q 639 0 636 26 l 528 0 q 524 100 524 50 l 521 100 q 422 10 479 36 q 290 -17 365 -17 q 203 -4 244 -17 q 130 33 161 8 q 81 95 99 58 q 63 181 63 132 q 91 288 63 244 q 169 358 119 331 q 284 397 218 385 q 425 408 350 408 l 517 408 l 517 436 q 507 486 517 461 q 478 531 497 511 q 429 563 458 551 q 360 575 400 575 q 297 568 324 575 q 247 551 269 561 q 207 526 225 540 q 172 500 189 513 l 97 578 m 450 317 q 359 312 406 317 q 274 293 313 307 q 212 254 236 279 q 188 190 188 229 q 226 108 188 133 q 329 83 264 83 q 417 101 381 83 q 475 146 453 118 q 507 208 497 174 q 517 275 517 242 l 517 317 l 450 317 m 208 913 q 267 890 240 913 q 294 833 294 868 q 270 771 294 796 q 208 746 246 746 q 147 771 171 746 q 122 833 122 796 q 149 890 122 868 q 208 913 176 913 m 492 913 q 551 890 524 913 q 578 833 578 868 q 553 771 578 796 q 492 746 529 746 q 430 771 454 746 q 406 833 406 796 q 433 890 406 868 q 492 913 460 913 m 550 981 l 150 981 l 150 1072 l 550 1072 l 550 981 z "},"Ǡ":{"ha":978,"x_min":1,"x_max":976,"o":"m 435 983 l 556 983 l 976 0 l 821 0 l 722 243 l 254 243 l 157 0 l 1 0 l 435 983 m 674 360 l 490 811 l 488 811 l 301 360 l 674 360 m 489 1053 q 427 1078 451 1053 q 403 1140 403 1103 q 430 1197 403 1175 q 489 1219 457 1219 q 548 1197 521 1219 q 575 1140 575 1175 q 551 1078 575 1103 q 489 1053 526 1053 m 689 1289 l 289 1289 l 289 1381 l 689 1381 l 689 1289 z "},"ǡ":{"ha":721,"x_min":63,"x_max":639,"o":"m 97 578 q 219 651 150 626 q 358 675 289 675 q 483 657 431 675 q 568 608 535 639 q 617 538 601 578 q 633 456 633 499 l 633 119 q 635 56 633 85 q 639 0 636 26 l 528 0 q 524 100 524 50 l 521 100 q 422 10 479 36 q 290 -17 365 -17 q 203 -4 244 -17 q 130 33 161 8 q 81 95 99 58 q 63 181 63 132 q 91 288 63 244 q 169 358 119 331 q 284 397 218 385 q 425 408 350 408 l 517 408 l 517 436 q 507 486 517 461 q 478 531 497 511 q 429 563 458 551 q 360 575 400 575 q 297 568 324 575 q 247 551 269 561 q 207 526 225 540 q 172 500 189 513 l 97 578 m 450 317 q 359 312 406 317 q 274 293 313 307 q 212 254 236 279 q 188 190 188 229 q 226 108 188 133 q 329 83 264 83 q 417 101 381 83 q 475 146 453 118 q 507 208 497 174 q 517 275 517 242 l 517 317 l 450 317 m 350 746 q 288 771 313 746 q 264 833 264 796 q 291 890 264 868 q 350 913 318 913 q 409 890 382 913 q 436 833 436 868 q 412 771 436 796 q 350 746 388 746 m 550 981 l 150 981 l 150 1072 l 550 1072 l 550 981 z "},"Ǣ":{"ha":1338,"x_min":-11,"x_max":1275,"o":"m 625 983 l 1258 983 l 1258 858 l 849 858 l 849 565 l 1233 565 l 1233 440 l 849 440 l 849 125 l 1275 125 l 1275 0 l 715 0 l 715 239 l 293 239 l 153 0 l -11 0 l 625 983 m 715 364 l 715 858 l 689 858 l 365 364 l 715 364 m 1110 1053 l 710 1053 l 710 1144 l 1110 1144 l 1110 1053 z "},"ǣ":{"ha":1183,"x_min":54,"x_max":1129,"o":"m 1129 283 l 639 283 q 652 207 639 243 q 691 144 665 171 q 753 100 717 117 q 838 83 790 83 q 940 113 897 83 q 1008 188 983 143 l 1110 111 q 988 10 1051 44 q 835 -25 925 -25 q 689 5 756 -25 q 578 110 622 35 q 466 11 532 47 q 308 -25 400 -25 q 194 -6 242 -25 q 115 42 146 13 q 69 110 83 72 q 54 188 54 149 q 78 284 54 246 q 142 344 103 322 q 230 374 181 365 q 328 383 279 383 l 522 383 l 522 404 q 481 525 522 475 q 357 575 439 575 q 257 556 299 575 q 171 500 215 536 l 93 579 q 215 651 146 626 q 356 675 285 675 q 488 651 424 675 q 592 569 553 628 q 629 606 608 588 q 678 640 650 625 q 741 665 706 656 q 822 675 776 675 q 976 639 917 675 q 1070 551 1036 603 q 1117 441 1104 499 q 1129 342 1129 383 l 1129 283 m 325 283 q 220 260 253 283 q 188 188 188 236 q 228 107 188 139 q 325 75 268 75 q 399 88 364 75 q 462 126 435 101 q 506 185 489 150 q 522 264 522 219 l 522 283 l 325 283 m 996 383 q 985 454 994 421 q 954 513 975 488 q 901 552 933 538 q 821 567 868 567 q 743 552 776 567 q 686 513 710 538 q 651 454 663 488 q 639 383 639 421 l 996 383 m 792 746 l 392 746 l 392 838 l 792 838 l 792 746 z "},"Ǧ":{"ha":1081,"x_min":65,"x_max":964,"o":"m 964 550 l 964 65 q 882 26 928 43 q 787 -2 836 10 q 687 -19 738 -14 q 592 -25 636 -25 q 369 17 467 -25 q 203 129 271 58 q 101 294 136 200 q 65 492 65 388 q 103 696 65 601 q 209 860 142 790 q 371 969 276 929 q 578 1008 465 1008 q 800 974 714 1008 q 944 881 886 940 l 850 779 q 721 860 789 838 q 578 883 653 883 q 425 852 493 883 q 308 768 357 821 q 233 644 260 715 q 207 492 207 572 q 236 337 207 408 q 317 213 265 265 q 438 130 368 160 q 589 100 507 100 q 723 113 660 100 q 831 151 786 126 l 831 425 l 613 425 l 613 550 l 964 550 m 326 1278 l 447 1278 l 556 1144 l 658 1278 l 785 1278 l 629 1078 l 482 1078 l 326 1278 z "},"ǧ":{"ha":849,"x_min":63,"x_max":754,"o":"m 754 6 q 728 -131 754 -69 q 656 -238 703 -193 q 542 -308 608 -283 q 394 -333 475 -333 q 222 -307 300 -333 q 72 -215 143 -281 l 157 -110 q 263 -190 206 -162 q 392 -217 319 -217 q 507 -197 461 -217 q 580 -144 553 -176 q 618 -72 607 -112 q 629 11 629 -31 l 629 108 l 625 108 q 527 20 589 49 q 397 -8 465 -8 q 263 17 325 -8 q 157 88 201 43 q 88 195 113 133 q 63 329 63 257 q 86 465 63 401 q 153 575 110 528 q 259 649 197 622 q 397 675 321 675 q 527 646 464 675 q 626 564 590 617 l 629 564 l 629 658 l 754 658 l 754 6 m 413 558 q 322 541 363 558 q 254 494 282 524 q 211 422 226 464 q 196 329 196 379 q 254 169 196 229 q 413 108 313 108 q 571 169 513 108 q 629 329 629 229 q 614 422 629 379 q 571 494 599 464 q 503 541 543 524 q 413 558 463 558 m 179 946 l 300 946 l 408 813 l 511 946 l 638 946 l 482 746 l 335 746 l 179 946 z "},"Ǩ":{"ha":900,"x_min":126,"x_max":924,"o":"m 126 983 l 260 983 l 260 558 l 271 558 l 706 983 l 892 983 l 417 529 l 924 0 l 729 0 l 271 492 l 260 492 l 260 0 l 126 0 l 126 983 m 226 1253 l 347 1253 l 456 1119 l 558 1253 l 685 1253 l 529 1053 l 382 1053 l 226 1253 z "},"ǩ":{"ha":721,"x_min":94,"x_max":703,"o":"m 94 1050 l 219 1050 l 219 372 l 503 657 l 676 657 l 369 358 l 703 0 l 525 0 l 219 342 l 219 0 l 94 0 l 94 1050 m 169 1319 l 290 1319 l 399 1186 l 501 1319 l 628 1319 l 472 1119 l 325 1119 l 169 1319 z "},"Ǫ":{"ha":1156,"x_min":65,"x_max":1090,"o":"m 578 -25 q 371 15 465 -25 q 209 124 276 54 q 103 288 142 193 q 65 492 65 382 q 103 696 65 601 q 209 860 142 790 q 371 969 276 929 q 578 1008 465 1008 q 785 969 690 1008 q 947 860 879 929 q 1052 696 1014 790 q 1090 492 1090 601 q 1052 288 1090 382 q 947 124 1014 193 q 785 15 879 54 q 578 -25 690 -25 m 578 100 q 731 131 663 100 q 847 215 799 163 q 922 340 896 268 q 949 492 949 411 q 922 644 949 572 q 847 768 896 715 q 731 852 799 821 q 578 883 663 883 q 425 852 493 883 q 308 768 357 821 q 233 644 260 715 q 207 492 207 572 q 233 340 207 411 q 308 215 260 268 q 425 131 357 163 q 578 100 493 100 m 710 -292 q 649 -328 682 -317 q 583 -340 615 -340 q 489 -310 529 -340 q 446 -222 449 -281 q 458 -165 446 -193 q 488 -110 469 -136 q 530 -62 507 -85 q 575 -24 553 -40 l 650 -24 q 617 -59 635 -39 q 583 -103 599 -79 q 556 -151 567 -126 q 546 -197 546 -175 q 569 -244 549 -231 q 614 -257 589 -257 q 649 -249 632 -257 q 679 -231 665 -242 l 710 -292 z "},"ǫ":{"ha":825,"x_min":63,"x_max":763,"o":"m 196 329 q 211 237 196 279 q 254 165 226 194 q 322 117 282 135 q 413 100 363 100 q 503 117 463 100 q 571 165 543 135 q 614 237 599 194 q 629 329 629 279 q 614 422 629 379 q 571 494 599 464 q 503 541 543 524 q 413 558 463 558 q 322 541 363 558 q 254 494 282 524 q 211 422 226 464 q 196 329 196 379 m 63 329 q 90 464 63 401 q 164 574 117 526 q 275 648 211 621 q 413 675 339 675 q 550 648 486 675 q 661 574 614 621 q 735 464 708 526 q 763 329 763 401 q 735 194 763 257 q 661 84 708 131 q 550 10 614 38 q 413 -17 486 -17 q 275 10 339 -17 q 164 84 211 38 q 90 194 117 131 q 63 329 63 257 m 544 -283 q 483 -320 517 -308 q 418 -332 450 -332 q 324 -302 364 -332 q 281 -214 283 -272 q 292 -156 281 -185 q 323 -102 304 -128 q 365 -54 342 -76 q 410 -15 388 -32 l 485 -15 q 451 -51 469 -31 q 417 -94 433 -71 q 391 -142 401 -118 q 381 -189 381 -167 q 403 -235 383 -222 q 449 -249 424 -249 q 483 -241 467 -249 q 514 -222 500 -233 l 544 -283 z "},"Ǭ":{"ha":1156,"x_min":65,"x_max":1090,"o":"m 578 -25 q 371 15 465 -25 q 209 124 276 54 q 103 288 142 193 q 65 492 65 382 q 103 696 65 601 q 209 860 142 790 q 371 969 276 929 q 578 1008 465 1008 q 785 969 690 1008 q 947 860 879 929 q 1052 696 1014 790 q 1090 492 1090 601 q 1052 288 1090 382 q 947 124 1014 193 q 785 15 879 54 q 578 -25 690 -25 m 578 100 q 731 131 663 100 q 847 215 799 163 q 922 340 896 268 q 949 492 949 411 q 922 644 949 572 q 847 768 896 715 q 731 852 799 821 q 578 883 663 883 q 425 852 493 883 q 308 768 357 821 q 233 644 260 715 q 207 492 207 572 q 233 340 207 411 q 308 215 260 268 q 425 131 357 163 q 578 100 493 100 m 710 -292 q 649 -328 682 -317 q 583 -340 615 -340 q 489 -310 529 -340 q 446 -222 449 -281 q 458 -165 446 -193 q 488 -110 469 -136 q 530 -62 507 -85 q 575 -24 553 -40 l 650 -24 q 617 -59 635 -39 q 583 -103 599 -79 q 556 -151 567 -126 q 546 -197 546 -175 q 569 -244 549 -231 q 614 -257 589 -257 q 649 -249 632 -257 q 679 -231 665 -242 l 710 -292 m 778 1078 l 378 1078 l 378 1169 l 778 1169 l 778 1078 z "},"ǭ":{"ha":825,"x_min":63,"x_max":763,"o":"m 196 329 q 211 237 196 279 q 254 165 226 194 q 322 117 282 135 q 413 100 363 100 q 503 117 463 100 q 571 165 543 135 q 614 237 599 194 q 629 329 629 279 q 614 422 629 379 q 571 494 599 464 q 503 541 543 524 q 413 558 463 558 q 322 541 363 558 q 254 494 282 524 q 211 422 226 464 q 196 329 196 379 m 63 329 q 90 464 63 401 q 164 574 117 526 q 275 648 211 621 q 413 675 339 675 q 550 648 486 675 q 661 574 614 621 q 735 464 708 526 q 763 329 763 401 q 735 194 763 257 q 661 84 708 131 q 550 10 614 38 q 413 -17 486 -17 q 275 10 339 -17 q 164 84 211 38 q 90 194 117 131 q 63 329 63 257 m 544 -283 q 483 -320 517 -308 q 418 -332 450 -332 q 324 -302 364 -332 q 281 -214 283 -272 q 292 -156 281 -185 q 323 -102 304 -128 q 365 -54 342 -76 q 410 -15 388 -32 l 485 -15 q 451 -51 469 -31 q 417 -94 433 -71 q 391 -142 401 -118 q 381 -189 381 -167 q 403 -235 383 -222 q 449 -249 424 -249 q 483 -241 467 -249 q 514 -222 500 -233 l 544 -283 m 613 746 l 213 746 l 213 838 l 613 838 l 613 746 z "},"Ǳ":{"ha":1853,"x_min":104,"x_max":1808,"o":"m 104 983 l 447 983 q 630 960 551 983 q 766 897 708 936 q 862 806 824 857 q 922 700 900 754 q 954 592 944 646 q 964 492 964 538 q 929 309 964 397 q 826 152 894 221 q 658 42 758 83 q 425 0 557 0 l 104 0 l 104 983 m 238 125 l 406 125 q 566 148 490 125 q 699 217 642 171 q 789 331 756 263 q 822 492 822 400 q 807 602 822 539 q 749 722 792 665 q 632 819 707 779 q 438 858 557 858 l 238 858 l 238 125 m 1074 125 l 1633 858 l 1090 858 l 1090 983 l 1800 983 l 1800 858 l 1243 125 l 1808 125 l 1808 0 l 1074 0 l 1074 125 z "},"ǲ":{"ha":1672,"x_min":104,"x_max":1624,"o":"m 104 983 l 447 983 q 630 960 551 983 q 766 897 708 936 q 862 806 824 857 q 922 700 900 754 q 954 592 944 646 q 964 492 964 538 q 929 309 964 397 q 826 152 894 221 q 658 42 758 83 q 425 0 557 0 l 104 0 l 104 983 m 238 125 l 406 125 q 566 148 490 125 q 699 217 642 171 q 789 331 756 263 q 822 492 822 400 q 807 602 822 539 q 749 722 792 665 q 632 819 707 779 q 438 858 557 858 l 238 858 l 238 125 m 1078 113 l 1451 550 l 1090 550 l 1090 658 l 1604 658 l 1604 547 l 1228 108 l 1624 108 l 1624 0 l 1078 0 l 1078 113 z "},"ǳ":{"ha":1492,"x_min":63,"x_max":1443,"o":"m 754 0 l 629 0 l 629 94 l 626 94 q 527 13 590 42 q 397 -17 464 -17 q 259 10 321 -17 q 153 83 197 36 q 86 193 110 131 q 63 329 63 256 q 86 466 63 403 q 153 576 110 529 q 259 649 197 622 q 397 675 321 675 q 531 645 468 675 q 626 564 593 615 l 629 564 l 629 1050 l 754 1050 l 754 0 m 413 100 q 503 117 463 100 q 571 165 543 135 q 614 237 599 194 q 629 329 629 279 q 614 422 629 379 q 571 494 599 464 q 503 541 543 524 q 413 558 463 558 q 322 541 363 558 q 254 494 282 524 q 211 422 226 464 q 196 329 196 379 q 211 237 196 279 q 254 165 226 194 q 322 117 282 135 q 413 100 363 100 m 897 113 l 1271 550 l 910 550 l 910 658 l 1424 658 l 1424 547 l 1047 108 l 1443 108 l 1443 0 l 897 0 l 897 113 z "},"Ǵ":{"ha":1081,"x_min":65,"x_max":964,"o":"m 964 550 l 964 65 q 882 26 928 43 q 787 -2 836 10 q 687 -19 738 -14 q 592 -25 636 -25 q 369 17 467 -25 q 203 129 271 58 q 101 294 136 200 q 65 492 65 388 q 103 696 65 601 q 209 860 142 790 q 371 969 276 929 q 578 1008 465 1008 q 800 974 714 1008 q 944 881 886 940 l 850 779 q 721 860 789 838 q 578 883 653 883 q 425 852 493 883 q 308 768 357 821 q 233 644 260 715 q 207 492 207 572 q 236 337 207 408 q 317 213 265 265 q 438 130 368 160 q 589 100 507 100 q 723 113 660 100 q 831 151 786 126 l 831 425 l 613 425 l 613 550 l 964 550 m 636 1278 l 814 1278 l 607 1078 l 492 1078 l 636 1278 z "},"ǵ":{"ha":849,"x_min":63,"x_max":754,"o":"m 754 6 q 728 -131 754 -69 q 656 -238 703 -193 q 542 -308 608 -283 q 394 -333 475 -333 q 222 -307 300 -333 q 72 -215 143 -281 l 157 -110 q 263 -190 206 -162 q 392 -217 319 -217 q 507 -197 461 -217 q 580 -144 553 -176 q 618 -72 607 -112 q 629 11 629 -31 l 629 108 l 625 108 q 527 20 589 49 q 397 -8 465 -8 q 263 17 325 -8 q 157 88 201 43 q 88 195 113 133 q 63 329 63 257 q 86 465 63 401 q 153 575 110 528 q 259 649 197 622 q 397 675 321 675 q 527 646 464 675 q 626 564 590 617 l 629 564 l 629 658 l 754 658 l 754 6 m 413 558 q 322 541 363 558 q 254 494 282 524 q 211 422 226 464 q 196 329 196 379 q 254 169 196 229 q 413 108 313 108 q 571 169 513 108 q 629 329 629 229 q 614 422 629 379 q 571 494 599 464 q 503 541 543 524 q 413 558 463 558 m 475 946 l 653 946 l 446 746 l 331 746 l 475 946 z "},"Ǹ":{"ha":1106,"x_min":126,"x_max":979,"o":"m 126 983 l 301 983 l 843 175 l 846 175 l 846 983 l 979 983 l 979 0 l 810 0 l 263 808 l 260 808 l 260 0 l 126 0 l 126 983 m 714 1053 l 599 1053 l 392 1253 l 569 1253 l 714 1053 z "},"ǹ":{"ha":772,"x_min":94,"x_max":678,"o":"m 94 658 l 219 658 l 219 557 l 222 557 q 304 642 246 610 q 439 675 363 675 q 530 660 486 675 q 606 615 574 646 q 658 537 639 585 q 678 424 678 489 l 678 0 l 553 0 l 553 389 q 540 467 553 435 q 507 520 528 500 q 459 549 486 540 q 403 558 432 558 q 331 546 364 558 q 272 506 297 533 q 233 438 247 479 q 219 339 219 396 l 219 0 l 94 0 l 94 658 m 547 746 l 432 746 l 225 946 l 403 946 l 547 746 z "},"Ǻ":{"ha":978,"x_min":1,"x_max":976,"o":"m 435 983 l 556 983 l 976 0 l 821 0 l 722 243 l 254 243 l 157 0 l 1 0 l 435 983 m 674 360 l 490 811 l 488 811 l 301 360 l 674 360 m 347 1161 q 359 1215 347 1190 q 390 1259 371 1240 q 435 1288 410 1278 q 489 1299 461 1299 q 544 1288 518 1299 q 589 1259 569 1278 q 619 1216 608 1240 q 631 1163 631 1192 q 619 1108 631 1133 q 589 1065 608 1083 q 544 1035 569 1046 q 489 1025 518 1025 q 435 1035 461 1025 q 390 1065 410 1046 q 359 1108 371 1083 q 347 1161 347 1132 m 572 1161 q 547 1218 572 1196 q 489 1240 522 1240 q 431 1218 456 1240 q 406 1161 406 1196 q 431 1106 406 1128 q 489 1083 457 1083 q 547 1106 521 1083 q 572 1161 572 1128 m 528 1540 l 706 1540 l 499 1340 l 383 1340 l 528 1540 z "},"ǻ":{"ha":721,"x_min":63,"x_max":639,"o":"m 97 578 q 219 651 150 626 q 358 675 289 675 q 483 657 431 675 q 568 608 535 639 q 617 538 601 578 q 633 456 633 499 l 633 119 q 635 56 633 85 q 639 0 636 26 l 528 0 q 524 100 524 50 l 521 100 q 422 10 479 36 q 290 -17 365 -17 q 203 -4 244 -17 q 130 33 161 8 q 81 95 99 58 q 63 181 63 132 q 91 288 63 244 q 169 358 119 331 q 284 397 218 385 q 425 408 350 408 l 517 408 l 517 436 q 507 486 517 461 q 478 531 497 511 q 429 563 458 551 q 360 575 400 575 q 297 568 324 575 q 247 551 269 561 q 207 526 225 540 q 172 500 189 513 l 97 578 m 450 317 q 359 312 406 317 q 274 293 313 307 q 212 254 236 279 q 188 190 188 229 q 226 108 188 133 q 329 83 264 83 q 417 101 381 83 q 475 146 453 118 q 507 208 497 174 q 517 275 517 242 l 517 317 l 450 317 m 208 882 q 220 936 208 911 q 251 980 232 961 q 297 1009 271 999 q 350 1019 322 1019 q 405 1009 379 1019 q 450 980 431 999 q 481 937 469 961 q 492 883 492 913 q 481 829 492 854 q 450 785 469 804 q 405 756 431 767 q 350 746 379 746 q 297 756 322 746 q 251 785 271 767 q 220 828 232 804 q 208 882 208 853 m 433 882 q 408 939 433 917 q 350 961 383 961 q 292 939 317 961 q 267 882 267 917 q 292 826 267 849 q 350 804 318 804 q 408 826 382 804 q 433 882 433 849 m 403 1288 l 581 1288 l 374 1088 l 258 1088 l 403 1288 z "},"Ǽ":{"ha":1338,"x_min":-11,"x_max":1275,"o":"m 625 983 l 1258 983 l 1258 858 l 849 858 l 849 565 l 1233 565 l 1233 440 l 849 440 l 849 125 l 1275 125 l 1275 0 l 715 0 l 715 239 l 293 239 l 153 0 l -11 0 l 625 983 m 715 364 l 715 858 l 689 858 l 365 364 l 715 364 m 893 1253 l 1071 1253 l 864 1053 l 749 1053 l 893 1253 z "},"ǽ":{"ha":1183,"x_min":54,"x_max":1129,"o":"m 1129 283 l 639 283 q 652 207 639 243 q 691 144 665 171 q 753 100 717 117 q 838 83 790 83 q 940 113 897 83 q 1008 188 983 143 l 1110 111 q 988 10 1051 44 q 835 -25 925 -25 q 689 5 756 -25 q 578 110 622 35 q 466 11 532 47 q 308 -25 400 -25 q 194 -6 242 -25 q 115 42 146 13 q 69 110 83 72 q 54 188 54 149 q 78 284 54 246 q 142 344 103 322 q 230 374 181 365 q 328 383 279 383 l 522 383 l 522 404 q 481 525 522 475 q 357 575 439 575 q 257 556 299 575 q 171 500 215 536 l 93 579 q 215 651 146 626 q 356 675 285 675 q 488 651 424 675 q 592 569 553 628 q 629 606 608 588 q 678 640 650 625 q 741 665 706 656 q 822 675 776 675 q 976 639 917 675 q 1070 551 1036 603 q 1117 441 1104 499 q 1129 342 1129 383 l 1129 283 m 325 283 q 220 260 253 283 q 188 188 188 236 q 228 107 188 139 q 325 75 268 75 q 399 88 364 75 q 462 126 435 101 q 506 185 489 150 q 522 264 522 219 l 522 283 l 325 283 m 996 383 q 985 454 994 421 q 954 513 975 488 q 901 552 933 538 q 821 567 868 567 q 743 552 776 567 q 686 513 710 538 q 651 454 663 488 q 639 383 639 421 l 996 383 m 658 946 l 836 946 l 629 746 l 514 746 l 658 946 z "},"Ǿ":{"ha":1156,"x_min":65,"x_max":1090,"o":"m 342 182 q 448 122 389 143 q 578 100 507 100 q 731 131 663 100 q 847 215 799 163 q 922 340 896 268 q 949 492 949 411 q 926 632 949 567 q 863 750 904 697 l 342 182 m 807 806 q 703 863 761 842 q 578 883 646 883 q 425 852 493 883 q 308 768 357 821 q 233 644 260 715 q 207 492 207 572 q 228 356 207 419 q 288 240 249 292 l 807 806 m 76 11 l 194 140 q 99 299 132 210 q 65 492 65 388 q 103 696 65 601 q 209 860 142 790 q 371 969 276 929 q 578 1008 465 1008 q 751 981 671 1008 q 897 903 832 953 l 1013 1028 l 1071 975 l 956 850 q 1055 690 1019 782 q 1090 492 1090 599 q 1052 288 1090 382 q 947 124 1014 193 q 785 15 879 54 q 578 -25 690 -25 q 400 3 482 -25 q 253 85 318 32 l 136 -42 l 76 11 m 617 1297 l 794 1297 l 588 1097 l 472 1097 l 617 1297 z "},"ǿ":{"ha":825,"x_min":57,"x_max":792,"o":"m 554 510 q 492 546 526 533 q 413 558 457 558 q 322 541 363 558 q 254 494 282 524 q 211 422 226 464 q 196 329 196 379 q 238 188 196 243 l 554 510 m 57 6 l 150 100 q 86 203 110 144 q 63 329 63 263 q 90 464 63 401 q 164 574 117 526 q 275 648 211 621 q 413 675 339 675 q 536 653 479 675 q 638 594 593 632 l 742 699 l 792 649 l 688 543 q 743 444 724 499 q 763 329 763 390 q 735 194 763 257 q 661 84 708 131 q 550 10 614 38 q 413 -17 486 -17 q 301 1 354 -17 q 204 51 249 19 l 108 -44 l 57 6 m 289 138 q 413 100 339 100 q 503 117 463 100 q 571 165 543 135 q 614 237 599 194 q 629 329 629 279 q 599 453 629 401 l 289 138 m 476 969 l 654 969 l 447 769 l 332 769 l 476 969 z "},"Ȁ":{"ha":978,"x_min":1,"x_max":976,"o":"m 435 983 l 556 983 l 976 0 l 821 0 l 722 243 l 254 243 l 157 0 l 1 0 l 435 983 m 674 360 l 490 811 l 488 811 l 301 360 l 674 360 m 726 1053 l 611 1053 l 404 1253 l 582 1253 l 726 1053 m 463 1053 l 347 1053 l 140 1253 l 318 1253 l 463 1053 z "},"ȁ":{"ha":721,"x_min":1,"x_max":639,"o":"m 97 578 q 219 651 150 626 q 358 675 289 675 q 483 657 431 675 q 568 608 535 639 q 617 538 601 578 q 633 456 633 499 l 633 119 q 635 56 633 85 q 639 0 636 26 l 528 0 q 524 100 524 50 l 521 100 q 422 10 479 36 q 290 -17 365 -17 q 203 -4 244 -17 q 130 33 161 8 q 81 95 99 58 q 63 181 63 132 q 91 288 63 244 q 169 358 119 331 q 284 397 218 385 q 425 408 350 408 l 517 408 l 517 436 q 507 486 517 461 q 478 531 497 511 q 429 563 458 551 q 360 575 400 575 q 297 568 324 575 q 247 551 269 561 q 207 526 225 540 q 172 500 189 513 l 97 578 m 450 317 q 359 312 406 317 q 274 293 313 307 q 212 254 236 279 q 188 190 188 229 q 226 108 188 133 q 329 83 264 83 q 417 101 381 83 q 475 146 453 118 q 507 208 497 174 q 517 275 517 242 l 517 317 l 450 317 m 588 746 l 472 746 l 265 946 l 443 946 l 588 746 m 324 746 l 208 746 l 1 946 l 179 946 l 324 746 z "},"Ȃ":{"ha":978,"x_min":1,"x_max":976,"o":"m 435 983 l 556 983 l 976 0 l 821 0 l 722 243 l 254 243 l 157 0 l 1 0 l 435 983 m 674 360 l 490 811 l 488 811 l 301 360 l 674 360 m 347 1244 q 398 1168 357 1192 q 490 1144 439 1144 q 583 1168 542 1144 q 633 1244 624 1192 l 707 1244 q 640 1101 700 1149 q 489 1053 581 1053 q 338 1101 397 1053 q 271 1244 278 1149 l 347 1244 z "},"ȃ":{"ha":721,"x_min":63,"x_max":639,"o":"m 97 578 q 219 651 150 626 q 358 675 289 675 q 483 657 431 675 q 568 608 535 639 q 617 538 601 578 q 633 456 633 499 l 633 119 q 635 56 633 85 q 639 0 636 26 l 528 0 q 524 100 524 50 l 521 100 q 422 10 479 36 q 290 -17 365 -17 q 203 -4 244 -17 q 130 33 161 8 q 81 95 99 58 q 63 181 63 132 q 91 288 63 244 q 169 358 119 331 q 284 397 218 385 q 425 408 350 408 l 517 408 l 517 436 q 507 486 517 461 q 478 531 497 511 q 429 563 458 551 q 360 575 400 575 q 297 568 324 575 q 247 551 269 561 q 207 526 225 540 q 172 500 189 513 l 97 578 m 450 317 q 359 312 406 317 q 274 293 313 307 q 212 254 236 279 q 188 190 188 229 q 226 108 188 133 q 329 83 264 83 q 417 101 381 83 q 475 146 453 118 q 507 208 497 174 q 517 275 517 242 l 517 317 l 450 317 m 208 938 q 259 861 218 885 q 351 838 300 838 q 444 861 403 838 q 494 938 485 885 l 568 938 q 501 794 561 842 q 350 746 442 746 q 199 794 258 746 q 132 938 139 842 l 208 938 z "},"Ȅ":{"ha":849,"x_min":107,"x_max":786,"o":"m 126 983 l 761 983 l 761 858 l 260 858 l 260 565 l 726 565 l 726 440 l 260 440 l 260 125 l 786 125 l 786 0 l 126 0 l 126 983 m 693 1053 l 578 1053 l 371 1253 l 549 1253 l 693 1053 m 429 1053 l 314 1053 l 107 1253 l 285 1253 l 429 1053 z "},"ȅ":{"ha":772,"x_min":38,"x_max":717,"o":"m 189 283 q 208 205 189 240 q 257 144 226 169 q 328 106 288 119 q 411 92 368 92 q 513 119 469 92 q 592 190 556 146 l 686 118 q 394 -17 582 -17 q 253 10 317 -17 q 147 83 190 36 q 79 192 103 129 q 56 329 56 256 q 81 466 56 403 q 152 576 107 529 q 260 649 197 622 q 396 675 322 675 q 544 644 483 675 q 643 565 604 614 q 699 453 682 515 q 717 328 717 392 l 717 283 l 189 283 m 583 383 q 570 460 582 425 q 535 520 558 494 q 476 560 511 546 q 393 575 440 575 q 309 558 347 575 q 244 513 271 540 q 203 451 218 485 q 189 383 189 417 l 583 383 m 624 746 l 508 746 l 301 946 l 479 946 l 624 746 m 360 746 l 244 746 l 38 946 l 215 946 l 360 746 z "},"Ȇ":{"ha":849,"x_min":126,"x_max":786,"o":"m 126 983 l 761 983 l 761 858 l 260 858 l 260 565 l 726 565 l 726 440 l 260 440 l 260 125 l 786 125 l 786 0 l 126 0 l 126 983 m 314 1244 q 365 1168 324 1192 q 457 1144 406 1144 q 549 1168 508 1144 q 600 1244 590 1192 l 674 1244 q 607 1101 667 1149 q 456 1053 547 1053 q 304 1101 364 1053 q 238 1244 244 1149 l 314 1244 z "},"ȇ":{"ha":772,"x_min":56,"x_max":717,"o":"m 189 283 q 208 205 189 240 q 257 144 226 169 q 328 106 288 119 q 411 92 368 92 q 513 119 469 92 q 592 190 556 146 l 686 118 q 394 -17 582 -17 q 253 10 317 -17 q 147 83 190 36 q 79 192 103 129 q 56 329 56 256 q 81 466 56 403 q 152 576 107 529 q 260 649 197 622 q 396 675 322 675 q 544 644 483 675 q 643 565 604 614 q 699 453 682 515 q 717 328 717 392 l 717 283 l 189 283 m 583 383 q 570 460 582 425 q 535 520 558 494 q 476 560 511 546 q 393 575 440 575 q 309 558 347 575 q 244 513 271 540 q 203 451 218 485 q 189 383 189 417 l 583 383 m 244 938 q 295 861 254 885 q 388 838 336 838 q 480 861 439 838 q 531 938 521 885 l 604 938 q 538 794 597 842 q 386 746 478 746 q 235 794 294 746 q 168 938 175 842 l 244 938 z "},"Ȉ":{"ha":386,"x_min":-183,"x_max":403,"o":"m 126 983 l 260 983 l 260 0 l 126 0 l 126 983 m 403 1053 l 288 1053 l 81 1253 l 258 1253 l 403 1053 m 139 1053 l 24 1053 l -183 1253 l -6 1253 l 139 1053 z "},"ȉ":{"ha":333,"x_min":-182,"x_max":404,"o":"m 104 658 l 229 658 l 229 0 l 104 0 l 104 658 m 404 729 l 289 729 l 82 929 l 260 929 l 404 729 m 140 729 l 25 729 l -182 929 l -4 929 l 140 729 z "},"Ȋ":{"ha":386,"x_min":-25,"x_max":411,"o":"m 126 983 l 260 983 l 260 0 l 126 0 l 126 983 m 51 1244 q 102 1168 61 1192 q 194 1144 143 1144 q 287 1168 246 1144 q 338 1244 328 1192 l 411 1244 q 344 1101 404 1149 q 193 1053 285 1053 q 42 1101 101 1053 q -25 1244 -18 1149 l 51 1244 z "},"ȋ":{"ha":333,"x_min":-51,"x_max":385,"o":"m 104 658 l 229 658 l 229 0 l 104 0 l 104 658 m 25 921 q 76 844 35 868 q 168 821 117 821 q 260 844 219 821 q 311 921 301 868 l 385 921 q 318 777 378 825 q 167 729 258 729 q 15 777 75 729 q -51 921 -44 825 l 25 921 z "},"Ȍ":{"ha":1156,"x_min":65,"x_max":1090,"o":"m 578 -25 q 371 15 465 -25 q 209 124 276 54 q 103 288 142 193 q 65 492 65 382 q 103 696 65 601 q 209 860 142 790 q 371 969 276 929 q 578 1008 465 1008 q 785 969 690 1008 q 947 860 879 929 q 1052 696 1014 790 q 1090 492 1090 601 q 1052 288 1090 382 q 947 124 1014 193 q 785 15 879 54 q 578 -25 690 -25 m 578 100 q 731 131 663 100 q 847 215 799 163 q 922 340 896 268 q 949 492 949 411 q 922 644 949 572 q 847 768 896 715 q 731 852 799 821 q 578 883 663 883 q 425 852 493 883 q 308 768 357 821 q 233 644 260 715 q 207 492 207 572 q 233 340 207 411 q 308 215 260 268 q 425 131 357 163 q 578 100 493 100 m 815 1078 l 700 1078 l 493 1278 l 671 1278 l 815 1078 m 551 1078 l 436 1078 l 229 1278 l 407 1278 l 551 1078 z "},"ȍ":{"ha":825,"x_min":50,"x_max":763,"o":"m 196 329 q 211 237 196 279 q 254 165 226 194 q 322 117 282 135 q 413 100 363 100 q 503 117 463 100 q 571 165 543 135 q 614 237 599 194 q 629 329 629 279 q 614 422 629 379 q 571 494 599 464 q 503 541 543 524 q 413 558 463 558 q 322 541 363 558 q 254 494 282 524 q 211 422 226 464 q 196 329 196 379 m 63 329 q 90 464 63 401 q 164 574 117 526 q 275 648 211 621 q 413 675 339 675 q 550 648 486 675 q 661 574 614 621 q 735 464 708 526 q 763 329 763 401 q 735 194 763 257 q 661 84 708 131 q 550 10 614 38 q 413 -17 486 -17 q 275 10 339 -17 q 164 84 211 38 q 90 194 117 131 q 63 329 63 257 m 636 746 l 521 746 l 314 946 l 492 946 l 636 746 m 372 746 l 257 746 l 50 946 l 228 946 l 372 746 z "},"Ȏ":{"ha":1156,"x_min":65,"x_max":1090,"o":"m 578 -25 q 371 15 465 -25 q 209 124 276 54 q 103 288 142 193 q 65 492 65 382 q 103 696 65 601 q 209 860 142 790 q 371 969 276 929 q 578 1008 465 1008 q 785 969 690 1008 q 947 860 879 929 q 1052 696 1014 790 q 1090 492 1090 601 q 1052 288 1090 382 q 947 124 1014 193 q 785 15 879 54 q 578 -25 690 -25 m 578 100 q 731 131 663 100 q 847 215 799 163 q 922 340 896 268 q 949 492 949 411 q 922 644 949 572 q 847 768 896 715 q 731 852 799 821 q 578 883 663 883 q 425 852 493 883 q 308 768 357 821 q 233 644 260 715 q 207 492 207 572 q 233 340 207 411 q 308 215 260 268 q 425 131 357 163 q 578 100 493 100 m 436 1269 q 487 1193 446 1217 q 579 1169 528 1169 q 672 1193 631 1169 q 722 1269 713 1217 l 796 1269 q 729 1126 789 1174 q 578 1078 669 1078 q 426 1126 486 1078 q 360 1269 367 1174 l 436 1269 z "},"ȏ":{"ha":825,"x_min":63,"x_max":763,"o":"m 196 329 q 211 237 196 279 q 254 165 226 194 q 322 117 282 135 q 413 100 363 100 q 503 117 463 100 q 571 165 543 135 q 614 237 599 194 q 629 329 629 279 q 614 422 629 379 q 571 494 599 464 q 503 541 543 524 q 413 558 463 558 q 322 541 363 558 q 254 494 282 524 q 211 422 226 464 q 196 329 196 379 m 63 329 q 90 464 63 401 q 164 574 117 526 q 275 648 211 621 q 413 675 339 675 q 550 648 486 675 q 661 574 614 621 q 735 464 708 526 q 763 329 763 401 q 735 194 763 257 q 661 84 708 131 q 550 10 614 38 q 413 -17 486 -17 q 275 10 339 -17 q 164 84 211 38 q 90 194 117 131 q 63 329 63 257 m 271 938 q 322 861 281 885 q 414 838 363 838 q 506 861 465 838 q 557 938 547 885 l 631 938 q 564 794 624 842 q 413 746 504 746 q 261 794 321 746 q 194 938 201 842 l 271 938 z "},"Ȑ":{"ha":849,"x_min":71,"x_max":825,"o":"m 126 983 l 472 983 q 628 958 567 983 q 724 892 689 932 q 774 803 760 853 q 788 708 788 754 q 771 617 788 661 q 723 538 754 574 q 647 478 692 503 q 546 449 601 454 l 825 0 l 658 0 l 408 433 l 260 433 l 260 0 l 126 0 l 126 983 m 260 550 l 435 550 q 512 556 474 550 q 580 579 550 563 q 628 627 610 596 q 646 708 646 658 q 628 790 646 758 q 580 838 610 821 q 512 860 550 854 q 435 867 474 867 l 260 867 l 260 550 m 657 1053 l 542 1053 l 335 1253 l 513 1253 l 657 1053 m 393 1053 l 278 1053 l 71 1253 l 249 1253 l 393 1053 z "},"ȑ":{"ha":514,"x_min":-64,"x_max":522,"o":"m 94 658 l 219 658 l 219 557 l 222 557 q 256 605 235 583 q 302 642 276 626 q 358 666 328 657 q 419 675 389 675 q 475 667 450 675 l 469 532 q 439 539 454 536 q 408 542 424 542 q 268 490 317 542 q 219 331 219 439 l 219 0 l 94 0 l 94 658 m 522 746 l 407 746 l 200 946 l 378 946 l 522 746 m 258 746 l 143 746 l -64 946 l 114 946 l 258 746 z "},"Ȓ":{"ha":849,"x_min":126,"x_max":825,"o":"m 126 983 l 472 983 q 628 958 567 983 q 724 892 689 932 q 774 803 760 853 q 788 708 788 754 q 771 617 788 661 q 723 538 754 574 q 647 478 692 503 q 546 449 601 454 l 825 0 l 658 0 l 408 433 l 260 433 l 260 0 l 126 0 l 126 983 m 260 550 l 435 550 q 512 556 474 550 q 580 579 550 563 q 628 627 610 596 q 646 708 646 658 q 628 790 646 758 q 580 838 610 821 q 512 860 550 854 q 435 867 474 867 l 260 867 l 260 550 m 292 1244 q 342 1168 301 1192 q 435 1144 383 1144 q 527 1168 486 1144 q 578 1244 568 1192 l 651 1244 q 585 1101 644 1149 q 433 1053 525 1053 q 282 1101 342 1053 q 215 1244 222 1149 l 292 1244 z "},"ȓ":{"ha":514,"x_min":67,"x_max":503,"o":"m 94 658 l 219 658 l 219 557 l 222 557 q 256 605 235 583 q 302 642 276 626 q 358 666 328 657 q 419 675 389 675 q 475 667 450 675 l 469 532 q 439 539 454 536 q 408 542 424 542 q 268 490 317 542 q 219 331 219 439 l 219 0 l 94 0 l 94 658 m 143 938 q 194 861 153 885 q 286 838 235 838 q 378 861 338 838 q 429 938 419 885 l 503 938 q 436 794 496 842 q 285 746 376 746 q 133 794 193 746 q 67 938 74 842 l 143 938 z "},"Ȕ":{"ha":978,"x_min":108,"x_max":869,"o":"m 242 983 l 242 381 q 254 285 242 335 q 296 194 267 236 q 372 126 325 153 q 489 100 419 100 q 606 126 558 100 q 682 194 653 153 q 724 285 711 236 q 736 381 736 335 l 736 983 l 869 983 l 869 360 q 840 203 869 274 q 760 82 811 133 q 639 3 708 31 q 489 -25 569 -25 q 339 3 408 -25 q 218 82 269 31 q 138 203 167 133 q 108 360 108 274 l 108 983 l 242 983 m 713 1053 l 597 1053 l 390 1253 l 568 1253 l 713 1053 m 449 1053 l 333 1053 l 126 1253 l 304 1253 l 449 1053 z "},"ȕ":{"ha":772,"x_min":38,"x_max":678,"o":"m 678 0 l 553 0 l 553 101 l 550 101 q 468 16 526 49 q 333 -17 410 -17 q 242 -2 285 -17 q 166 43 199 13 q 114 122 133 74 q 94 235 94 169 l 94 658 l 219 658 l 219 269 q 232 191 219 224 q 265 138 244 158 q 313 109 286 118 q 369 100 340 100 q 442 113 408 100 q 500 152 475 125 q 539 221 525 179 q 553 319 553 263 l 553 658 l 678 658 l 678 0 m 624 729 l 508 729 l 301 929 l 479 929 l 624 729 m 360 729 l 244 729 l 38 929 l 215 929 l 360 729 z "},"Ȗ":{"ha":978,"x_min":108,"x_max":869,"o":"m 242 983 l 242 381 q 254 285 242 335 q 296 194 267 236 q 372 126 325 153 q 489 100 419 100 q 606 126 558 100 q 682 194 653 153 q 724 285 711 236 q 736 381 736 335 l 736 983 l 869 983 l 869 360 q 840 203 869 274 q 760 82 811 133 q 639 3 708 31 q 489 -25 569 -25 q 339 3 408 -25 q 218 82 269 31 q 138 203 167 133 q 108 360 108 274 l 108 983 l 242 983 m 347 1244 q 398 1168 357 1192 q 490 1144 439 1144 q 583 1168 542 1144 q 633 1244 624 1192 l 707 1244 q 640 1101 700 1149 q 489 1053 581 1053 q 338 1101 397 1053 q 271 1244 278 1149 l 347 1244 z "}}}
